<svg version="1.1" viewBox="0.0 0.0 897.9632545931759 545.9002624671916" fill="none" stroke="none" stroke-linecap="square" stroke-miterlimit="10" xmlns:xlink="http://www.w3.org/1999/xlink" xmlns="http://www.w3.org/2000/svg"><clipPath id="p.0"><path d="m0 0l897.96326 0l0 545.90027l-897.96326 0l0 -545.90027z" clip-rule="nonzero"/></clipPath><g clip-path="url(#p.0)"><path fill="#000000" fill-opacity="0.0" d="m0 0l897.96326 0l0 545.90027l-897.96326 0z" fill-rule="evenodd"/><path fill="#cfe2f3" d="m351.53543 48.052494l0 0c0 -3.713791 3.01062 -6.724411 6.7244263 -6.724411l56.75589 0c1.7834167 0 3.493805 0.70846176 4.754883 1.9695358c1.2610779 1.2610703 1.9695129 2.9714508 1.9695129 4.754875l0 26.89764c0 3.7137833 -3.01062 6.7244034 -6.7243958 6.7244034l-56.75589 0c-3.7138062 0 -6.7244263 -3.01062 -6.7244263 -6.7244034z" fill-rule="evenodd"/><path stroke="#000000" stroke-width="1.0" stroke-linejoin="round" stroke-linecap="butt" d="m351.53543 48.052494l0 0c0 -3.713791 3.01062 -6.724411 6.7244263 -6.724411l56.75589 0c1.7834167 0 3.493805 0.70846176 4.754883 1.9695358c1.2610779 1.2610703 1.9695129 2.9714508 1.9695129 4.754875l0 26.89764c0 3.7137833 -3.01062 6.7244034 -6.7243958 6.7244034l-56.75589 0c-3.7138062 0 -6.7244263 -3.01062 -6.7244263 -6.7244034z" fill-rule="evenodd"/><path fill="#000000" d="m370.77057 64.79631l-5.125 0l-1.046875 2.84375l1.5 0q0.28125 0 0.390625 0.109375q0.125 0.109375 0.125 0.28125q0 0.171875 -0.125 0.28125q-0.109375 0.109375 -0.390625 0.109375l-2.921875 0q-0.265625 0 -0.390625 -0.109375q-0.125 -0.109375 -0.125 -0.28125q0 -0.171875 0.125 -0.28125q0.125 -0.109375 0.390625 -0.109375l0.609375 0l3.4375 -9.296875l-2.296875 0q-0.28125 0 -0.40625 -0.09375q-0.109375 -0.109375 -0.109375 -0.296875q0 -0.171875 0.109375 -0.28125q0.125 -0.109375 0.40625 -0.109375l3.921875 0l3.8125 10.078125l0.59375 0q0.28125 0 0.390625 0.109375q0.125 0.109375 0.125 0.28125q0 0.171875 -0.125 0.28125q-0.109375 0.109375 -0.390625 0.109375l-2.90625 0q-0.28125 0 -0.40625 -0.109375q-0.125 -0.109375 -0.125 -0.28125q0 -0.171875 0.125 -0.28125q0.125 -0.109375 0.40625 -0.109375l1.484375 0l-1.0625 -2.84375zm-0.296875 -0.78125l-2.15625 -5.671875l-0.28125 0l-2.09375 5.671875l4.53125 0zm9.526855 -7.234375l0 10.859375l3.0625 0q0.28125 0 0.40625 0.109375q0.125 0.109375 0.125 0.28125q0 0.171875 -0.125 0.28125q-0.125 0.109375 -0.40625 0.109375l-6.90625 0q-0.28125 0 -0.40625 -0.109375q-0.109375 -0.109375 -0.109375 -0.28125q0 -0.171875 0.109375 -0.28125q0.125 -0.109375 0.40625 -0.109375l3.0625 0l0 -10.078125l-2.234375 0q-0.28125 0 -0.40625 -0.109375q-0.125 -0.109375 -0.125 -0.28125q0 -0.171875 0.109375 -0.28125q0.125 -0.109375 0.421875 -0.109375l3.015625 0zm9.433105 8.171875l0 3.46875l-1.828125 0q-0.28125 0 -0.40625 -0.109375q-0.125 -0.109375 -0.125 -0.28125q0 -0.171875 0.125 -0.28125q0.125 -0.109375 0.40625 -0.109375l1.046875 0l0 -10.078125l-1.046875 0q-0.28125 0 -0.40625 -0.109375q-0.125 -0.109375 -0.125 -0.28125q0 -0.171875 0.125 -0.28125q0.125 -0.109375 0.40625 -0.109375l1.828125 0l0 7.171875l3.3125 -2.78125l-0.40625 0q-0.28125 0 -0.40625 -0.109375q-0.109375 -0.109375 -0.109375 -0.28125q0 -0.171875 0.109375 -0.28125q0.125 -0.109375 0.40625 -0.109375l2.5 0q0.28125 0 0.40625 0.109375q0.125 0.109375 0.125 0.28125q0 0.171875 -0.125 0.28125q-0.125 0.109375 -0.40625 0.109375l-0.90625 0l-3.046875 2.546875l3.859375 3.921875l0.890625 0q0.296875 0 0.40625 0.109375q0.125 0.109375 0.125 0.28125q0 0.171875 -0.125 0.28125q-0.109375 0.109375 -0.40625 0.109375l-2.515625 0q-0.28125 0 -0.40625 -0.109375q-0.109375 -0.109375 -0.109375 -0.28125q0 -0.171875 0.109375 -0.28125q0.125 -0.109375 0.40625 -0.109375l0.546875 0l-3.34375 -3.4375l-0.890625 0.75zm15.651855 3.46875l0 -1.140625q-1.609375 1.453125 -3.453125 1.453125q-1.140625 0 -1.734375 -0.625q-0.78125 -0.8125 -0.78125 -1.90625l0 -5.03125l-1.046875 0q-0.28125 0 -0.40625 -0.109375q-0.109375 -0.109375 -0.109375 -0.28125q0 -0.171875 0.109375 -0.28125q0.125 -0.109375 0.40625 -0.109375l1.828125 0l0 5.8125q0 0.765625 0.484375 1.265625q0.484375 0.484375 1.203125 0.484375q1.90625 0 3.5 -1.75l0 -5.03125l-1.4375 0q-0.28125 0 -0.40625 -0.109375q-0.125 -0.109375 -0.125 -0.28125q0 -0.171875 0.125 -0.28125q0.125 -0.109375 0.40625 -0.109375l2.203125 0l0 7.25l0.671875 0q0.265625 0 0.390625 0.109375q0.125 0.109375 0.125 0.28125q0 0.171875 -0.125 0.28125q-0.125 0.109375 -0.390625 0.109375l-1.4375 0z" fill-rule="nonzero"/><path fill="#cfe2f3" d="m339.73776 116.0105l93.04462 0l0 47.803146l-93.04462 0z" fill-rule="evenodd"/><path stroke="#000000" stroke-width="1.0" stroke-linejoin="round" stroke-linecap="butt" d="m339.73776 116.0105l93.04462 0l0 47.803146l-93.04462 0z" fill-rule="evenodd"/><path fill="#000000" d="m356.019 135.83208l0 -0.4375q-0.703125 0.375 -1.5625 0.5625q-0.84375 0.1875 -1.53125 0.1875q-1.5 0 -2.4375 -0.796875q-0.9375 -0.796875 -0.9375 -1.765625q0 -1.171875 1.1875 -2.171875q1.203125 -1.015625 3.3125 -1.015625q0.859375 0 1.96875 0.1875l0 -0.453125q0 -0.421875 -0.359375 -0.6875q-0.359375 -0.265625 -1.375 -0.265625q-0.828125 0 -2.15625 0.328125q-0.484375 0.125 -0.765625 0.125q-0.359375 0 -0.625 -0.265625q-0.265625 -0.265625 -0.265625 -0.6875q0 -0.234375 0.09375 -0.40625q0.09375 -0.1875 0.25 -0.28125763q0.171875 -0.109375 0.6875 -0.25q0.703125 -0.203125 1.421875 -0.3125q0.71875 -0.109375 1.296875 -0.109375q1.734375 0 2.6875 0.7500076q0.96875 0.75 0.96875 2.046875l0 3.84375l0.328125 0q0.671875 0 0.953125 0.265625q0.296875 0.265625 0.296875 0.6875q0 0.40625 -0.296875 0.671875q-0.28125 0.25 -0.953125 0.25l-2.1875 0zm0 -3.34375q-1.125 -0.21875 -2.078125 -0.21875q-1.125 0 -1.953125 0.5625q-0.515625 0.34375 -0.515625 0.71875q0 0.265625 0.25 0.421875q0.453125 0.296875 1.25 0.296875q0.671875 0 1.515625 -0.265625q0.859375 -0.265625 1.53125 -0.71875l0 -0.796875zm7.6174316 -4.9218826l0 0.6250076q0.515625 -0.43750763 1.125 -0.6562576q0.625 -0.21875 1.34375 -0.21875q1.65625 0 2.625 1.0312576q0.765625 0.8125 0.765625 2.140625l0 3.46875q0.578125 0 0.859375 0.265625q0.296875 0.265625 0.296875 0.6875q0 0.40625 -0.296875 0.671875q-0.28125 0.25 -0.953125 0.25l-1.6875 0q-0.671875 0 -0.96875 -0.25q-0.28125 -0.265625 -0.28125 -0.6875q0 -0.40625 0.28125 -0.671875q0.28125 -0.265625 0.875 -0.265625l0 -3.515625q0 -0.609375 -0.328125 -0.890625q-0.421875 -0.375 -1.28125 -0.375q-0.65625 0 -1.140625 0.25q-0.484375 0.25 -1.234375 1.0625l0 3.46875q0.71875 0 0.9375 0.140625q0.4375 0.28125 0.4375 0.8125q0 0.40625 -0.28125 0.671875q-0.28125 0.25 -0.96875 0.25l-2.109375 0q-0.6875 0 -0.96875 -0.25q-0.28125 -0.265625 -0.28125 -0.6875q0 -0.515625 0.4375 -0.796875q0.21875 -0.140625 0.9375 -0.140625l0 -4.53125q-0.59375 0 -0.875 -0.265625q-0.28125 -0.265625 -0.28125 -0.671875q0 -0.40625 0.28125 -0.6562576q0.28125 -0.265625 0.96875 -0.265625l1.765625 0zm28.281769 2.1250076l-7.96875 0q-0.671875 0 -0.96875 -0.25q-0.28125 -0.265625 -0.28125 -0.6875q0 -0.40625 0.28125 -0.65625q0.296875 -0.26563263 0.96875 -0.26563263l7.96875 0q0.6875 0 0.96875 0.26563263q0.28125 0.25 0.28125 0.671875q0 0.40625 -0.28125 0.671875q-0.28125 0.25 -0.96875 0.25zm0 3.515625l-7.96875 0q-0.671875 0 -0.96875 -0.25q-0.28125 -0.265625 -0.28125 -0.671875q0 -0.421875 0.28125 -0.671875q0.296875 -0.265625 0.96875 -0.265625l7.96875 0q0.6875 0 0.96875 0.265625q0.28125 0.25 0.28125 0.671875q0 0.40625 -0.28125 0.671875q-0.28125 0.25 -0.96875 0.25zm21.063019 -3.609375q0.828125 0.5625 1.234375 1.3125q0.40625 0.734375 0.40625 1.65625q0 0.984375 -0.546875 1.828125q-0.53125 0.84375 -1.5625 1.28125q-1.03125 0.421875 -2.703125 0.421875q-2.15625 0 -3.25 -0.671875q-0.609375 -0.375 -0.609375 -0.90625q0 -0.40625 0.265625 -0.671875q0.265625 -0.28125 0.65625 -0.28125q0.25 0 0.546875 0.171875q0.390625 0.28125 0.75 0.375q0.546875 0.125 1.5 0.125q1.640625 0 2.359375 -0.421875q0.734375 -0.421875 0.734375 -1.203125q0 -0.578125 -0.421875 -1.109375q-0.421875 -0.53125 -1.140625 -0.8125q-0.40625 -0.171875 -1.390625 -0.234375q-0.453125 -0.03125 -0.703125 -0.28125q-0.25 -0.265625 -0.25 -0.640625q0 -0.40625 0.265625 -0.671875q0.28125 -0.28125 0.6875 -0.28125q0.9375 0 1.0 -0.015625q0.359375 -0.03125 0.71875 -0.234375q0.375 -0.203125 0.59375 -0.5468826q0.234375 -0.359375 0.234375 -0.71875q0 -0.59375 -0.53125 -1.03125q-0.515625 -0.4375 -1.578125 -0.4375q-1.34375 0 -2.046875 0.78125q-0.21875 0.234375 -0.34375 0.296875q-0.1875 0.09375 -0.421875 0.09375q-0.390625 0 -0.671875 -0.265625q-0.265625 -0.265625 -0.265625 -0.671875q0 -0.625 0.84375 -1.21875q1.21875 -0.875 3.046875 -0.875q1.734375 0 2.78125 0.984375q1.046875 0.984375 1.046875 2.375q0 0.71875 -0.3125 1.3437576q-0.3125 0.625 -0.921875 1.15625z" fill-rule="nonzero"/><path fill="#000000" d="m355.0034 146.01958l0 1.96875l-2.21875 0l0 -1.96875l2.21875 0zm0.25 3.546875l0 6.390625l2.25 0q0.671875 0 0.953125 0.265625q0.296875 0.265625 0.296875 0.6875q0 0.40625 -0.296875 0.671875q-0.28125 0.25 -0.953125 0.25l-6.359375 0q-0.671875 0 -0.953125 -0.25q-0.28125 -0.265625 -0.28125 -0.6875q0 -0.40625 0.28125 -0.671875q0.28125 -0.265625 0.953125 -0.265625l2.25 0l0 -4.53125l-1.5 0q-0.671875 0 -0.96875 -0.25q-0.28125 -0.265625 -0.28125 -0.6875q0 -0.40625 0.28125 -0.65625q0.296875 -0.265625 0.96875 -0.265625l3.359375 0zm25.469269 2.125l-7.96875 0q-0.671875 0 -0.96875 -0.25q-0.28125 -0.265625 -0.28125 -0.6875q0 -0.40625 0.28125 -0.65625q0.296875 -0.265625 0.96875 -0.265625l7.96875 0q0.6875 0 0.96875 0.265625q0.28125 0.25 0.28125 0.671875q0 0.40625 -0.28125 0.671875q-0.28125 0.25 -0.96875 0.25zm0 3.515625l-7.96875 0q-0.671875 0 -0.96875 -0.25q-0.28125 -0.265625 -0.28125 -0.671875q0 -0.421875 0.28125 -0.671875q0.296875 -0.265625 0.96875 -0.265625l7.96875 0q0.6875 0 0.96875 0.265625q0.28125 0.25 0.28125 0.671875q0 0.40625 -0.28125 0.671875q-0.28125 0.25 -0.96875 0.25zm19.344269 -9.46875l0 10.21875l1.890625 0q0.671875 0 0.953125 0.265625q0.296875 0.265625 0.296875 0.6875q0 0.40625 -0.296875 0.671875q-0.28125 0.25 -0.953125 0.25l-5.640625 0q-0.671875 0 -0.96875 -0.25q-0.28125 -0.265625 -0.28125 -0.6875q0 -0.40625 0.28125 -0.671875q0.296875 -0.265625 0.96875 -0.265625l1.890625 0l0 -7.78125l-1.671875 0.4375q-0.40625 0.109375 -0.609375 0.109375q-0.34375 0 -0.609375 -0.28125q-0.25 -0.28125 -0.25 -0.6875q0 -0.375 0.1875 -0.59375q0.1875 -0.21875 0.796875 -0.375l4.015625 -1.046875z" fill-rule="nonzero"/><path fill="#cfe2f3" d="m198.79527 279.0748l187.84251 -80.925186l187.8425 80.925186l-187.8425 80.9252z" fill-rule="evenodd"/><path stroke="#000000" stroke-width="1.0" stroke-linejoin="round" stroke-linecap="butt" d="m198.79527 279.0748l187.84251 -80.925186l187.8425 80.925186l-187.8425 80.9252z" fill-rule="evenodd"/><path fill="#000000" d="m326.7456 285.9948l0 -0.4375q-0.703125 0.375 -1.5625 0.5625q-0.84375 0.1875 -1.53125 0.1875q-1.5 0 -2.4375 -0.796875q-0.9375 -0.796875 -0.9375 -1.765625q0 -1.171875 1.1875 -2.171875q1.203125 -1.015625 3.3125 -1.015625q0.859375 0 1.96875 0.1875l0 -0.453125q0 -0.421875 -0.359375 -0.6875q-0.359375 -0.265625 -1.375 -0.265625q-0.828125 0 -2.15625 0.328125q-0.484375 0.125 -0.765625 0.125q-0.359375 0 -0.625 -0.265625q-0.265625 -0.265625 -0.265625 -0.6875q0 -0.234375 0.09375 -0.40625q0.09375 -0.1875 0.25 -0.28125q0.171875 -0.109375 0.6875 -0.25q0.703125 -0.203125 1.421875 -0.3125q0.71875 -0.109375 1.296875 -0.109375q1.734375 0 2.6875 0.75q0.96875 0.75 0.96875 2.046875l0 3.84375l0.328125 0q0.671875 0 0.953125 0.265625q0.296875 0.265625 0.296875 0.6875q0 0.40625 -0.296875 0.671875q-0.28125 0.25 -0.953125 0.25l-2.1875 0zm0 -3.34375q-1.125 -0.21875 -2.078125 -0.21875q-1.125 0 -1.953125 0.5625q-0.515625 0.34375 -0.515625 0.71875q0 0.265625 0.25 0.421875q0.453125 0.296875 1.25 0.296875q0.671875 0 1.515625 -0.265625q0.859375 -0.265625 1.53125 -0.71875l0 -0.796875zm7.617462 -4.921875l0 0.625q0.515625 -0.4375 1.125 -0.65625q0.625 -0.21875 1.34375 -0.21875q1.65625 0 2.625 1.03125q0.765625 0.8125 0.765625 2.140625l0 3.46875q0.578125 0 0.859375 0.265625q0.296875 0.265625 0.296875 0.6875q0 0.40625 -0.296875 0.671875q-0.28125 0.25 -0.953125 0.25l-1.6875 0q-0.671875 0 -0.96875 -0.25q-0.28125 -0.265625 -0.28125 -0.6875q0 -0.40625 0.28125 -0.671875q0.28125 -0.265625 0.875 -0.265625l0 -3.515625q0 -0.609375 -0.328125 -0.890625q-0.421875 -0.375 -1.28125 -0.375q-0.65625 0 -1.140625 0.25q-0.484375 0.25 -1.234375 1.0625l0 3.46875q0.71875 0 0.9375 0.140625q0.4375 0.28125 0.4375 0.8125q0 0.40625 -0.28125 0.671875q-0.28125 0.25 -0.96875 0.25l-2.109375 0q-0.6875 0 -0.96875 -0.25q-0.28125 -0.265625 -0.28125 -0.6875q0 -0.515625 0.4375 -0.796875q0.21875 -0.140625 0.9375 -0.140625l0 -4.53125q-0.59375 0 -0.875 -0.265625q-0.28125 -0.265625 -0.28125 -0.671875q0 -0.40625 0.28125 -0.65625q0.28125 -0.265625 0.96875 -0.265625l1.765625 0zm26.250519 2.953125l-6.046875 -3.359375q-0.453125 -0.25 -0.609375 -0.453125q-0.140625 -0.203125 -0.140625 -0.515625q0 -0.390625 0.28125 -0.671875q0.28125 -0.28125 0.671875 -0.28125q0.234375 0 0.71875 0.265625l9.015625 5.015625l-9.015625 5.0q-0.484375 0.28125 -0.71875 0.28125q-0.390625 0 -0.671875 -0.28125q-0.28125 -0.28125 -0.28125 -0.6875q0 -0.3125 0.140625 -0.515625q0.15625 -0.203125 0.609375 -0.453125l6.046875 -3.34375zm21.375519 -6.78125l0 10.21875l1.890625 0q0.671875 0 0.953125 0.265625q0.296875 0.265625 0.296875 0.6875q0 0.40625 -0.296875 0.671875q-0.28125 0.25 -0.953125 0.25l-5.640625 0q-0.671875 0 -0.96875 -0.25q-0.28125 -0.265625 -0.28125 -0.6875q0 -0.40625 0.28125 -0.671875q0.296875 -0.265625 0.96875 -0.265625l1.890625 0l0 -7.78125l-1.671875 0.4375q-0.40625 0.109375 -0.609375 0.109375q-0.34375 0 -0.609375 -0.28125q-0.25 -0.28125 -0.25 -0.6875q0 -0.375 0.1875 -0.59375q0.1875 -0.21875 0.796875 -0.375l4.015625 -1.046875zm14.320557 5.15625l0 2.0625q0 1.8125 -1.0625 3.484375q-1.046875 1.65625 -3.0 1.65625q-1.125 0 -1.90625 -0.484375q-0.78125 -0.5 -1.484375 -1.828125q-0.6875 -1.34375 -0.6875 -2.828125l0 -2.0625q0 -1.8125 1.046875 -3.484375q1.046875 -1.671875 3.0 -1.671875q1.125 0 1.90625 0.5q0.78125 0.484375 1.484375 1.828125q0.703125 1.328125 0.703125 2.828125zm-1.875 0q0 -1.515625 -0.84375 -2.65625q-0.484375 -0.625 -1.359375 -0.625q-0.84375 0 -1.390625 0.6875q-0.8125 1.046875 -0.8125 2.59375l0 2.0625q0 1.515625 0.859375 2.65625q0.484375 0.625 1.359375 0.625q0.84375 0 1.375 -0.6875q0.8125 -1.046875 0.8125 -2.59375l0 -2.0625zm13.070587 0l0 2.0625q0 1.8125 -1.0625 3.484375q-1.046875 1.65625 -3.0 1.65625q-1.125 0 -1.90625 -0.484375q-0.78125 -0.5 -1.484375 -1.828125q-0.6875 -1.34375 -0.6875 -2.828125l0 -2.0625q0 -1.8125 1.046875 -3.484375q1.046875 -1.671875 3.0 -1.671875q1.125 0 1.90625 0.5q0.78125 0.484375 1.484375 1.828125q0.703125 1.328125 0.703125 2.828125zm-1.875 0q0 -1.515625 -0.84375 -2.65625q-0.484375 -0.625 -1.359375 -0.625q-0.84375 0 -1.390625 0.6875q-0.8125 1.046875 -0.8125 2.59375l0 2.0625q0 1.515625 0.859375 2.65625q0.484375 0.625 1.359375 0.625q0.84375 0 1.375 -0.6875q0.8125 -1.046875 0.8125 -2.59375l0 -2.0625zm13.070557 0l0 2.0625q0 1.8125 -1.0625 3.484375q-1.046875 1.65625 -3.0 1.65625q-1.125 0 -1.90625 -0.484375q-0.78125 -0.5 -1.484375 -1.828125q-0.6875 -1.34375 -0.6875 -2.828125l0 -2.0625q0 -1.8125 1.046875 -3.484375q1.046875 -1.671875 3.0 -1.671875q1.125 0 1.90625 0.5q0.78125 0.484375 1.484375 1.828125q0.703125 1.328125 0.703125 2.828125zm-1.875 0q0 -1.515625 -0.84375 -2.65625q-0.484375 -0.625 -1.359375 -0.625q-0.84375 0 -1.390625 0.6875q-0.8125 1.046875 -0.8125 2.59375l0 2.0625q0 1.515625 0.859375 2.65625q0.484375 0.625 1.359375 0.625q0.84375 0 1.375 -0.6875q0.8125 -1.046875 0.8125 -2.59375l0 -2.0625zm13.070557 0l0 2.0625q0 1.8125 -1.0625 3.484375q-1.046875 1.65625 -3.0 1.65625q-1.125 0 -1.90625 -0.484375q-0.78125 -0.5 -1.484375 -1.828125q-0.6875 -1.34375 -0.6875 -2.828125l0 -2.0625q0 -1.8125 1.046875 -3.484375q1.046875 -1.671875 3.0 -1.671875q1.125 0 1.90625 0.5q0.78125 0.484375 1.484375 1.828125q0.703125 1.328125 0.703125 2.828125zm-1.875 0q0 -1.515625 -0.84375 -2.65625q-0.484375 -0.625 -1.359375 -0.625q-0.84375 0 -1.390625 0.6875q-0.8125 1.046875 -0.8125 2.59375l0 2.0625q0 1.515625 0.859375 2.65625q0.484375 0.625 1.359375 0.625q0.84375 0 1.375 -0.6875q0.8125 -1.046875 0.8125 -2.59375l0 -2.0625zm13.070587 0l0 2.0625q0 1.8125 -1.0625 3.484375q-1.046875 1.65625 -3.0 1.65625q-1.125 0 -1.90625 -0.484375q-0.78125 -0.5 -1.484375 -1.828125q-0.6875 -1.34375 -0.6875 -2.828125l0 -2.0625q0 -1.8125 1.046875 -3.484375q1.046875 -1.671875 3.0 -1.671875q1.125 0 1.90625 0.5q0.78125 0.484375 1.484375 1.828125q0.703125 1.328125 0.703125 2.828125zm-1.875 0q0 -1.515625 -0.84375 -2.65625q-0.484375 -0.625 -1.359375 -0.625q-0.84375 0 -1.390625 0.6875q-0.8125 1.046875 -0.8125 2.59375l0 2.0625q0 1.515625 0.859375 2.65625q0.484375 0.625 1.359375 0.625q0.84375 0 1.375 -0.6875q0.8125 -1.046875 0.8125 -2.59375l0 -2.0625zm13.070557 0l0 2.0625q0 1.8125 -1.0625 3.484375q-1.046875 1.65625 -3.0 1.65625q-1.125 0 -1.90625 -0.484375q-0.78125 -0.5 -1.484375 -1.828125q-0.6875 -1.34375 -0.6875 -2.828125l0 -2.0625q0 -1.8125 1.046875 -3.484375q1.046875 -1.671875 3.0 -1.671875q1.125 0 1.90625 0.5q0.78125 0.484375 1.484375 1.828125q0.703125 1.328125 0.703125 2.828125zm-1.875 0q0 -1.515625 -0.84375 -2.65625q-0.484375 -0.625 -1.359375 -0.625q-0.84375 0 -1.390625 0.6875q-0.8125 1.046875 -0.8125 2.59375l0 2.0625q0 1.515625 0.859375 2.65625q0.484375 0.625 1.359375 0.625q0.84375 0 1.375 -0.6875q0.8125 -1.046875 0.8125 -2.59375l0 -2.0625z" fill-rule="nonzero"/><path fill="#cfe2f3" d="m290.67902 394.33597l191.91864 0l0 98.112854l-191.91864 0z" fill-rule="evenodd"/><path stroke="#000000" stroke-width="1.0" stroke-linejoin="round" stroke-linecap="butt" d="m290.67902 394.33597l191.91864 0l0 98.112854l-191.91864 0z" fill-rule="evenodd"/><path fill="#000000" d="m306.96027 439.31238l0 -0.4375q-0.703125 0.375 -1.5625 0.5625q-0.84375 0.1875 -1.53125 0.1875q-1.5 0 -2.4375 -0.796875q-0.9375 -0.796875 -0.9375 -1.765625q0 -1.171875 1.1875 -2.171875q1.203125 -1.015625 3.3125 -1.015625q0.859375 0 1.96875 0.1875l0 -0.453125q0 -0.421875 -0.359375 -0.6875q-0.359375 -0.265625 -1.375 -0.265625q-0.828125 0 -2.15625 0.328125q-0.484375 0.125 -0.765625 0.125q-0.359375 0 -0.625 -0.265625q-0.265625 -0.265625 -0.265625 -0.6875q0 -0.234375 0.09375 -0.40625q0.09375 -0.1875 0.25 -0.28125q0.171875 -0.109375 0.6875 -0.25q0.703125 -0.203125 1.421875 -0.3125q0.71875 -0.109375 1.296875 -0.109375q1.734375 0 2.6875 0.75q0.96875 0.75 0.96875 2.046875l0 3.84375l0.328125 0q0.671875 0 0.953125 0.265625q0.296875 0.265625 0.296875 0.6875q0 0.40625 -0.296875 0.671875q-0.28125 0.25 -0.953125 0.25l-2.1875 0zm0 -3.34375q-1.125 -0.21875 -2.078125 -0.21875q-1.125 0 -1.953125 0.5625q-0.515625 0.34375 -0.515625 0.71875q0 0.265625 0.25 0.421875q0.453125 0.296875 1.25 0.296875q0.671875 0 1.515625 -0.265625q0.859375 -0.265625 1.53125 -0.71875l0 -0.796875zm7.6174316 -4.921875l0 0.625q0.515625 -0.4375 1.125 -0.65625q0.625 -0.21875 1.34375 -0.21875q1.65625 0 2.625 1.03125q0.765625 0.8125 0.765625 2.140625l0 3.46875q0.578125 0 0.859375 0.265625q0.296875 0.265625 0.296875 0.6875q0 0.40625 -0.296875 0.671875q-0.28125 0.25 -0.953125 0.25l-1.6875 0q-0.671875 0 -0.96875 -0.25q-0.28125 -0.265625 -0.28125 -0.6875q0 -0.40625 0.28125 -0.671875q0.28125 -0.265625 0.875 -0.265625l0 -3.515625q0 -0.609375 -0.328125 -0.890625q-0.421875 -0.375 -1.28125 -0.375q-0.65625 0 -1.140625 0.25q-0.484375 0.25 -1.234375 1.0625l0 3.46875q0.71875 0 0.9375 0.140625q0.4375 0.28125 0.4375 0.8125q0 0.40625 -0.28125 0.671875q-0.28125 0.25 -0.96875 0.25l-2.109375 0q-0.6875 0 -0.96875 -0.25q-0.28125 -0.265625 -0.28125 -0.6875q0 -0.515625 0.4375 -0.796875q0.21875 -0.140625 0.9375 -0.140625l0 -4.53125q-0.59375 0 -0.875 -0.265625q-0.28125 -0.265625 -0.28125 -0.671875q0 -0.40625 0.28125 -0.65625q0.28125 -0.265625 0.96875 -0.265625l1.765625 0zm28.281769 2.125l-7.96875 0q-0.671875 0 -0.96875 -0.25q-0.28125 -0.265625 -0.28125 -0.6875q0 -0.40625 0.28125 -0.65625q0.296875 -0.265625 0.96875 -0.265625l7.96875 0q0.6875 0 0.96875 0.265625q0.28125 0.25 0.28125 0.671875q0 0.40625 -0.28125 0.671875q-0.28125 0.25 -0.96875 0.25zm0 3.515625l-7.96875 0q-0.671875 0 -0.96875 -0.25q-0.28125 -0.265625 -0.28125 -0.671875q0 -0.421875 0.28125 -0.671875q0.296875 -0.265625 0.96875 -0.265625l7.96875 0q0.6875 0 0.96875 0.265625q0.28125 0.25 0.28125 0.671875q0 0.40625 -0.28125 0.671875q-0.28125 0.25 -0.96875 0.25zm16.828644 -7.296875l0 2.21875q1.03125 -0.328125 1.875 -0.328125q1.734375 0 2.859375 1.1875q1.140625 1.171875 1.140625 3.03125q0 1.90625 -1.15625 3.0q-1.140625 1.078125 -3.515625 1.078125q-2.09375 0 -3.328125 -0.78125q-0.703125 -0.453125 -0.703125 -1.046875q0 -0.375 0.28125 -0.65625q0.28125 -0.28125 0.65625 -0.28125q0.3125 0 0.6875 0.3125q0.375 0.296875 0.78125 0.421875q0.59375 0.171875 1.5 0.171875q1.703125 0 2.3125 -0.53125q0.625 -0.546875 0.625 -1.671875q0 -1.109375 -0.609375 -1.734375q-0.59375 -0.625 -1.53125 -0.625q-1.0 0 -2.296875 0.65625q-0.296875 0.15625 -0.515625 0.15625q-0.390625 0 -0.671875 -0.296875q-0.265625 -0.296875 -0.265625 -0.75l0 -5.390625l5.71875 0q0.671875 0 0.953125 0.265625q0.296875 0.25 0.296875 0.671875q0 0.40625 -0.296875 0.671875q-0.28125 0.25 -0.953125 0.25l-3.84375 0zm11.242462 2.859375l-1.625 -0.53125q-0.5625 -0.171875 -0.71875 -0.390625q-0.21875 -0.265625 -0.21875 -0.59375q0 -0.375 0.265625 -0.65625q0.265625 -0.28125 0.609375 -0.28125q0.21875 0 0.640625 0.15625l1.609375 0.515625l0 -1.703125q0 -0.671875 0.265625 -0.953125q0.265625 -0.28125 0.671875 -0.28125q0.421875 0 0.671875 0.28125q0.265625 0.28125 0.265625 0.953125l0 1.703125l1.609375 -0.515625q0.4375 -0.15625 0.640625 -0.15625q0.34375 0 0.609375 0.28125q0.265625 0.265625 0.265625 0.65625q0 0.328125 -0.1875 0.5625q-0.171875 0.234375 -0.75 0.421875l-1.609375 0.53125l1.0 1.375q0.359375 0.5 0.359375 0.78125q0 0.390625 -0.28125 0.671875q-0.265625 0.265625 -0.640625 0.265625q-0.296875 0 -0.484375 -0.109375q-0.171875 -0.125 -0.46875 -0.515625l-1.0 -1.375l-1.0 1.375q-0.28125 0.390625 -0.46875 0.515625q-0.1875 0.125 -0.46875 0.125q-0.375 0 -0.65625 -0.28125q-0.28125 -0.28125 -0.28125 -0.671875q0 -0.28125 0.359375 -0.78125l1.015625 -1.375zm10.820557 -1.203125l0 0.625q0.515625 -0.4375 1.125 -0.65625q0.625 -0.21875 1.34375 -0.21875q1.65625 0 2.625 1.03125q0.765625 0.8125 0.765625 2.140625l0 3.46875q0.578125 0 0.859375 0.265625q0.296875 0.265625 0.296875 0.6875q0 0.40625 -0.296875 0.671875q-0.28125 0.25 -0.953125 0.25l-1.6875 0q-0.671875 0 -0.96875 -0.25q-0.28125 -0.265625 -0.28125 -0.6875q0 -0.40625 0.28125 -0.671875q0.28125 -0.265625 0.875 -0.265625l0 -3.515625q0 -0.609375 -0.328125 -0.890625q-0.421875 -0.375 -1.28125 -0.375q-0.65625 0 -1.140625 0.25q-0.484375 0.25 -1.234375 1.0625l0 3.46875q0.71875 0 0.9375 0.140625q0.4375 0.28125 0.4375 0.8125q0 0.40625 -0.28125 0.671875q-0.28125 0.25 -0.96875 0.25l-2.109375 0q-0.6875 0 -0.96875 -0.25q-0.28125 -0.265625 -0.28125 -0.6875q0 -0.515625 0.4375 -0.796875q0.21875 -0.140625 0.9375 -0.140625l0 -4.53125q-0.59375 0 -0.875 -0.265625q-0.28125 -0.265625 -0.28125 -0.671875q0 -0.40625 0.28125 -0.65625q0.28125 -0.265625 0.96875 -0.265625l1.765625 0z" fill-rule="nonzero"/><path fill="#000000" d="m305.94464 449.49988l0 1.96875l-2.21875 0l0 -1.96875l2.21875 0zm0.25 3.546875l0 6.390625l2.25 0q0.671875 0 0.953125 0.265625q0.296875 0.265625 0.296875 0.6875q0 0.40625 -0.296875 0.671875q-0.28125 0.25 -0.953125 0.25l-6.359375 0q-0.671875 0 -0.953125 -0.25q-0.28125 -0.265625 -0.28125 -0.6875q0 -0.40625 0.28125 -0.671875q0.28125 -0.265625 0.953125 -0.265625l2.25 0l0 -4.53125l-1.5 0q-0.671875 0 -0.96875 -0.25q-0.28125 -0.265625 -0.28125 -0.6875q0 -0.40625 0.28125 -0.65625q0.296875 -0.265625 0.96875 -0.265625l3.359375 0zm25.469269 2.125l-7.96875 0q-0.671875 0 -0.96875 -0.25q-0.28125 -0.265625 -0.28125 -0.6875q0 -0.40625 0.28125 -0.65625q0.296875 -0.265625 0.96875 -0.265625l7.96875 0q0.6875 0 0.96875 0.265625q0.28125 0.25 0.28125 0.671875q0 0.40625 -0.28125 0.671875q-0.28125 0.25 -0.96875 0.25zm0 3.515625l-7.96875 0q-0.671875 0 -0.96875 -0.25q-0.28125 -0.265625 -0.28125 -0.671875q0 -0.421875 0.28125 -0.671875q0.296875 -0.265625 0.96875 -0.265625l7.96875 0q0.6875 0 0.96875 0.265625q0.28125 0.25 0.28125 0.671875q0 0.40625 -0.28125 0.671875q-0.28125 0.25 -0.96875 0.25zm19.063019 -9.1875l0 1.96875l-2.21875 0l0 -1.96875l2.21875 0zm0.25 3.546875l0 6.390625l2.25 0q0.671875 0 0.953125 0.265625q0.296875 0.265625 0.296875 0.6875q0 0.40625 -0.296875 0.671875q-0.28125 0.25 -0.953125 0.25l-6.359375 0q-0.671875 0 -0.953125 -0.25q-0.28125 -0.265625 -0.28125 -0.6875q0 -0.40625 0.28125 -0.671875q0.28125 -0.265625 0.953125 -0.265625l2.25 0l0 -4.53125l-1.5 0q-0.671875 0 -0.96875 -0.25q-0.28125 -0.265625 -0.28125 -0.6875q0 -0.40625 0.28125 -0.65625q0.296875 -0.265625 0.96875 -0.265625l3.359375 0zm11.211182 3.890625l0 3.125q0 0.671875 -0.265625 0.96875q-0.25 0.28125 -0.65625 0.28125q-0.421875 0 -0.6875 -0.28125q-0.25 -0.296875 -0.25 -0.96875l0 -3.125l-2.671875 0q-0.671875 0 -0.96875 -0.25q-0.28125 -0.265625 -0.28125 -0.6875q0 -0.421875 0.28125 -0.671875q0.296875 -0.265625 0.96875 -0.25l2.671875 0l0 -3.125q0 -0.65625 0.25 -0.953125q0.265625 -0.296875 0.6875 -0.296875q0.40625 0 0.671875 0.296875q0.265625 0.28125 0.265625 0.953125l-0.015625 3.125l2.671875 0q0.671875 0 0.953125 0.25q0.296875 0.25 0.296875 0.671875q0 0.421875 -0.296875 0.6875q-0.28125 0.25 -0.953125 0.25l-2.671875 0zm11.211212 -7.71875l0 10.21875l1.890625 0q0.671875 0 0.953125 0.265625q0.296875 0.265625 0.296875 0.6875q0 0.40625 -0.296875 0.671875q-0.28125 0.25 -0.953125 0.25l-5.640625 0q-0.671875 0 -0.96875 -0.25q-0.28125 -0.265625 -0.28125 -0.6875q0 -0.40625 0.28125 -0.671875q0.296875 -0.265625 0.96875 -0.265625l1.890625 0l0 -7.78125l-1.671875 0.4375q-0.40625 0.109375 -0.609375 0.109375q-0.34375 0 -0.609375 -0.28125q-0.25 -0.28125 -0.25 -0.6875q0 -0.375 0.1875 -0.59375q0.1875 -0.21875 0.796875 -0.375l4.015625 -1.046875z" fill-rule="nonzero"/><path fill="#000000" fill-opacity="0.0" d="m288.81104 440.17715l0 -1.5046997l-173.29114 0l0 -159.59766l83.27537 0" fill-rule="evenodd"/><path stroke="#000000" stroke-width="1.0" stroke-linejoin="round" stroke-linecap="butt" d="m288.81104 440.17715l0 -1.5046997l-173.29112 0l0 -159.59766l77.27536 0" fill-rule="evenodd"/><path fill="#000000" stroke="#000000" stroke-width="1.0" stroke-linecap="butt" d="m192.79527 280.72653l4.538101 -1.6517334l-4.538101 -1.6517334z" fill-rule="evenodd"/><path fill="#000000" fill-opacity="0.0" d="m385.88242 359.5013l0.7559204 34.834656" fill-rule="evenodd"/><path stroke="#000000" stroke-width="1.0" stroke-linejoin="round" stroke-linecap="butt" d="m385.88242 359.5013l0.6257324 28.83603" fill-rule="evenodd"/><path fill="#000000" stroke="#000000" stroke-width="1.0" stroke-linecap="butt" d="m384.8568 388.3732l1.7497864 4.50119l1.5529175 -4.5728455z" fill-rule="evenodd"/><path fill="#000000" fill-opacity="0.0" d="m393.3596 355.91077l79.74802 0l0 42.015747l-79.74802 0z" fill-rule="evenodd"/><path fill="#000000" d="m406.6721 378.237l0 2.71875l1.921875 0q0.671875 0 0.953125 0.265625q0.296875 0.265625 0.296875 0.6875q0 0.40625 -0.296875 0.671875q-0.28125 0.25 -0.953125 0.25l-4.078125 0q-0.671875 0 -0.96875 -0.25q-0.28125 -0.265625 -0.28125 -0.6875q0 -0.40625 0.296875 -0.671875q0.296875 -0.265625 0.953125 -0.265625l0.296875 0l0 -7.296875l-0.296875 0q-0.671875 0 -0.96875 -0.25q-0.28125 -0.265625 -0.28125 -0.6875q0 -0.421875 0.28125 -0.671875q0.296875 -0.265625 0.96875 -0.265625l8.796875 0l0 2.859375q0 0.65625 -0.265625 0.953125q-0.25 0.28125 -0.671875 0.28125q-0.421875 0 -0.6875 -0.28125q-0.25 -0.28125 -0.25 -0.953125l0 -0.984375l-4.765625 0l0 2.703125l1.640625 0q0 -0.734375 0.140625 -0.9375q0.28125 -0.453125 0.796875 -0.453125q0.421875 0 0.671875 0.296875q0.265625 0.28125 0.265625 0.953125l0 2.15625q0 0.671875 -0.265625 0.96875q-0.25 0.28125 -0.671875 0.28125q-0.515625 0 -0.796875 -0.453125q-0.140625 -0.203125 -0.140625 -0.9375l-1.640625 0zm14.164307 4.59375l0 -0.4375q-0.703125 0.375 -1.5625 0.5625q-0.84375 0.1875 -1.53125 0.1875q-1.5 0 -2.4375 -0.796875q-0.9375 -0.796875 -0.9375 -1.765625q0 -1.171875 1.1875 -2.171875q1.203125 -1.015625 3.3125 -1.015625q0.859375 0 1.96875 0.1875l0 -0.453125q0 -0.421875 -0.359375 -0.6875q-0.359375 -0.265625 -1.375 -0.265625q-0.828125 0 -2.15625 0.328125q-0.484375 0.125 -0.765625 0.125q-0.359375 0 -0.625 -0.265625q-0.265625 -0.265625 -0.265625 -0.6875q0 -0.234375 0.09375 -0.40625q0.09375 -0.1875 0.25 -0.28125q0.171875 -0.109375 0.6875 -0.25q0.703125 -0.203125 1.421875 -0.3125q0.71875 -0.109375 1.296875 -0.109375q1.734375 0 2.6875 0.75q0.96875 0.75 0.96875 2.046875l0 3.84375l0.328125 0q0.671875 0 0.953125 0.265625q0.296875 0.265625 0.296875 0.6875q0 0.40625 -0.296875 0.671875q-0.28125 0.25 -0.953125 0.25l-2.1875 0zm0 -3.34375q-1.125 -0.21875 -2.078125 -0.21875q-1.125 0 -1.953125 0.5625q-0.515625 0.34375 -0.515625 0.71875q0 0.265625 0.25 0.421875q0.453125 0.296875 1.25 0.296875q0.671875 0 1.515625 -0.265625q0.859375 -0.265625 1.53125 -0.71875l0 -0.796875zm10.445587 -8.46875l0 9.9375l2.234375 0q0.6875 0 0.96875 0.265625q0.28125 0.265625 0.28125 0.6875q0 0.40625 -0.28125 0.671875q-0.28125 0.25 -0.96875 0.25l-6.34375 0q-0.671875 0 -0.96875 -0.25q-0.28125 -0.265625 -0.28125 -0.6875q0 -0.40625 0.28125 -0.671875q0.296875 -0.265625 0.96875 -0.265625l2.25 0l0 -8.078125l-1.515625 0q-0.65625 0 -0.953125 -0.25q-0.296875 -0.265625 -0.296875 -0.6875q0 -0.40625 0.28125 -0.65625q0.296875 -0.265625 0.96875 -0.265625l3.375 0zm12.273682 5.734375q-0.453125 -0.296875 -0.953125 -0.4375q-0.5 -0.140625 -1.046875 -0.140625q-1.078125 0 -1.71875 0.359375q-0.28125 0.15625 -0.28125 0.34375q0 0.203125 0.375 0.40625q0.296875 0.140625 1.3125 0.28125q1.859375 0.25 2.578125 0.515625q0.96875 0.328125 1.484375 1.0q0.515625 0.65625 0.515625 1.40625q0 1.0 -0.890625 1.671875q-1.265625 0.96875 -3.28125 0.96875q-0.8125 0 -1.5 -0.140625q-0.6875 -0.140625 -1.265625 -0.40625q-0.125 0.109375 -0.28125 0.171875q-0.15625 0.0625 -0.328125 0.0625q-0.4375 0 -0.703125 -0.28125q-0.25 -0.28125 -0.25 -0.953125l0 -0.640625q0 -0.671875 0.25 -0.953125q0.265625 -0.296875 0.6875 -0.296875q0.34375 0 0.5625 0.1875q0.234375 0.1875 0.359375 0.640625q0.421875 0.375 1.015625 0.5625q0.609375 0.1875 1.390625 0.1875q1.296875 0 2.0 -0.40625q0.34375 -0.203125 0.34375 -0.421875q0 -0.359375 -0.484375 -0.59375q-0.484375 -0.234375 -2.0 -0.40625q-2.25 -0.234375 -3.0 -0.90625q-0.765625 -0.671875 -0.765625 -1.640625q0 -1.0 0.859375 -1.671875q1.140625 -0.90625 3.0 -0.90625q0.640625 0 1.234375 0.125q0.609375 0.125 1.15625 0.375q0.171875 -0.125 0.3125 -0.1875q0.15625 -0.0625 0.28125 -0.0625q0.390625 0 0.640625 0.28125q0.25 0.28125 0.25 0.96875l0 0.453125q0 0.609375 -0.140625 0.828125q-0.296875 0.421875 -0.796875 0.421875q-0.328125 0 -0.59375 -0.203125q-0.25 -0.21875 -0.328125 -0.5625zm13.867462 2.890625l-7.65625 0q0.296875 0.734375 1.03125 1.1875q0.75 0.4375 2.015625 0.4375q1.03125 0 2.75 -0.453125q0.71875 -0.1875 0.984375 -0.1875q0.375 0 0.625 0.265625q0.265625 0.265625 0.265625 0.671875q0 0.359375 -0.28125 0.625q-0.359375 0.328125 -1.78125 0.640625q-1.40625 0.296875 -2.703125 0.296875q-2.25 0 -3.59375 -1.265625q-1.34375 -1.265625 -1.34375 -3.109375q0 -1.96875 1.453125 -3.203125q1.453125 -1.234375 3.359375 -1.234375q1.140625 0 2.078125 0.40625q0.953125 0.390625 1.421875 0.859375q0.65625 0.671875 1.09375 1.671875q0.28125 0.6875 0.28125 1.59375l0 0.796875zm-2.0625 -1.875q-0.4375 -0.796875 -1.125 -1.1875q-0.6875 -0.40625 -1.640625 -0.40625q-0.953125 0 -1.65625 0.40625q-0.6875 0.390625 -1.125 1.1875l5.546875 0z" fill-rule="nonzero"/><path fill="#000000" fill-opacity="0.0" d="m386.6378 81.67454l-0.3779297 34.33071" fill-rule="evenodd"/><path stroke="#000000" stroke-width="1.0" stroke-linejoin="round" stroke-linecap="butt" d="m386.6378 81.67454l-0.31188965 28.33107" fill-rule="evenodd"/><path fill="#000000" stroke="#000000" stroke-width="1.0" stroke-linecap="butt" d="m384.67426 109.98743l1.6016846 4.5560074l1.7015991 -4.519638z" fill-rule="evenodd"/><path fill="#000000" fill-opacity="0.0" d="m386.26007 163.81364l0.3779297 34.33072" fill-rule="evenodd"/><path stroke="#000000" stroke-width="1.0" stroke-linejoin="round" stroke-linecap="butt" d="m386.26004 163.81364l0.31188965 28.331085" fill-rule="evenodd"/><path fill="#000000" stroke="#000000" stroke-width="1.0" stroke-linecap="butt" d="m384.92032 192.1629l1.7015991 4.519638l1.601654 -4.5559998z" fill-rule="evenodd"/><path fill="#cfe2f3" d="m653.23883 243.46194l191.91864 0l0 71.22571l-191.91864 0z" fill-rule="evenodd"/><path stroke="#000000" stroke-width="1.0" stroke-linejoin="round" stroke-linecap="butt" d="m653.23883 243.46194l191.91864 0l0 71.22571l-191.91864 0z" fill-rule="evenodd"/><path fill="#000000" d="m668.3326 275.9167l0 9.296875l2.015625 0q0.28125 0 0.390625 0.109375q0.125 0.109375 0.125 0.28125q0 0.171875 -0.125 0.28125q-0.109375 0.109375 -0.390625 0.109375l-4.828125 0q-0.28125 0 -0.40625 -0.109375q-0.125 -0.109375 -0.125 -0.28125q0 -0.171875 0.125 -0.28125q0.125 -0.109375 0.40625 -0.109375l2.015625 0l0 -9.296875l-3.1875 0l0 2.703125q0 0.28125 -0.109375 0.40625q-0.109375 0.125 -0.28125 0.125q-0.171875 0 -0.28125 -0.125q-0.109375 -0.125 -0.109375 -0.40625l0 -3.484375l8.734375 0l0 3.484375q0 0.28125 -0.109375 0.40625q-0.109375 0.125 -0.28125 0.125q-0.1875 0 -0.296875 -0.125q-0.09375 -0.125 -0.09375 -0.40625l0 -2.703125l-3.1875 0zm13.683105 10.078125l0 -1.140625q-1.609375 1.453125 -3.453125 1.453125q-1.140625 0 -1.734375 -0.625q-0.78125 -0.8125 -0.78125 -1.90625l0 -5.03125l-1.046875 0q-0.28125 0 -0.40625 -0.109375q-0.109375 -0.109375 -0.109375 -0.28125q0 -0.171875 0.109375 -0.28125q0.125 -0.109375 0.40625 -0.109375l1.828125 0l0 5.8125q0 0.765625 0.484375 1.265625q0.484375 0.484375 1.203125 0.484375q1.90625 0 3.5 -1.75l0 -5.03125l-1.4375 0q-0.28125 0 -0.40625 -0.109375q-0.125 -0.109375 -0.125 -0.28125q0 -0.171875 0.125 -0.28125q0.125 -0.109375 0.40625 -0.109375l2.203125 0l0 7.25l0.671875 0q0.265625 0 0.390625 0.109375q0.125 0.109375 0.125 0.28125q0 0.171875 -0.125 0.28125q-0.125 0.109375 -0.390625 0.109375l-1.4375 0zm9.120605 -11.640625l0 10.859375l3.0625 0q0.28125 0 0.40625 0.109375q0.125 0.109375 0.125 0.28125q0 0.171875 -0.125 0.28125q-0.125 0.109375 -0.40625 0.109375l-6.90625 0q-0.28125 0 -0.40625 -0.109375q-0.109375 -0.109375 -0.109375 -0.28125q0 -0.171875 0.109375 -0.28125q0.125 -0.109375 0.40625 -0.109375l3.0625 0l0 -10.078125l-2.234375 0q-0.28125 0 -0.40625 -0.109375q-0.125 -0.109375 -0.125 -0.28125q0 -0.171875 0.109375 -0.28125q0.125 -0.109375 0.421875 -0.109375l3.015625 0zm15.370605 7.640625q0 1.78125 -1.28125 3.046875q-1.28125 1.265625 -3.078125 1.265625q-1.8125 0 -3.09375 -1.265625q-1.265625 -1.28125 -1.265625 -3.046875q0 -1.78125 1.265625 -3.046875q1.28125 -1.265625 3.09375 -1.265625q1.796875 0 3.078125 1.265625q1.28125 1.25 1.28125 3.046875zm-0.796875 0q0 -1.46875 -1.046875 -2.5q-1.03125 -1.03125 -2.515625 -1.03125q-1.484375 0 -2.53125 1.046875q-1.046875 1.03125 -1.046875 2.484375q0 1.453125 1.046875 2.5q1.046875 1.03125 2.53125 1.03125q1.484375 0 2.515625 -1.03125q1.046875 -1.046875 1.046875 -2.5zm10.41748 -3.53125q0 -0.265625 0.109375 -0.375q0.109375 -0.125 0.28125 -0.125q0.171875 0 0.28125 0.125q0.109375 0.109375 0.109375 0.40625l0 1.328125q0 0.28125 -0.109375 0.40625q-0.109375 0.109375 -0.28125 0.109375q-0.171875 0 -0.28125 -0.09375q-0.09375 -0.109375 -0.109375 -0.34375q-0.0625 -0.546875 -0.578125 -0.90625q-0.765625 -0.53125 -2.015625 -0.53125q-1.3125 0 -2.03125 0.53125q-0.546875 0.40625 -0.546875 0.890625q0 0.5625 0.640625 0.9375q0.453125 0.25 1.703125 0.390625q1.609375 0.171875 2.25 0.40625q0.890625 0.328125 1.328125 0.90625q0.453125 0.5625 0.453125 1.234375q0 0.984375 -0.953125 1.765625q-0.953125 0.78125 -2.8125 0.78125q-1.84375 0 -3.015625 -0.9375q0 0.3125 -0.046875 0.40625q-0.03125 0.09375 -0.125 0.15625q-0.09375 0.0625 -0.21875 0.0625q-0.171875 0 -0.28125 -0.109375q-0.109375 -0.125 -0.109375 -0.40625l0 -1.609375q0 -0.28125 0.109375 -0.390625q0.109375 -0.125 0.28125 -0.125q0.171875 0 0.28125 0.125q0.109375 0.109375 0.109375 0.296875q0 0.421875 0.21875 0.71875q0.328125 0.4375 1.03125 0.734375q0.71875 0.296875 1.75 0.296875q1.515625 0 2.25 -0.5625q0.75 -0.578125 0.75 -1.203125q0 -0.71875 -0.75 -1.15625q-0.765625 -0.4375 -2.21875 -0.578125q-1.453125 -0.15625 -2.078125 -0.390625q-0.625 -0.25 -0.984375 -0.734375q-0.359375 -0.484375 -0.359375 -1.03125q0 -1.015625 0.984375 -1.59375q0.984375 -0.59375 2.359375 -0.59375q1.609375 0 2.625 0.78125zm7.2143555 -0.5l4.234375 0q0.28125 0 0.390625 0.109375q0.125 0.109375 0.125 0.28125q0 0.171875 -0.125 0.28125q-0.109375 0.109375 -0.390625 0.109375l-4.234375 0l0 5.1875q0 0.6875 0.546875 1.140625q0.546875 0.453125 1.59375 0.453125q0.78125 0 1.703125 -0.234375q0.921875 -0.25 1.4375 -0.546875q0.1875 -0.109375 0.296875 -0.109375q0.15625 0 0.265625 0.125q0.109375 0.109375 0.109375 0.265625q0 0.140625 -0.125 0.25q-0.296875 0.3125 -1.4375 0.671875q-1.140625 0.359375 -2.1875 0.359375q-1.375 0 -2.1875 -0.640625q-0.796875 -0.640625 -0.796875 -1.734375l0 -5.1875l-1.4375 0q-0.28125 0 -0.40625 -0.109375q-0.109375 -0.109375 -0.109375 -0.28125q0 -0.171875 0.109375 -0.28125q0.125 -0.109375 0.40625 -0.109375l1.4375 0l0 -2.296875q0 -0.28125 0.109375 -0.40625q0.109375 -0.125 0.28125 -0.125q0.171875 0 0.28125 0.125q0.109375 0.125 0.109375 0.40625l0 2.296875zm17.22998 4.203125l-7.953125 0q0.21875 1.515625 1.28125 2.4375q1.0625 0.921875 2.625 0.921875q0.875 0 1.828125 -0.28125q0.953125 -0.296875 1.5625 -0.765625q0.171875 -0.140625 0.296875 -0.140625q0.15625 0 0.265625 0.125q0.109375 0.109375 0.109375 0.265625q0 0.15625 -0.15625 0.296875q-0.4375 0.46875 -1.578125 0.875q-1.140625 0.40625 -2.328125 0.40625q-2.0 0 -3.34375 -1.3125q-1.34375 -1.3125 -1.34375 -3.1875q0 -1.6875 1.25 -2.90625q1.265625 -1.21875 3.125 -1.21875q1.90625 0 3.140625 1.25q1.234375 1.25 1.21875 3.234375zm-0.796875 -0.796875q-0.234375 -1.28125 -1.21875 -2.09375q-0.984375 -0.8125 -2.34375 -0.8125q-1.375 0 -2.359375 0.8125q-0.96875 0.796875 -1.21875 2.09375l7.140625 0zm7.8081055 -3.40625l0.34375 0q0.515625 0 0.890625 0.375q0.375 0.359375 0.375 0.875q0 0.546875 -0.375 0.90625q-0.375 0.359375 -0.890625 0.359375l-0.34375 0q-0.515625 0 -0.890625 -0.359375q-0.359375 -0.375 -0.359375 -0.890625q0 -0.546875 0.375 -0.90625q0.375 -0.359375 0.875 -0.359375zm0 5.796875l0.34375 0q0.515625 0 0.890625 0.375q0.375 0.359375 0.375 0.875q0 0.53125 -0.375 0.90625q-0.375 0.359375 -0.890625 0.359375l-0.34375 0q-0.515625 0 -0.890625 -0.359375q-0.359375 -0.375 -0.359375 -0.890625q0 -0.546875 0.375 -0.90625q0.375 -0.359375 0.875 -0.359375z" fill-rule="nonzero"/><path fill="#000000" d="m771.12115 274.1823l0 1.96875l-2.21875 0l0 -1.96875l2.21875 0zm0.25 3.546875l0 6.390625l2.25 0q0.671875 0 0.953125 0.265625q0.296875 0.265625 0.296875 0.6875q0 0.40625 -0.296875 0.671875q-0.28125 0.25 -0.953125 0.25l-6.359375 0q-0.671875 0 -0.953125 -0.25q-0.28125 -0.265625 -0.28125 -0.6875q0 -0.40625 0.28125 -0.671875q0.28125 -0.265625 0.953125 -0.265625l2.25 0l0 -4.53125l-1.5 0q-0.671875 0 -0.96875 -0.25q-0.28125 -0.265625 -0.28125 -0.6875q0 -0.40625 0.28125 -0.65625q0.296875 -0.265625 0.96875 -0.265625l3.359375 0z" fill-rule="nonzero"/><path fill="#cfe2f3" d="m709.32416 363.46982l0 0c0 -3.7137756 3.01062 -6.7244263 6.724365 -6.7244263l66.299255 0c1.7833862 0 3.4937744 0.7084656 4.754883 1.9695435c1.2610474 1.2610779 1.9695435 2.971466 1.9695435 4.754883l0 26.897644c0 3.7137756 -3.01062 6.7243958 -6.7244263 6.7243958l-66.299255 0c-3.713745 0 -6.724365 -3.01062 -6.724365 -6.7243958z" fill-rule="evenodd"/><path stroke="#000000" stroke-width="1.0" stroke-linejoin="round" stroke-linecap="butt" d="m709.32416 363.46982l0 0c0 -3.7137756 3.01062 -6.7244263 6.724365 -6.7244263l66.299255 0c1.7833862 0 3.4937744 0.7084656 4.754883 1.9695435c1.2610474 1.2610779 1.9695435 2.971466 1.9695435 4.754883l0 26.897644c0 3.7137756 -3.01062 6.7243958 -6.7244263 6.7243958l-66.299255 0c-3.713745 0 -6.724365 -3.01062 -6.724365 -6.7243958z" fill-rule="evenodd"/><path fill="#000000" d="m724.6374 373.7605l0 9.296875l5.1875 0l0 -3.09375q0 -0.28125 0.109375 -0.390625q0.109375 -0.125 0.28125 -0.125q0.171875 0 0.28125 0.109375q0.109375 0.109375 0.109375 0.40625l0 3.875l-8.609375 0q-0.28125 0 -0.40625 -0.109375q-0.109375 -0.109375 -0.109375 -0.28125q0 -0.171875 0.109375 -0.28125q0.125 -0.109375 0.40625 -0.109375l1.859375 0l0 -9.296875l-1.859375 0q-0.28125 0 -0.40625 -0.09375q-0.109375 -0.109375 -0.109375 -0.296875q0 -0.171875 0.109375 -0.28125q0.125 -0.109375 0.40625 -0.109375l4.5 0q0.28125 0 0.390625 0.109375q0.125 0.109375 0.125 0.28125q0 0.1875 -0.125 0.296875q-0.109375 0.09375 -0.390625 0.09375l-1.859375 0zm17.120605 6.078125q0 1.78125 -1.28125 3.046875q-1.28125 1.265625 -3.078125 1.265625q-1.8125 0 -3.09375 -1.265625q-1.265625 -1.28125 -1.265625 -3.046875q0 -1.78125 1.265625 -3.046875q1.28125 -1.265625 3.09375 -1.265625q1.796875 0 3.078125 1.265625q1.28125 1.25 1.28125 3.046875zm-0.796875 0q0 -1.46875 -1.046875 -2.5q-1.03125 -1.03125 -2.515625 -1.03125q-1.484375 0 -2.53125 1.046875q-1.046875 1.03125 -1.046875 2.484375q0 1.453125 1.046875 2.5q1.046875 1.03125 2.53125 1.03125q1.484375 0 2.515625 -1.03125q1.046875 -1.046875 1.046875 -2.5zm4.9018555 -4.03125l0 1.421875q0.6875 -0.84375 1.484375 -1.265625q0.8125 -0.4375 1.890625 -0.4375q1.15625 0 2.125 0.546875q0.96875 0.53125 1.5 1.5q0.546875 0.953125 0.546875 2.0q0 1.6875 -1.203125 2.890625q-1.203125 1.1875 -2.953125 1.1875q-2.09375 0 -3.390625 -1.703125l0 4.6875l1.890625 0q0.28125 0 0.390625 0.109375q0.125 0.109375 0.125 0.28125q0 0.171875 -0.125 0.28125q-0.109375 0.109375 -0.390625 0.109375l-3.71875 0q-0.28125 0 -0.40625 -0.109375q-0.109375 -0.09375 -0.109375 -0.28125q0 -0.171875 0.109375 -0.28125q0.125 -0.109375 0.40625 -0.109375l1.046875 0l0 -10.046875l-1.046875 0q-0.28125 0 -0.40625 -0.109375q-0.109375 -0.109375 -0.109375 -0.28125q0 -0.171875 0.109375 -0.28125q0.125 -0.109375 0.40625 -0.109375l1.828125 0zm6.75 3.765625q0 -1.34375 -0.984375 -2.296875q-0.96875 -0.96875 -2.375 -0.96875q-1.421875 0 -2.40625 0.96875q-0.984375 0.96875 -0.984375 2.296875q0 1.359375 0.984375 2.328125q0.984375 0.953125 2.40625 0.953125q1.390625 0 2.375 -0.953125q0.984375 -0.96875 0.984375 -2.328125zm4.6518555 -3.765625l0 1.421875q0.6875 -0.84375 1.484375 -1.265625q0.8125 -0.4375 1.890625 -0.4375q1.15625 0 2.125 0.546875q0.96875 0.53125 1.5 1.5q0.546875 0.953125 0.546875 2.0q0 1.6875 -1.203125 2.890625q-1.203125 1.1875 -2.953125 1.1875q-2.09375 0 -3.390625 -1.703125l0 4.6875l1.890625 0q0.28125 0 0.390625 0.109375q0.125 0.109375 0.125 0.28125q0 0.171875 -0.125 0.28125q-0.109375 0.109375 -0.390625 0.109375l-3.71875 0q-0.28125 0 -0.40625 -0.109375q-0.109375 -0.09375 -0.109375 -0.28125q0 -0.171875 0.109375 -0.28125q0.125 -0.109375 0.40625 -0.109375l1.046875 0l0 -10.046875l-1.046875 0q-0.28125 0 -0.40625 -0.109375q-0.109375 -0.109375 -0.109375 -0.28125q0 -0.171875 0.109375 -0.28125q0.125 -0.109375 0.40625 -0.109375l1.828125 0zm6.75 3.765625q0 -1.34375 -0.984375 -2.296875q-0.96875 -0.96875 -2.375 -0.96875q-1.421875 0 -2.40625 0.96875q-0.984375 0.96875 -0.984375 2.296875q0 1.359375 0.984375 2.328125q0.984375 0.953125 2.40625 0.953125q1.390625 0 2.375 -0.953125q0.984375 -0.96875 0.984375 -2.328125zm10.26123 4.265625l0 -1.140625q-1.609375 1.453125 -3.453125 1.453125q-1.140625 0 -1.734375 -0.625q-0.78125 -0.8125 -0.78125 -1.90625l0 -5.03125l-1.046875 0q-0.28125 0 -0.40625 -0.109375q-0.109375 -0.109375 -0.109375 -0.28125q0 -0.171875 0.109375 -0.28125q0.125 -0.109375 0.40625 -0.109375l1.828125 0l0 5.8125q0 0.765625 0.484375 1.265625q0.484375 0.484375 1.203125 0.484375q1.90625 0 3.5 -1.75l0 -5.03125l-1.4375 0q-0.28125 0 -0.40625 -0.109375q-0.125 -0.109375 -0.125 -0.28125q0 -0.171875 0.125 -0.28125q0.125 -0.109375 0.40625 -0.109375l2.203125 0l0 7.25l0.671875 0q0.265625 0 0.390625 0.109375q0.125 0.109375 0.125 0.28125q0 0.171875 -0.125 0.28125q-0.125 0.109375 -0.390625 0.109375l-1.4375 0z" fill-rule="nonzero"/><path fill="#000000" fill-opacity="0.0" d="m574.4803 279.0748l78.77167 0" fill-rule="evenodd"/><path stroke="#000000" stroke-width="1.0" stroke-linejoin="round" stroke-linecap="butt" d="m574.4803 279.0748l72.77167 0" fill-rule="evenodd"/><path fill="#000000" stroke="#000000" stroke-width="1.0" stroke-linecap="butt" d="m647.25195 280.72653l4.538086 -1.6517334l-4.538086 -1.6517334z" fill-rule="evenodd"/><path fill="#000000" fill-opacity="0.0" d="m749.1982 314.68765l0 42.04724" fill-rule="evenodd"/><path stroke="#000000" stroke-width="1.0" stroke-linejoin="round" stroke-linecap="butt" d="m749.1982 314.68765l0 36.04724" fill-rule="evenodd"/><path fill="#000000" stroke="#000000" stroke-width="1.0" stroke-linecap="butt" d="m747.54645 350.7349l1.6517334 4.5381165l1.6517334 -4.5381165z" fill-rule="evenodd"/><path fill="#000000" fill-opacity="0.0" d="m573.9921 237.06036l79.74805 0l0 42.015747l-79.74805 0z" fill-rule="evenodd"/><path fill="#000000" d="m589.4921 254.80849l0 7.2968903l1.265625 0q0.671875 0 0.953125 0.265625q0.296875 0.265625 0.296875 0.6875q0 0.40625 -0.296875 0.671875q-0.28125 0.25 -0.953125 0.25l-4.375 0q-0.671875 0 -0.96875 -0.25q-0.28125 -0.265625 -0.28125 -0.6875q0 -0.40625 0.28125 -0.671875q0.296875 -0.265625 0.96875 -0.265625l1.25 0l0 -7.2968903l-2.03125 0l0 1.7656403q0 0.671875 -0.265625 0.96875q-0.25 0.28125 -0.671875 0.28125q-0.40625 0 -0.671875 -0.28125q-0.25 -0.296875 -0.25 -0.96875l0 -3.6406403l9.671875 0l0 3.6406403q0 0.671875 -0.265625 0.96875q-0.25 0.28125 -0.671875 0.28125q-0.40625 0 -0.671875 -0.28125q-0.265625 -0.296875 -0.265625 -0.96875l0 -1.7656403l-2.046875 0zm9.898682 0.90625l0 1.1562653q1.1875 -0.84375 1.859375 -1.1250153q0.6875 -0.28125 1.265625 -0.28125q0.921875 0 1.78125 0.67189026q0.578125 0.453125 0.578125 0.921875q0 0.40625 -0.28125 0.6875q-0.28125 0.28125 -0.671875 0.28125q-0.34375 0 -0.734375 -0.34375q-0.375 -0.359375 -0.671875 -0.359375q-0.390625 0 -1.171875 0.5q-0.78125 0.484375 -1.953125 1.46875l0 2.8125l2.671875 0q0.671875 0 0.953125 0.265625q0.296875 0.265625 0.296875 0.6875q0 0.40625 -0.296875 0.671875q-0.28125 0.25 -0.953125 0.25l-5.640625 0q-0.671875 0 -0.96875 -0.25q-0.28125 -0.265625 -0.28125 -0.6875q0 -0.40625 0.28125 -0.671875q0.296875 -0.265625 0.96875 -0.265625l1.109375 0l0 -4.53125l-0.671875 0q-0.671875 0 -0.96875 -0.25q-0.28125 -0.265625 -0.28125 -0.6875q0 -0.40625 0.28125 -0.65626526q0.296875 -0.265625 0.96875 -0.265625l2.53125 0zm15.554932 0l0 6.3906403q0.59375 0 0.875 0.265625q0.28125 0.265625 0.28125 0.6875q0 0.40625 -0.296875 0.671875q-0.28125 0.25 -0.953125 0.25l-1.765625 0l0 -0.421875q-0.8125 0.359375 -1.546875 0.53125q-0.71875 0.1875 -1.375 0.1875q-0.921875 0 -1.59375 -0.375q-0.671875 -0.390625 -1.0625 -1.078125q-0.28125 -0.5 -0.28125 -1.234375l0 -4.015625l-0.328125 0q-0.671875 0 -0.96875 -0.25q-0.28125 -0.265625 -0.28125 -0.6875q0 -0.40625 0.28125 -0.65626526q0.296875 -0.265625 0.96875 -0.265625l2.1875 0l0 5.5468903q0 0.59375 0.28125 0.875q0.296875 0.28125 0.890625 0.28125q0.5625 0 1.203125 -0.21875q0.65625 -0.234375 1.625 -0.8125l0 -3.8125l-0.6875 0q-0.671875 0 -0.953125 -0.25q-0.28125 -0.265625 -0.28125 -0.6875q0 -0.40625 0.28125 -0.65626526q0.28125 -0.265625 0.953125 -0.265625l2.546875 0zm11.914368 5.0781403l-7.65625 0q0.296875 0.734375 1.03125 1.1875q0.75 0.4375 2.015625 0.4375q1.03125 0 2.75 -0.453125q0.71875 -0.1875 0.984375 -0.1875q0.375 0 0.625 0.265625q0.265625 0.265625 0.265625 0.671875q0 0.359375 -0.28125 0.625q-0.359375 0.328125 -1.78125 0.640625q-1.40625 0.296875 -2.703125 0.296875q-2.25 0 -3.59375 -1.265625q-1.34375 -1.265625 -1.34375 -3.109375q0 -1.96875 1.453125 -3.203125q1.453125 -1.2343903 3.359375 -1.2343903q1.140625 0 2.078125 0.40625q0.953125 0.39064026 1.421875 0.85939026q0.65625 0.671875 1.09375 1.671875q0.28125 0.6875 0.28125 1.59375l0 0.796875zm-2.0625 -1.875q-0.4375 -0.796875 -1.125 -1.1875q-0.6875 -0.40625 -1.640625 -0.40625q-0.953125 0 -1.65625 0.40625q-0.6875 0.390625 -1.125 1.1875l5.546875 0z" fill-rule="nonzero"/></g></svg>