<svg version="1.1" viewBox="0.0 0.0 864.2545931758531 753.3202099737533" fill="none" stroke="none" stroke-linecap="square" stroke-miterlimit="10" xmlns:xlink="http://www.w3.org/1999/xlink" xmlns="http://www.w3.org/2000/svg"><clipPath id="p.0"><path d="m0 0l864.2546 0l0 753.3202l-864.2546 0l0 -753.3202z" clip-rule="nonzero"/></clipPath><g clip-path="url(#p.0)"><path fill="#000000" fill-opacity="0.0" d="m0 0l864.2546 0l0 753.3202l-864.2546 0z" fill-rule="evenodd"/><path fill="#cfe2f3" d="m163.3202 46.55643l0 0c0 -4.5371437 3.6780853 -8.215225 8.215225 -8.215225l56.766403 0c2.1788177 0 4.268387 0.8655319 5.8090363 2.4061852c1.5406647 1.5406532 2.406189 3.6302261 2.406189 5.80904l0 32.86089c0 4.5371475 -3.6780853 8.215225 -8.215225 8.215225l-56.766403 0c-4.53714 0 -8.215225 -3.6780777 -8.215225 -8.215225z" fill-rule="evenodd"/><path stroke="#000000" stroke-width="1.0" stroke-linejoin="round" stroke-linecap="butt" d="m163.3202 46.55643l0 0c0 -4.5371437 3.6780853 -8.215225 8.215225 -8.215225l56.766403 0c2.1788177 0 4.268387 0.8655319 5.8090363 2.4061852c1.5406647 1.5406532 2.406189 3.6302261 2.406189 5.80904l0 32.86089c0 4.5371475 -3.6780853 8.215225 -8.215225 8.215225l-56.766403 0c-4.53714 0 -8.215225 -3.6780777 -8.215225 -8.215225z" fill-rule="evenodd"/><path fill="#000000" d="m182.99199 66.281876l-5.125 0l-1.046875 2.84375l1.5 0q0.28125 0 0.390625 0.109375q0.125 0.109375 0.125 0.28125q0 0.171875 -0.125 0.28125q-0.109375 0.109375 -0.390625 0.109375l-2.921875 0q-0.265625 0 -0.390625 -0.109375q-0.125 -0.109375 -0.125 -0.28125q0 -0.171875 0.125 -0.28125q0.125 -0.109375 0.390625 -0.109375l0.609375 0l3.4375 -9.296875l-2.296875 0q-0.28125 0 -0.40625 -0.09375q-0.109375 -0.109375 -0.109375 -0.296875q0 -0.171875 0.109375 -0.28125q0.125 -0.109375 0.40625 -0.109375l3.921875 0l3.8125 10.078125l0.59375 0q0.28125 0 0.390625 0.109375q0.125 0.109375 0.125 0.28125q0 0.171875 -0.125 0.28125q-0.109375 0.109375 -0.390625 0.109375l-2.90625 0q-0.28125 0 -0.40625 -0.109375q-0.125 -0.109375 -0.125 -0.28125q0 -0.171875 0.125 -0.28125q0.125 -0.109375 0.40625 -0.109375l1.484375 0l-1.0625 -2.84375zm-0.296875 -0.78125l-2.15625 -5.671875l-0.28125 0l-2.09375 5.671875l4.53125 0zm9.526855 -7.234375l0 10.859375l3.0625 0q0.28125 0 0.40625 0.109375q0.125 0.109375 0.125 0.28125q0 0.171875 -0.125 0.28125q-0.125 0.109375 -0.40625 0.109375l-6.90625 0q-0.28125 0 -0.40625 -0.109375q-0.109375 -0.109375 -0.109375 -0.28125q0 -0.171875 0.109375 -0.28125q0.125 -0.109375 0.40625 -0.109375l3.0625 0l0 -10.078125l-2.234375 0q-0.28125 0 -0.40625 -0.109375q-0.125 -0.109375 -0.125 -0.28125q0 -0.171875 0.109375 -0.28125q0.125 -0.109375 0.421875 -0.109375l3.015625 0zm9.433105 8.171875l0 3.46875l-1.828125 0q-0.28125 0 -0.40625 -0.109375q-0.125 -0.109375 -0.125 -0.28125q0 -0.171875 0.125 -0.28125q0.125 -0.109375 0.40625 -0.109375l1.046875 0l0 -10.078125l-1.046875 0q-0.28125 0 -0.40625 -0.109375q-0.125 -0.109375 -0.125 -0.28125q0 -0.171875 0.125 -0.28125q0.125 -0.109375 0.40625 -0.109375l1.828125 0l0 7.171875l3.3125 -2.78125l-0.40625 0q-0.28125 0 -0.40625 -0.109375q-0.109375 -0.109375 -0.109375 -0.28125q0 -0.171875 0.109375 -0.28125q0.125 -0.109375 0.40625 -0.109375l2.5 0q0.28125 0 0.40625 0.109375q0.125 0.109375 0.125 0.28125q0 0.171875 -0.125 0.28125q-0.125 0.109375 -0.40625 0.109375l-0.90625 0l-3.046875 2.546875l3.859375 3.921875l0.890625 0q0.296875 0 0.40625 0.109375q0.125 0.109375 0.125 0.28125q0 0.171875 -0.125 0.28125q-0.109375 0.109375 -0.40625 0.109375l-2.515625 0q-0.28125 0 -0.40625 -0.109375q-0.109375 -0.109375 -0.109375 -0.28125q0 -0.171875 0.109375 -0.28125q0.125 -0.109375 0.40625 -0.109375l0.546875 0l-3.34375 -3.4375l-0.890625 0.75zm15.651855 3.46875l0 -1.140625q-1.609375 1.453125 -3.453125 1.453125q-1.140625 0 -1.734375 -0.625q-0.78125 -0.8125 -0.78125 -1.90625l0 -5.03125l-1.046875 0q-0.28125 0 -0.40625 -0.109375q-0.109375 -0.109375 -0.109375 -0.28125q0 -0.171875 0.109375 -0.28125q0.125 -0.109375 0.40625 -0.109375l1.828125 0l0 5.8125q0 0.765625 0.484375 1.265625q0.484375 0.484375 1.203125 0.484375q1.90625 0 3.5 -1.75l0 -5.03125l-1.4375 0q-0.28125 0 -0.40625 -0.109375q-0.125 -0.109375 -0.125 -0.28125q0 -0.171875 0.125 -0.28125q0.125 -0.109375 0.40625 -0.109375l2.203125 0l0 7.25l0.671875 0q0.265625 0 0.390625 0.109375q0.125 0.109375 0.125 0.28125q0 0.171875 -0.125 0.28125q-0.125 0.109375 -0.390625 0.109375l-1.4375 0z" fill-rule="nonzero"/><path fill="#cfe2f3" d="m683.03674 485.73358l0 0c0 -4.53714 3.6781006 -8.21521 8.21521 -8.21521l72.136475 0c2.178833 0 4.2684326 0.86553955 5.809082 2.406189c1.5406494 1.5406494 2.406189 3.6302185 2.406189 5.809021l0 32.8609c0 4.5371704 -3.6781006 8.21521 -8.215271 8.21521l-72.136475 0c-4.5371094 0 -8.21521 -3.6780396 -8.21521 -8.21521z" fill-rule="evenodd"/><path stroke="#000000" stroke-width="1.0" stroke-linejoin="round" stroke-linecap="butt" d="m683.03674 485.73358l0 0c0 -4.53714 3.6781006 -8.21521 8.21521 -8.21521l72.136475 0c2.178833 0 4.2684326 0.86553955 5.809082 2.406189c1.5406494 1.5406494 2.406189 3.6302185 2.406189 5.809021l0 32.8609c0 4.5371704 -3.6781006 8.21521 -8.215271 8.21521l-72.136475 0c-4.5371094 0 -8.21521 -3.6780396 -8.21521 -8.21521z" fill-rule="evenodd"/><path fill="#000000" d="m698.7867 499.00592l0 9.296875l5.1875 0l0 -3.09375q0 -0.28125 0.109375 -0.390625q0.109375 -0.125 0.28125 -0.125q0.171875 0 0.28125 0.109375q0.109375 0.109375 0.109375 0.40625l0 3.875l-8.609375 0q-0.28125 0 -0.40625 -0.109375q-0.109375 -0.109375 -0.109375 -0.28125q0 -0.171875 0.109375 -0.28125q0.125 -0.109375 0.40625 -0.109375l1.859375 0l0 -9.296875l-1.859375 0q-0.28125 0 -0.40625 -0.09375q-0.109375 -0.109375 -0.109375 -0.296875q0 -0.171875 0.109375 -0.28125q0.125 -0.109375 0.40625 -0.109375l4.5 0q0.28125 0 0.390625 0.109375q0.125 0.109375 0.125 0.28125q0 0.1875 -0.125 0.296875q-0.109375 0.09375 -0.390625 0.09375l-1.859375 0zm17.120605 6.078125q0 1.78125 -1.28125 3.046875q-1.28125 1.265625 -3.078125 1.265625q-1.8125 0 -3.09375 -1.265625q-1.265625 -1.28125 -1.265625 -3.046875q0 -1.78125 1.265625 -3.046875q1.28125 -1.265625 3.09375 -1.265625q1.796875 0 3.078125 1.265625q1.28125 1.25 1.28125 3.046875zm-0.796875 0q0 -1.46875 -1.046875 -2.5q-1.03125 -1.03125 -2.515625 -1.03125q-1.484375 0 -2.53125 1.046875q-1.046875 1.03125 -1.046875 2.484375q0 1.453125 1.046875 2.5q1.046875 1.03125 2.53125 1.03125q1.484375 0 2.515625 -1.03125q1.046875 -1.046875 1.046875 -2.5zm4.9018555 -4.03125l0 1.421875q0.6875 -0.84375 1.484375 -1.265625q0.8125 -0.4375 1.890625 -0.4375q1.15625 0 2.125 0.546875q0.96875 0.53125 1.5 1.5q0.546875 0.953125 0.546875 2.0q0 1.6875 -1.203125 2.890625q-1.203125 1.1875 -2.953125 1.1875q-2.09375 0 -3.390625 -1.703125l0 4.6875l1.890625 0q0.28125 0 0.390625 0.109375q0.125 0.109375 0.125 0.28125q0 0.171875 -0.125 0.28125q-0.109375 0.109375 -0.390625 0.109375l-3.71875 0q-0.28125 0 -0.40625 -0.109375q-0.109375 -0.09375 -0.109375 -0.28125q0 -0.171875 0.109375 -0.28125q0.125 -0.109375 0.40625 -0.109375l1.046875 0l0 -10.046875l-1.046875 0q-0.28125 0 -0.40625 -0.109375q-0.109375 -0.109375 -0.109375 -0.28125q0 -0.171875 0.109375 -0.28125q0.125 -0.109375 0.40625 -0.109375l1.828125 0zm6.75 3.765625q0 -1.34375 -0.984375 -2.296875q-0.96875 -0.96875 -2.375 -0.96875q-1.421875 0 -2.40625 0.96875q-0.984375 0.96875 -0.984375 2.296875q0 1.359375 0.984375 2.328125q0.984375 0.953125 2.40625 0.953125q1.390625 0 2.375 -0.953125q0.984375 -0.96875 0.984375 -2.328125zm4.6518555 -3.765625l0 1.421875q0.6875 -0.84375 1.484375 -1.265625q0.8125 -0.4375 1.890625 -0.4375q1.15625 0 2.125 0.546875q0.96875 0.53125 1.5 1.5q0.546875 0.953125 0.546875 2.0q0 1.6875 -1.203125 2.890625q-1.203125 1.1875 -2.953125 1.1875q-2.09375 0 -3.390625 -1.703125l0 4.6875l1.890625 0q0.28125 0 0.390625 0.109375q0.125 0.109375 0.125 0.28125q0 0.171875 -0.125 0.28125q-0.109375 0.109375 -0.390625 0.109375l-3.71875 0q-0.28125 0 -0.40625 -0.109375q-0.109375 -0.09375 -0.109375 -0.28125q0 -0.171875 0.109375 -0.28125q0.125 -0.109375 0.40625 -0.109375l1.046875 0l0 -10.046875l-1.046875 0q-0.28125 0 -0.40625 -0.109375q-0.109375 -0.109375 -0.109375 -0.28125q0 -0.171875 0.109375 -0.28125q0.125 -0.109375 0.40625 -0.109375l1.828125 0zm6.75 3.765625q0 -1.34375 -0.984375 -2.296875q-0.96875 -0.96875 -2.375 -0.96875q-1.421875 0 -2.40625 0.96875q-0.984375 0.96875 -0.984375 2.296875q0 1.359375 0.984375 2.328125q0.984375 0.953125 2.40625 0.953125q1.390625 0 2.375 -0.953125q0.984375 -0.96875 0.984375 -2.328125zm10.26123 4.265625l0 -1.140625q-1.609375 1.453125 -3.453125 1.453125q-1.140625 0 -1.734375 -0.625q-0.78125 -0.8125 -0.78125 -1.90625l0 -5.03125l-1.046875 0q-0.28125 0 -0.40625 -0.109375q-0.109375 -0.109375 -0.109375 -0.28125q0 -0.171875 0.109375 -0.28125q0.125 -0.109375 0.40625 -0.109375l1.828125 0l0 5.8125q0 0.765625 0.484375 1.265625q0.484375 0.484375 1.203125 0.484375q1.90625 0 3.5 -1.75l0 -5.03125l-1.4375 0q-0.28125 0 -0.40625 -0.109375q-0.125 -0.109375 -0.125 -0.28125q0 -0.171875 0.125 -0.28125q0.125 -0.109375 0.40625 -0.109375l2.203125 0l0 7.25l0.671875 0q0.265625 0 0.390625 0.109375q0.125 0.109375 0.125 0.28125q0 0.171875 -0.125 0.28125q-0.125 0.109375 -0.390625 0.109375l-1.4375 0z" fill-rule="nonzero"/><path fill="#cfe2f3" d="m117.761154 126.47244l164.31496 0l0 71.703415l-164.31496 0z" fill-rule="evenodd"/><path stroke="#000000" stroke-width="1.0" stroke-linejoin="round" stroke-linecap="butt" d="m117.761154 126.47244l164.31496 0l0 71.703415l-164.31496 0z" fill-rule="evenodd"/><path fill="#000000" d="m135.24553 159.16602l0 -0.25q0 -0.28125 0.109375 -0.40625q0.109375 -0.125 0.28125 -0.125q0.1875 0 0.28125 0.125q0.109375 0.125 0.109375 0.40625l0 1.984375q0 0.265625 -0.109375 0.390625q-0.09375 0.125 -0.28125 0.125q-0.15625 0 -0.265625 -0.109375q-0.109375 -0.109375 -0.125 -0.359375q-0.046875 -0.78125 -0.796875 -1.40625q-0.75 -0.625 -1.984375 -0.625q-1.28125 0 -2.046875 0.671875q-0.765625 0.65625 -0.765625 1.5625q0 0.453125 0.21875 0.84375q0.21875 0.375 0.5625 0.609375q0.359375 0.234375 0.796875 0.390625q0.453125 0.140625 1.390625 0.296875q1.59375 0.25 2.1875 0.53125q0.8125 0.359375 1.21875 1.0q0.421875 0.640625 0.421875 1.515625q0 1.328125 -1.078125 2.28125q-1.0625 0.9375 -2.859375 0.9375q-2.03125 0 -3.25 -1.28125l0 0.453125q0 0.28125 -0.109375 0.40625q-0.109375 0.109375 -0.28125 0.109375q-0.171875 0 -0.28125 -0.109375q-0.109375 -0.125 -0.109375 -0.40625l0 -2.15625q0 -0.28125 0.109375 -0.40625q0.109375 -0.125 0.28125 -0.125q0.15625 0 0.265625 0.109375q0.109375 0.109375 0.125 0.359375q0.046875 0.859375 0.90625 1.5625q0.875 0.703125 2.34375 0.703125q1.453125 0 2.296875 -0.734375q0.859375 -0.734375 0.859375 -1.734375q0 -0.609375 -0.328125 -1.09375q-0.328125 -0.484375 -0.96875 -0.75q-0.4375 -0.203125 -1.84375 -0.4375q-1.9375 -0.328125 -2.796875 -1.0q-0.859375 -0.671875 -0.859375 -1.90625q0 -1.21875 0.984375 -2.09375q0.984375 -0.890625 2.578125 -0.890625q1.640625 0 2.8125 1.03125zm8.66748 10.078125l-3.609375 -7.25l-0.234375 0q-0.28125 0 -0.40625 -0.109375q-0.125 -0.109375 -0.125 -0.28125q0 -0.109375 0.0625 -0.203125q0.0625 -0.109375 0.15625 -0.140625q0.109375 -0.046875 0.3125 -0.046875l2.125 0q0.28125 0 0.40625 0.109375q0.125 0.109375 0.125 0.28125q0 0.171875 -0.125 0.28125q-0.125 0.109375 -0.40625 0.109375l-1.046875 0l3.1875 6.390625l3.140625 -6.390625l-1.0625 0q-0.265625 0 -0.390625 -0.109375q-0.125 -0.109375 -0.125 -0.28125q0 -0.171875 0.125 -0.28125q0.125 -0.109375 0.390625 -0.109375l2.125 0q0.296875 0 0.40625 0.109375q0.125 0.109375 0.125 0.28125q0 0.125 -0.078125 0.234375q-0.0625 0.09375 -0.15625 0.125q-0.09375 0.03125 -0.515625 0.03125l-4.9375 10.046875l1.203125 0q0.28125 0 0.40625 0.109375q0.125 0.109375 0.125 0.28125q0 0.171875 -0.125 0.28125q-0.125 0.109375 -0.40625 0.109375l-4.484375 0q-0.28125 0 -0.40625 -0.109375q-0.109375 -0.09375 -0.109375 -0.28125q0 -0.171875 0.109375 -0.28125q0.125 -0.109375 0.40625 -0.109375l2.4375 0l1.375 -2.796875zm15.714355 -4.0q0 1.78125 -1.28125 3.046875q-1.28125 1.265625 -3.078125 1.265625q-1.8125 0 -3.09375 -1.265625q-1.265625 -1.28125 -1.265625 -3.046875q0 -1.78125 1.265625 -3.046875q1.28125 -1.265625 3.09375 -1.265625q1.796875 0 3.078125 1.265625q1.28125 1.25 1.28125 3.046875zm-0.796875 0q0 -1.46875 -1.046875 -2.5q-1.03125 -1.03125 -2.515625 -1.03125q-1.484375 0 -2.53125 1.046875q-1.046875 1.03125 -1.046875 2.484375q0 1.453125 1.046875 2.5q1.046875 1.03125 2.53125 1.03125q1.484375 0 2.515625 -1.03125q1.046875 -1.046875 1.046875 -2.5zm-4.796875 -6.625q0 0.3125 -0.21875 0.53125q-0.21875 0.21875 -0.53125 0.21875q-0.3125 0 -0.546875 -0.21875q-0.21875 -0.21875 -0.21875 -0.53125q0 -0.3125 0.21875 -0.53125q0.234375 -0.234375 0.546875 -0.234375q0.3125 0 0.53125 0.234375q0.21875 0.21875 0.21875 0.53125zm3.984375 0q0 0.3125 -0.234375 0.53125q-0.21875 0.21875 -0.53125 0.21875q-0.3125 0 -0.53125 -0.21875q-0.21875 -0.21875 -0.21875 -0.53125q0 -0.3125 0.21875 -0.53125q0.21875 -0.234375 0.53125 -0.234375q0.3125 0 0.53125 0.234375q0.234375 0.21875 0.234375 0.53125zm7.0424805 2.59375l4.234375 0q0.28125 0 0.390625 0.109375q0.125 0.109375 0.125 0.28125q0 0.171875 -0.125 0.28125q-0.109375 0.109375 -0.390625 0.109375l-4.234375 0l0 5.1875q0 0.6875 0.546875 1.140625q0.546875 0.453125 1.59375 0.453125q0.78125 0 1.703125 -0.234375q0.921875 -0.25 1.4375 -0.546875q0.1875 -0.109375 0.296875 -0.109375q0.15625 0 0.265625 0.125q0.109375 0.109375 0.109375 0.265625q0 0.140625 -0.125 0.25q-0.296875 0.3125 -1.4375 0.671875q-1.140625 0.359375 -2.1875 0.359375q-1.375 0 -2.1875 -0.640625q-0.796875 -0.640625 -0.796875 -1.734375l0 -5.1875l-1.4375 0q-0.28125 0 -0.40625 -0.109375q-0.109375 -0.109375 -0.109375 -0.28125q0 -0.171875 0.109375 -0.28125q0.125 -0.109375 0.40625 -0.109375l1.4375 0l0 -2.296875q0 -0.28125 0.109375 -0.40625q0.109375 -0.125 0.28125 -0.125q0.171875 0 0.28125 0.125q0.109375 0.125 0.109375 0.40625l0 2.296875zm17.22998 4.203125l-7.953125 0q0.21875 1.515625 1.28125 2.4375q1.0625 0.921875 2.625 0.921875q0.875 0 1.828125 -0.28125q0.953125 -0.296875 1.5625 -0.765625q0.171875 -0.140625 0.296875 -0.140625q0.15625 0 0.265625 0.125q0.109375 0.109375 0.109375 0.265625q0 0.15625 -0.15625 0.296875q-0.4375 0.46875 -1.578125 0.875q-1.140625 0.40625 -2.328125 0.40625q-2.0 0 -3.34375 -1.3125q-1.34375 -1.3125 -1.34375 -3.1875q0 -1.6875 1.25 -2.90625q1.265625 -1.21875 3.125 -1.21875q1.90625 0 3.140625 1.25q1.234375 1.25 1.21875 3.234375zm-0.796875 -0.796875q-0.234375 -1.28125 -1.21875 -2.09375q-0.984375 -0.8125 -2.34375 -0.8125q-1.375 0 -2.359375 0.8125q-0.96875 0.796875 -1.21875 2.09375l7.140625 0zm7.8081055 -3.40625l0.34375 0q0.515625 0 0.890625 0.375q0.375 0.359375 0.375 0.875q0 0.546875 -0.375 0.90625q-0.375 0.359375 -0.890625 0.359375l-0.34375 0q-0.515625 0 -0.890625 -0.359375q-0.359375 -0.375 -0.359375 -0.890625q0 -0.546875 0.375 -0.90625q0.375 -0.359375 0.875 -0.359375zm0 5.796875l0.34375 0q0.515625 0 0.890625 0.375q0.375 0.359375 0.375 0.875q0 0.53125 -0.375 0.90625q-0.375 0.359375 -0.890625 0.359375l-0.34375 0q-0.515625 0 -0.890625 -0.359375q-0.359375 -0.375 -0.359375 -0.890625q0 -0.546875 0.375 -0.90625q0.375 -0.359375 0.875 -0.359375z" fill-rule="nonzero"/><path fill="#000000" d="m213.8554 169.24414l0 -0.4375q-0.703125 0.375 -1.5625 0.5625q-0.84375 0.1875 -1.53125 0.1875q-1.5 0 -2.4375 -0.796875q-0.9375 -0.796875 -0.9375 -1.765625q0 -1.171875 1.1875 -2.171875q1.203125 -1.015625 3.3125 -1.015625q0.859375 0 1.96875 0.1875l0 -0.453125q0 -0.421875 -0.359375 -0.6875q-0.359375 -0.265625 -1.375 -0.265625q-0.828125 0 -2.15625 0.328125q-0.484375 0.125 -0.765625 0.125q-0.359375 0 -0.625 -0.265625q-0.265625 -0.265625 -0.265625 -0.6875q0 -0.234375 0.09375 -0.40625q0.09375 -0.1875 0.25 -0.28125q0.171875 -0.109375 0.6875 -0.25q0.703125 -0.203125 1.421875 -0.3125q0.71875 -0.109375 1.296875 -0.109375q1.734375 0 2.6875 0.75q0.96875 0.75 0.96875 2.046875l0 3.84375l0.328125 0q0.671875 0 0.953125 0.265625q0.296875 0.265625 0.296875 0.6875q0 0.40625 -0.296875 0.671875q-0.28125 0.25 -0.953125 0.25l-2.1875 0zm0 -3.34375q-1.125 -0.21875 -2.078125 -0.21875q-1.125 0 -1.953125 0.5625q-0.515625 0.34375 -0.515625 0.71875q0 0.265625 0.25 0.421875q0.453125 0.296875 1.25 0.296875q0.671875 0 1.515625 -0.265625q0.859375 -0.265625 1.53125 -0.71875l0 -0.796875zm9.070572 0.828125l2.5 0l-2.6875 5.0625q-0.234375 0.453125 -0.59375 0.453125q-0.234375 0 -0.40625 -0.15625q-0.171875 -0.15625 -0.171875 -0.34375q0 -0.140625 0.0625 -0.375l1.296875 -4.640625zm25.750519 -5.421875q0.328125 -0.3125 0.6875 -0.3125q0.390625 0 0.65625 0.296875q0.265625 0.28125 0.265625 0.9375l0 1.203125q0 0.671875 -0.265625 0.953125q-0.265625 0.28125 -0.671875 0.28125q-0.390625 0 -0.65625 -0.21875q-0.1875 -0.15625 -0.296875 -0.65625q-0.109375 -0.515625 -0.53125 -0.765625q-0.734375 -0.4375 -1.875 -0.4375q-1.328125 0 -2.125 0.78125q-0.796875 0.78125 -0.796875 1.953125q0 1.09375 0.765625 1.734375q0.765625 0.625 2.546875 0.625q1.15625 0 1.890625 -0.234375q0.4375 -0.140625 0.828125 -0.484375q0.40625 -0.359375 0.71875 -0.359375q0.375 0 0.65625 0.28125q0.28125 0.28125 0.28125 0.671875q0 0.609375 -0.84375 1.171875q-1.265625 0.828125 -3.6875 0.828125q-2.171875 0 -3.390625 -0.90625q-1.640625 -1.203125 -1.640625 -3.3125q0 -2.0 1.328125 -3.296875q1.34375 -1.3125 3.484375 -1.3125q0.765625 0 1.421875 0.15625q0.671875 0.140625 1.25 0.421875z" fill-rule="nonzero"/><path fill="#cfe2f3" d="m56.51706 312.45145l143.40158 -75.4357l143.40158 75.4357l-143.40158 75.4357z" fill-rule="evenodd"/><path stroke="#000000" stroke-width="1.0" stroke-linejoin="round" stroke-linecap="butt" d="m56.51706 312.45145l143.40158 -75.4357l143.40158 75.4357l-143.40158 75.4357z" fill-rule="evenodd"/><path fill="#000000" d="m164.65198 314.9183l-7.796875 0l0 -1.703125l7.796875 0l0 1.703125zm10.195572 -3.484375q0.328125 -0.3125 0.6875 -0.3125q0.390625 0 0.65625 0.296875q0.265625 0.28125 0.265625 0.9375l0 1.203125q0 0.671875 -0.265625 0.953125q-0.265625 0.28125 -0.671875 0.28125q-0.390625 0 -0.65625 -0.21875q-0.1875 -0.15625 -0.296875 -0.65625q-0.109375 -0.515625 -0.53125 -0.765625q-0.734375 -0.4375 -1.875 -0.4375q-1.328125 0 -2.125 0.78125q-0.796875 0.78125 -0.796875 1.953125q0 1.09375 0.765625 1.734375q0.765625 0.625 2.546875 0.625q1.15625 0 1.890625 -0.234375q0.4375 -0.140625 0.828125 -0.484375q0.40625 -0.359375 0.71875 -0.359375q0.375 0 0.65625 0.28125q0.28125 0.28125 0.28125 0.671875q0 0.609375 -0.84375 1.171875q-1.265625 0.828125 -3.6875 0.828125q-2.171875 0 -3.390625 -0.90625q-1.640625 -1.203125 -1.640625 -3.3125q0 -2.0 1.328125 -3.296875q1.34375 -1.3125 3.484375 -1.3125q0.765625 0 1.421875 0.15625q0.671875 0.140625 1.25 0.421875zm12.133072 -3.625l-5.984375 12.890625q-0.234375 0.484375 -0.421875 0.625q-0.234375 0.203125 -0.5625 0.203125q-0.390625 0 -0.671875 -0.28125q-0.265625 -0.265625 -0.265625 -0.625q0 -0.234375 0.21875 -0.71875l6.0 -12.890625q0.21875 -0.46875 0.390625 -0.625q0.25 -0.1875 0.578125 -0.1875q0.390625 0 0.65625 0.265625q0.28125 0.265625 0.28125 0.625q0 0.234375 -0.21875 0.71875zm9.023697 11.5625l0 -0.4375q-0.703125 0.375 -1.5625 0.5625q-0.84375 0.1875 -1.53125 0.1875q-1.5 0 -2.4375 -0.796875q-0.9375 -0.796875 -0.9375 -1.765625q0 -1.171875 1.1875 -2.171875q1.203125 -1.015625 3.3125 -1.015625q0.859375 0 1.96875 0.1875l0 -0.453125q0 -0.421875 -0.359375 -0.6875q-0.359375 -0.265625 -1.375 -0.265625q-0.828125 0 -2.15625 0.328125q-0.484375 0.125 -0.765625 0.125q-0.359375 0 -0.625 -0.265625q-0.265625 -0.265625 -0.265625 -0.6875q0 -0.234375 0.09375 -0.40625q0.09375 -0.1875 0.25 -0.28125q0.171875 -0.109375 0.6875 -0.25q0.703125 -0.203125 1.421875 -0.3125q0.71875 -0.109375 1.296875 -0.109375q1.734375 0 2.6875 0.75q0.96875 0.75 0.96875 2.046875l0 3.84375l0.328125 0q0.671875 0 0.953125 0.265625q0.296875 0.265625 0.296875 0.6875q0 0.40625 -0.296875 0.671875q-0.28125 0.25 -0.953125 0.25l-2.1875 0zm0 -3.34375q-1.125 -0.21875 -2.078125 -0.21875q-1.125 0 -1.953125 0.5625q-0.515625 0.34375 -0.515625 0.71875q0 0.265625 0.25 0.421875q0.453125 0.296875 1.25 0.296875q0.671875 0 1.515625 -0.265625q0.859375 -0.265625 1.53125 -0.71875l0 -0.796875zm18.750519 -1.96875l6.046875 3.34375q0.453125 0.25 0.609375 0.453125q0.15625 0.203125 0.15625 0.515625q0 0.390625 -0.28125 0.6875q-0.28125 0.28125 -0.65625 0.28125q-0.25 0 -0.75 -0.28125l-9.0 -5.0l9.0 -5.015625q0.5 -0.265625 0.734375 -0.265625q0.390625 0 0.671875 0.28125q0.28125 0.28125 0.28125 0.671875q0 0.3125 -0.15625 0.515625q-0.15625 0.203125 -0.609375 0.453125l-6.046875 3.359375zm28.422394 -1.625l0 2.0625q0 1.8125 -1.0625 3.484375q-1.046875 1.65625 -3.0 1.65625q-1.125 0 -1.90625 -0.484375q-0.78125 -0.5 -1.484375 -1.828125q-0.6875 -1.34375 -0.6875 -2.828125l0 -2.0625q0 -1.8125 1.046875 -3.484375q1.046875 -1.671875 3.0 -1.671875q1.125 0 1.90625 0.5q0.78125 0.484375 1.484375 1.828125q0.703125 1.328125 0.703125 2.828125zm-1.875 0q0 -1.515625 -0.84375 -2.65625q-0.484375 -0.625 -1.359375 -0.625q-0.84375 0 -1.390625 0.6875q-0.8125 1.046875 -0.8125 2.59375l0 2.0625q0 1.515625 0.859375 2.65625q0.484375 0.625 1.359375 0.625q0.84375 0 1.375 -0.6875q0.8125 -1.046875 0.8125 -2.59375l0 -2.0625z" fill-rule="nonzero"/><path fill="#cfe2f3" d="m431.021 276.59973l164.31494 0l0 71.70343l-164.31494 0z" fill-rule="evenodd"/><path stroke="#000000" stroke-width="1.0" stroke-linejoin="round" stroke-linecap="butt" d="m431.021 276.59973l164.31494 0l0 71.70343l-164.31494 0z" fill-rule="evenodd"/><path fill="#000000" d="m446.11475 298.2933l0 9.296875l2.015625 0q0.28125 0 0.390625 0.109375q0.125 0.109375 0.125 0.28125q0 0.171875 -0.125 0.28125q-0.109375 0.109375 -0.390625 0.109375l-4.828125 0q-0.28125 0 -0.40625 -0.109375q-0.125 -0.109375 -0.125 -0.28125q0 -0.171875 0.125 -0.28125q0.125 -0.109375 0.40625 -0.109375l2.015625 0l0 -9.296875l-3.1875 0l0 2.703125q0 0.28125 -0.109375 0.40625q-0.109375 0.125 -0.28125 0.125q-0.171875 0 -0.28125 -0.125q-0.109375 -0.125 -0.109375 -0.40625l0 -3.484375l8.734375 0l0 3.484375q0 0.28125 -0.109375 0.40625q-0.109375 0.125 -0.28125 0.125q-0.1875 0 -0.296875 -0.125q-0.09375 -0.125 -0.09375 -0.40625l0 -2.703125l-3.1875 0zm13.683105 10.078125l0 -1.140625q-1.609375 1.453125 -3.453125 1.453125q-1.140625 0 -1.734375 -0.625q-0.78125 -0.8125 -0.78125 -1.90625l0 -5.03125l-1.046875 0q-0.28125 0 -0.40625 -0.109375q-0.109375 -0.109375 -0.109375 -0.28125q0 -0.171875 0.109375 -0.28125q0.125 -0.109375 0.40625 -0.109375l1.828125 0l0 5.8125q0 0.765625 0.484375 1.265625q0.484375 0.484375 1.203125 0.484375q1.90625 0 3.5 -1.75l0 -5.03125l-1.4375 0q-0.28125 0 -0.40625 -0.109375q-0.125 -0.109375 -0.125 -0.28125q0 -0.171875 0.125 -0.28125q0.125 -0.109375 0.40625 -0.109375l2.203125 0l0 7.25l0.671875 0q0.265625 0 0.390625 0.109375q0.125 0.109375 0.125 0.28125q0 0.171875 -0.125 0.28125q-0.125 0.109375 -0.390625 0.109375l-1.4375 0zm9.120605 -11.640625l0 10.859375l3.0625 0q0.28125 0 0.40625 0.109375q0.125 0.109375 0.125 0.28125q0 0.171875 -0.125 0.28125q-0.125 0.109375 -0.40625 0.109375l-6.90625 0q-0.28125 0 -0.40625 -0.109375q-0.109375 -0.109375 -0.109375 -0.28125q0 -0.171875 0.109375 -0.28125q0.125 -0.109375 0.40625 -0.109375l3.0625 0l0 -10.078125l-2.234375 0q-0.28125 0 -0.40625 -0.109375q-0.125 -0.109375 -0.125 -0.28125q0 -0.171875 0.109375 -0.28125q0.125 -0.109375 0.421875 -0.109375l3.015625 0zm15.370605 7.640625q0 1.78125 -1.28125 3.046875q-1.28125 1.265625 -3.078125 1.265625q-1.8125 0 -3.09375 -1.265625q-1.265625 -1.28125 -1.265625 -3.046875q0 -1.78125 1.265625 -3.046875q1.28125 -1.265625 3.09375 -1.265625q1.796875 0 3.078125 1.265625q1.28125 1.25 1.28125 3.046875zm-0.796875 0q0 -1.46875 -1.046875 -2.5q-1.03125 -1.03125 -2.515625 -1.03125q-1.484375 0 -2.53125 1.046875q-1.046875 1.03125 -1.046875 2.484375q0 1.453125 1.046875 2.5q1.046875 1.03125 2.53125 1.03125q1.484375 0 2.515625 -1.03125q1.046875 -1.046875 1.046875 -2.5zm10.41748 -3.53125q0 -0.265625 0.109375 -0.375q0.109375 -0.125 0.28125 -0.125q0.171875 0 0.28125 0.125q0.109375 0.109375 0.109375 0.40625l0 1.328125q0 0.28125 -0.109375 0.40625q-0.109375 0.109375 -0.28125 0.109375q-0.171875 0 -0.28125 -0.09375q-0.09375 -0.109375 -0.109375 -0.34375q-0.0625 -0.546875 -0.578125 -0.90625q-0.765625 -0.53125 -2.015625 -0.53125q-1.3125 0 -2.03125 0.53125q-0.546875 0.40625 -0.546875 0.890625q0 0.5625 0.640625 0.9375q0.453125 0.25 1.703125 0.390625q1.609375 0.171875 2.25 0.40625q0.890625 0.328125 1.328125 0.90625q0.453125 0.5625 0.453125 1.234375q0 0.984375 -0.953125 1.765625q-0.953125 0.78125 -2.8125 0.78125q-1.84375 0 -3.015625 -0.9375q0 0.3125 -0.046875 0.40625q-0.03125 0.09375 -0.125 0.15625q-0.09375 0.0625 -0.21875 0.0625q-0.171875 0 -0.28125 -0.109375q-0.109375 -0.125 -0.109375 -0.40625l0 -1.609375q0 -0.28125 0.109375 -0.390625q0.109375 -0.125 0.28125 -0.125q0.171875 0 0.28125 0.125q0.109375 0.109375 0.109375 0.296875q0 0.421875 0.21875 0.71875q0.328125 0.4375 1.03125 0.734375q0.71875 0.296875 1.75 0.296875q1.515625 0 2.25 -0.5625q0.75 -0.578125 0.75 -1.203125q0 -0.71875 -0.75 -1.15625q-0.765625 -0.4375 -2.21875 -0.578125q-1.453125 -0.15625 -2.078125 -0.390625q-0.625 -0.25 -0.984375 -0.734375q-0.359375 -0.484375 -0.359375 -1.03125q0 -1.015625 0.984375 -1.59375q0.984375 -0.59375 2.359375 -0.59375q1.609375 0 2.625 0.78125zm7.2143555 -0.5l4.234375 0q0.28125 0 0.390625 0.109375q0.125 0.109375 0.125 0.28125q0 0.171875 -0.125 0.28125q-0.109375 0.109375 -0.390625 0.109375l-4.234375 0l0 5.1875q0 0.6875 0.546875 1.140625q0.546875 0.453125 1.59375 0.453125q0.78125 0 1.703125 -0.234375q0.921875 -0.25 1.4375 -0.546875q0.1875 -0.109375 0.296875 -0.109375q0.15625 0 0.265625 0.125q0.109375 0.109375 0.109375 0.265625q0 0.140625 -0.125 0.25q-0.296875 0.3125 -1.4375 0.671875q-1.140625 0.359375 -2.1875 0.359375q-1.375 0 -2.1875 -0.640625q-0.796875 -0.640625 -0.796875 -1.734375l0 -5.1875l-1.4375 0q-0.28125 0 -0.40625 -0.109375q-0.109375 -0.109375 -0.109375 -0.28125q0 -0.171875 0.109375 -0.28125q0.125 -0.109375 0.40625 -0.109375l1.4375 0l0 -2.296875q0 -0.28125 0.109375 -0.40625q0.109375 -0.125 0.28125 -0.125q0.171875 0 0.28125 0.125q0.109375 0.125 0.109375 0.40625l0 2.296875zm17.22998 4.203125l-7.953125 0q0.21875 1.515625 1.28125 2.4375q1.0625 0.921875 2.625 0.921875q0.875 0 1.828125 -0.28125q0.953125 -0.296875 1.5625 -0.765625q0.171875 -0.140625 0.296875 -0.140625q0.15625 0 0.265625 0.125q0.109375 0.109375 0.109375 0.265625q0 0.15625 -0.15625 0.296875q-0.4375 0.46875 -1.578125 0.875q-1.140625 0.40625 -2.328125 0.40625q-2.0 0 -3.34375 -1.3125q-1.34375 -1.3125 -1.34375 -3.1875q0 -1.6875 1.25 -2.90625q1.265625 -1.21875 3.125 -1.21875q1.90625 0 3.140625 1.25q1.234375 1.25 1.21875 3.234375zm-0.796875 -0.796875q-0.234375 -1.28125 -1.21875 -2.09375q-0.984375 -0.8125 -2.34375 -0.8125q-1.375 0 -2.359375 0.8125q-0.96875 0.796875 -1.21875 2.09375l7.140625 0zm7.8081055 -3.40625l0.34375 0q0.515625 0 0.890625 0.375q0.375 0.359375 0.375 0.875q0 0.546875 -0.375 0.90625q-0.375 0.359375 -0.890625 0.359375l-0.34375 0q-0.515625 0 -0.890625 -0.359375q-0.359375 -0.375 -0.359375 -0.890625q0 -0.546875 0.375 -0.90625q0.375 -0.359375 0.875 -0.359375zm0 5.796875l0.34375 0q0.515625 0 0.890625 0.375q0.375 0.359375 0.375 0.875q0 0.53125 -0.375 0.90625q-0.375 0.359375 -0.890625 0.359375l-0.34375 0q-0.515625 0 -0.890625 -0.359375q-0.359375 -0.375 -0.359375 -0.890625q0 -0.546875 0.375 -0.90625q0.375 -0.359375 0.875 -0.359375z" fill-rule="nonzero"/><path fill="#000000" d="m546.3252 303.76205l0 2.734375l4.75 0l0 -1.0q0 -0.671875 0.265625 -0.953125q0.265625 -0.296875 0.671875 -0.296875q0.421875 0 0.671875 0.296875q0.265625 0.28125 0.265625 0.953125l0 2.875l-8.796875 0q-0.671875 0 -0.96875 -0.25q-0.28125 -0.265625 -0.28125 -0.6875q0 -0.40625 0.296875 -0.671875q0.296875 -0.265625 0.953125 -0.265625l0.296875 0l0 -7.296875l-0.296875 0q-0.671875 0 -0.96875 -0.25q-0.28125 -0.265625 -0.28125 -0.6875q0 -0.421875 0.28125 -0.671875q0.296875 -0.265625 0.96875 -0.265625l8.390625 0l0 2.84375q0 0.671875 -0.265625 0.96875q-0.25 0.28125 -0.671875 0.28125q-0.421875 0 -0.6875 -0.28125q-0.25 -0.296875 -0.25 -0.96875l0 -0.96875l-4.34375 0l0 2.6875l1.625 0q0 -0.71875 0.140625 -0.9375q0.28125 -0.4375 0.8125 -0.4375q0.40625 0 0.65625 0.296875q0.265625 0.28125 0.265625 0.953125l0 2.140625q0 0.609375 -0.140625 0.828125q-0.296875 0.421875 -0.78125 0.421875q-0.53125 0 -0.8125 -0.4375q-0.140625 -0.21875 -0.140625 -0.953125l-1.625 0zm13.773682 -7.203125l0 1.96875l-2.21875 0l0 -1.96875l2.21875 0zm0.25 3.546875l0 6.390625l2.25 0q0.671875 0 0.953125 0.265625q0.296875 0.265625 0.296875 0.6875q0 0.40625 -0.296875 0.671875q-0.28125 0.25 -0.953125 0.25l-6.359375 0q-0.671875 0 -0.953125 -0.25q-0.28125 -0.265625 -0.28125 -0.6875q0 -0.40625 0.28125 -0.671875q0.28125 -0.265625 0.953125 -0.265625l2.25 0l0 -4.53125l-1.5 0q-0.671875 0 -0.96875 -0.25q-0.28125 -0.265625 -0.28125 -0.6875q0 -0.40625 0.28125 -0.65625q0.296875 -0.265625 0.96875 -0.265625l3.359375 0z" fill-rule="nonzero"/><path fill="#000000" d="m447.50537 318.55893l0 1.96875l-2.234375 0l0 -1.96875l2.234375 0zm-0.765625 5.40625l-3.8125 0q-0.671875 0 -0.96875 -0.25q-0.28125 -0.265625 -0.28125 -0.6875q0 -0.40625 0.28125 -0.65625q0.296875 -0.265625 0.96875 -0.265625l5.671875 0l0 8.65625q0 0.984375 -0.421875 1.71875q-0.40625 0.734375 -1.265625 1.265625q-0.84375 0.53125 -1.921875 0.53125l-2.125 0q-0.671875 0 -0.953125 -0.265625q-0.28125 -0.265625 -0.28125 -0.671875q0 -0.421875 0.28125 -0.6875q0.28125 -0.25 0.953125 -0.25l2.0625 0q0.859375 0 1.328125 -0.46875q0.484375 -0.453125 0.484375 -1.171875l0 -6.796875zm14.039337 -1.859375l0 6.390625q0.59375 0 0.875 0.265625q0.28125 0.265625 0.28125 0.6875q0 0.40625 -0.296875 0.671875q-0.28125 0.25 -0.953125 0.25l-1.765625 0l0 -0.421875q-0.8125 0.359375 -1.546875 0.53125q-0.71875 0.1875 -1.375 0.1875q-0.921875 0 -1.59375 -0.375q-0.671875 -0.390625 -1.0625 -1.078125q-0.28125 -0.5 -0.28125 -1.234375l0 -4.015625l-0.328125 0q-0.671875 0 -0.96875 -0.25q-0.28125 -0.265625 -0.28125 -0.6875q0 -0.40625 0.28125 -0.65625q0.296875 -0.265625 0.96875 -0.265625l2.1875 0l0 5.546875q0 0.59375 0.28125 0.875q0.296875 0.28125 0.890625 0.28125q0.5625 0 1.203125 -0.21875q0.65625 -0.234375 1.625 -0.8125l0 -3.8125l-0.6875 0q-0.671875 0 -0.953125 -0.25q-0.28125 -0.265625 -0.28125 -0.6875q0 -0.40625 0.28125 -0.65625q0.28125 -0.265625 0.953125 -0.265625l2.546875 0zm11.195557 0l0 6.390625q0.59375 0 0.875 0.265625q0.28125 0.265625 0.28125 0.6875q0 0.40625 -0.296875 0.671875q-0.28125 0.25 -0.953125 0.25l-1.765625 0l0 -0.421875q-0.8125 0.359375 -1.546875 0.53125q-0.71875 0.1875 -1.375 0.1875q-0.921875 0 -1.59375 -0.375q-0.671875 -0.390625 -1.0625 -1.078125q-0.28125 -0.5 -0.28125 -1.234375l0 -4.015625l-0.328125 0q-0.671875 0 -0.96875 -0.25q-0.28125 -0.265625 -0.28125 -0.6875q0 -0.40625 0.28125 -0.65625q0.296875 -0.265625 0.96875 -0.265625l2.1875 0l0 5.546875q0 0.59375 0.28125 0.875q0.296875 0.28125 0.890625 0.28125q0.5625 0 1.203125 -0.21875q0.65625 -0.234375 1.625 -0.8125l0 -3.8125l-0.6875 0q-0.671875 0 -0.953125 -0.25q-0.28125 -0.265625 -0.28125 -0.6875q0 -0.40625 0.28125 -0.65625q0.28125 -0.265625 0.953125 -0.265625l2.546875 0zm6.836212 0l0 1.15625q1.1875 -0.84375 1.859375 -1.125q0.6875 -0.28125 1.265625 -0.28125q0.921875 0 1.78125 0.671875q0.578125 0.453125 0.578125 0.921875q0 0.40625 -0.28125 0.6875q-0.28125 0.28125 -0.671875 0.28125q-0.34375 0 -0.734375 -0.34375q-0.375 -0.359375 -0.671875 -0.359375q-0.390625 0 -1.171875 0.5q-0.78125 0.484375 -1.953125 1.46875l0 2.8125l2.671875 0q0.671875 0 0.953125 0.265625q0.296875 0.265625 0.296875 0.6875q0 0.40625 -0.296875 0.671875q-0.28125 0.25 -0.953125 0.25l-5.640625 0q-0.671875 0 -0.96875 -0.25q-0.28125 -0.265625 -0.28125 -0.6875q0 -0.40625 0.28125 -0.671875q0.296875 -0.265625 0.96875 -0.265625l1.109375 0l0 -4.53125l-0.671875 0q-0.671875 0 -0.96875 -0.25q-0.28125 -0.265625 -0.28125 -0.6875q0 -0.40625 0.28125 -0.65625q0.296875 -0.265625 0.96875 -0.265625l2.53125 0zm12.258057 -3.546875l0 1.96875l-2.21875 0l0 -1.96875l2.21875 0zm0.25 3.546875l0 6.390625l2.25 0q0.671875 0 0.953125 0.265625q0.296875 0.265625 0.296875 0.6875q0 0.40625 -0.296875 0.671875q-0.28125 0.25 -0.953125 0.25l-6.359375 0q-0.671875 0 -0.953125 -0.25q-0.28125 -0.265625 -0.28125 -0.6875q0 -0.40625 0.28125 -0.671875q0.28125 -0.265625 0.953125 -0.265625l2.25 0l0 -4.53125l-1.5 0q-0.671875 0 -0.96875 -0.25q-0.28125 -0.265625 -0.28125 -0.6875q0 -0.40625 0.28125 -0.65625q0.296875 -0.265625 0.96875 -0.265625l3.359375 0zm11.961212 8.265625l0 -0.4375q-0.703125 0.375 -1.5625 0.5625q-0.84375 0.1875 -1.53125 0.1875q-1.5 0 -2.4375 -0.796875q-0.9375 -0.796875 -0.9375 -1.765625q0 -1.171875 1.1875 -2.171875q1.203125 -1.015625 3.3125 -1.015625q0.859375 0 1.96875 0.1875l0 -0.453125q0 -0.421875 -0.359375 -0.6875q-0.359375 -0.265625 -1.375 -0.265625q-0.828125 0 -2.15625 0.328125q-0.484375 0.125 -0.765625 0.125q-0.359375 0 -0.625 -0.265625q-0.265625 -0.265625 -0.265625 -0.6875q0 -0.234375 0.09375 -0.40625q0.09375 -0.1875 0.25 -0.28125q0.171875 -0.109375 0.6875 -0.25q0.703125 -0.203125 1.421875 -0.3125q0.71875 -0.109375 1.296875 -0.109375q1.734375 0 2.6875 0.75q0.96875 0.75 0.96875 2.046875l0 3.84375l0.328125 0q0.671875 0 0.953125 0.265625q0.296875 0.265625 0.296875 0.6875q0 0.40625 -0.296875 0.671875q-0.28125 0.25 -0.953125 0.25l-2.1875 0zm0 -3.34375q-1.125 -0.21875 -2.078125 -0.21875q-1.125 0 -1.953125 0.5625q-0.515625 0.34375 -0.515625 0.71875q0 0.265625 0.25 0.421875q0.453125 0.296875 1.25 0.296875q0.671875 0 1.515625 -0.265625q0.859375 -0.265625 1.53125 -0.71875l0 -0.796875z" fill-rule="nonzero"/><path fill="#cfe2f3" d="m56.51706 502.16272l143.40158 -75.4357l143.40158 75.4357l-143.40158 75.43573z" fill-rule="evenodd"/><path stroke="#000000" stroke-width="1.0" stroke-linejoin="round" stroke-linecap="butt" d="m56.51706 502.16272l143.40158 -75.4357l143.40158 75.4357l-143.40158 75.43573z" fill-rule="evenodd"/><path fill="#000000" d="m159.05418 504.6296l-7.796875 0l0 -1.703125l7.796875 0l0 1.703125zm10.195572 -3.484375q0.328125 -0.3125 0.6875 -0.3125q0.390625 0 0.65625 0.296875q0.265625 0.28125 0.265625 0.9375l0 1.203125q0 0.671875 -0.265625 0.953125q-0.265625 0.28125 -0.671875 0.28125q-0.390625 0 -0.65625 -0.21875q-0.1875 -0.15625 -0.296875 -0.65625q-0.109375 -0.515625 -0.53125 -0.765625q-0.734375 -0.4375 -1.875 -0.4375q-1.328125 0 -2.125 0.78125q-0.796875 0.78125 -0.796875 1.953125q0 1.09375 0.765625 1.734375q0.765625 0.625 2.546875 0.625q1.15625 0 1.890625 -0.234375q0.4375 -0.140625 0.828125 -0.484375q0.40625 -0.359375 0.71875 -0.359375q0.375 0 0.65625 0.28125q0.28125 0.28125 0.28125 0.671875q0 0.609375 -0.84375 1.171875q-1.265625 0.828125 -3.6875 0.828125q-2.171875 0 -3.390625 -0.90625q-1.640625 -1.203125 -1.640625 -3.3125q0 -2.0 1.328125 -3.296875q1.34375 -1.3125 3.484375 -1.3125q0.765625 0 1.421875 0.15625q0.671875 0.140625 1.25 0.421875zm12.133072 -3.625l-5.984375 12.890625q-0.234375 0.484375 -0.421875 0.625q-0.234375 0.203125 -0.5625 0.203125q-0.390625 0 -0.671875 -0.28125q-0.265625 -0.265625 -0.265625 -0.625q0 -0.234375 0.21875 -0.71875l6.0 -12.890625q0.21875 -0.46875 0.390625 -0.625q0.25 -0.1875 0.578125 -0.1875q0.390625 0 0.65625 0.265625q0.28125 0.265625 0.28125 0.625q0 0.234375 -0.21875 0.71875zm9.023697 11.5625l0 -0.4375q-0.703125 0.375 -1.5625 0.5625q-0.84375 0.1875 -1.53125 0.1875q-1.5 0 -2.4375 -0.796875q-0.9375 -0.796875 -0.9375 -1.765625q0 -1.171875 1.1875 -2.171875q1.203125 -1.015625 3.3125 -1.015625q0.859375 0 1.96875 0.1875l0 -0.453125q0 -0.421875 -0.359375 -0.6875q-0.359375 -0.265625 -1.375 -0.265625q-0.828125 0 -2.15625 0.328125q-0.484375 0.125 -0.765625 0.125q-0.359375 0 -0.625 -0.265625q-0.265625 -0.265625 -0.265625 -0.6875q0 -0.234375 0.09375 -0.40625q0.09375 -0.1875 0.25 -0.28125q0.171875 -0.109375 0.6875 -0.25q0.703125 -0.203125 1.421875 -0.3125q0.71875 -0.109375 1.296875 -0.109375q1.734375 0 2.6875 0.75q0.96875 0.75 0.96875 2.046875l0 3.84375l0.328125 0q0.671875 0 0.953125 0.265625q0.296875 0.265625 0.296875 0.6875q0 0.40625 -0.296875 0.671875q-0.28125 0.25 -0.953125 0.25l-2.1875 0zm0 -3.34375q-1.125 -0.21875 -2.078125 -0.21875q-1.125 0 -1.953125 0.5625q-0.515625 0.34375 -0.515625 0.71875q0 0.265625 0.25 0.421875q0.453125 0.296875 1.25 0.296875q0.671875 0 1.515625 -0.265625q0.859375 -0.265625 1.53125 -0.71875l0 -0.796875zm24.703644 -2.796875l-7.96875 0q-0.671875 0 -0.96875 -0.25q-0.28125 -0.265625 -0.28125 -0.6875q0 -0.40625 0.28125 -0.65625q0.296875 -0.265625 0.96875 -0.265625l7.96875 0q0.6875 0 0.96875 0.265625q0.28125 0.25 0.28125 0.671875q0 0.40625 -0.28125 0.671875q-0.28125 0.25 -0.96875 0.25zm0 3.515625l-7.96875 0q-0.671875 0 -0.96875 -0.25q-0.28125 -0.265625 -0.28125 -0.671875q0 -0.421875 0.28125 -0.671875q0.296875 -0.265625 0.96875 -0.265625l7.96875 0q0.6875 0 0.96875 0.265625q0.28125 0.25 0.28125 0.671875q0 0.40625 -0.28125 0.671875q-0.28125 0.25 -0.96875 0.25zm11.195572 -3.515625l-7.96875 0q-0.671875 0 -0.96875 -0.25q-0.28125 -0.265625 -0.28125 -0.6875q0 -0.40625 0.28125 -0.65625q0.296875 -0.265625 0.96875 -0.265625l7.96875 0q0.6875 0 0.96875 0.265625q0.28125 0.25 0.28125 0.671875q0 0.40625 -0.28125 0.671875q-0.28125 0.25 -0.96875 0.25zm0 3.515625l-7.96875 0q-0.671875 0 -0.96875 -0.25q-0.28125 -0.265625 -0.28125 -0.671875q0 -0.421875 0.28125 -0.671875q0.296875 -0.265625 0.96875 -0.265625l7.96875 0q0.6875 0 0.96875 0.265625q0.28125 0.25 0.28125 0.671875q0 0.40625 -0.28125 0.671875q-0.28125 0.25 -0.96875 0.25zm22.469269 -4.3125l0 2.0625q0 1.8125 -1.0625 3.484375q-1.046875 1.65625 -3.0 1.65625q-1.125 0 -1.90625 -0.484375q-0.78125 -0.5 -1.484375 -1.828125q-0.6875 -1.34375 -0.6875 -2.828125l0 -2.0625q0 -1.8125 1.046875 -3.484375q1.046875 -1.671875 3.0 -1.671875q1.125 0 1.90625 0.5q0.78125 0.484375 1.484375 1.828125q0.703125 1.328125 0.703125 2.828125zm-1.875 0q0 -1.515625 -0.84375 -2.65625q-0.484375 -0.625 -1.359375 -0.625q-0.84375 0 -1.390625 0.6875q-0.8125 1.046875 -0.8125 2.59375l0 2.0625q0 1.515625 0.859375 2.65625q0.484375 0.625 1.359375 0.625q0.84375 0 1.375 -0.6875q0.8125 -1.046875 0.8125 -2.59375l0 -2.0625z" fill-rule="nonzero"/><path fill="#cfe2f3" d="m431.021 466.31104l164.31494 0l0 71.70343l-164.31494 0z" fill-rule="evenodd"/><path stroke="#000000" stroke-width="1.0" stroke-linejoin="round" stroke-linecap="butt" d="m431.021 466.31104l164.31494 0l0 71.70343l-164.31494 0z" fill-rule="evenodd"/><path fill="#000000" d="m446.11475 499.0046l0 9.296875l2.015625 0q0.28125 0 0.390625 0.109375q0.125 0.109375 0.125 0.28125q0 0.171875 -0.125 0.28125q-0.109375 0.109375 -0.390625 0.109375l-4.828125 0q-0.28125 0 -0.40625 -0.109375q-0.125 -0.109375 -0.125 -0.28125q0 -0.171875 0.125 -0.28125q0.125 -0.109375 0.40625 -0.109375l2.015625 0l0 -9.296875l-3.1875 0l0 2.703125q0 0.28125 -0.109375 0.40625q-0.109375 0.125 -0.28125 0.125q-0.171875 0 -0.28125 -0.125q-0.109375 -0.125 -0.109375 -0.40625l0 -3.484375l8.734375 0l0 3.484375q0 0.28125 -0.109375 0.40625q-0.109375 0.125 -0.28125 0.125q-0.1875 0 -0.296875 -0.125q-0.09375 -0.125 -0.09375 -0.40625l0 -2.703125l-3.1875 0zm13.683105 10.078125l0 -1.140625q-1.609375 1.453125 -3.453125 1.453125q-1.140625 0 -1.734375 -0.625q-0.78125 -0.8125 -0.78125 -1.90625l0 -5.03125l-1.046875 0q-0.28125 0 -0.40625 -0.109375q-0.109375 -0.109375 -0.109375 -0.28125q0 -0.171875 0.109375 -0.28125q0.125 -0.109375 0.40625 -0.109375l1.828125 0l0 5.8125q0 0.765625 0.484375 1.265625q0.484375 0.484375 1.203125 0.484375q1.90625 0 3.5 -1.75l0 -5.03125l-1.4375 0q-0.28125 0 -0.40625 -0.109375q-0.125 -0.109375 -0.125 -0.28125q0 -0.171875 0.125 -0.28125q0.125 -0.109375 0.40625 -0.109375l2.203125 0l0 7.25l0.671875 0q0.265625 0 0.390625 0.109375q0.125 0.109375 0.125 0.28125q0 0.171875 -0.125 0.28125q-0.125 0.109375 -0.390625 0.109375l-1.4375 0zm9.120605 -11.640625l0 10.859375l3.0625 0q0.28125 0 0.40625 0.109375q0.125 0.109375 0.125 0.28125q0 0.171875 -0.125 0.28125q-0.125 0.109375 -0.40625 0.109375l-6.90625 0q-0.28125 0 -0.40625 -0.109375q-0.109375 -0.109375 -0.109375 -0.28125q0 -0.171875 0.109375 -0.28125q0.125 -0.109375 0.40625 -0.109375l3.0625 0l0 -10.078125l-2.234375 0q-0.28125 0 -0.40625 -0.109375q-0.125 -0.109375 -0.125 -0.28125q0 -0.171875 0.109375 -0.28125q0.125 -0.109375 0.421875 -0.109375l3.015625 0zm15.370605 7.640625q0 1.78125 -1.28125 3.046875q-1.28125 1.265625 -3.078125 1.265625q-1.8125 0 -3.09375 -1.265625q-1.265625 -1.28125 -1.265625 -3.046875q0 -1.78125 1.265625 -3.046875q1.28125 -1.265625 3.09375 -1.265625q1.796875 0 3.078125 1.265625q1.28125 1.25 1.28125 3.046875zm-0.796875 0q0 -1.46875 -1.046875 -2.5q-1.03125 -1.03125 -2.515625 -1.03125q-1.484375 0 -2.53125 1.046875q-1.046875 1.03125 -1.046875 2.484375q0 1.453125 1.046875 2.5q1.046875 1.03125 2.53125 1.03125q1.484375 0 2.515625 -1.03125q1.046875 -1.046875 1.046875 -2.5zm10.41748 -3.53125q0 -0.265625 0.109375 -0.375q0.109375 -0.125 0.28125 -0.125q0.171875 0 0.28125 0.125q0.109375 0.109375 0.109375 0.40625l0 1.328125q0 0.28125 -0.109375 0.40625q-0.109375 0.109375 -0.28125 0.109375q-0.171875 0 -0.28125 -0.09375q-0.09375 -0.109375 -0.109375 -0.34375q-0.0625 -0.546875 -0.578125 -0.90625q-0.765625 -0.53125 -2.015625 -0.53125q-1.3125 0 -2.03125 0.53125q-0.546875 0.40625 -0.546875 0.890625q0 0.5625 0.640625 0.9375q0.453125 0.25 1.703125 0.390625q1.609375 0.171875 2.25 0.40625q0.890625 0.328125 1.328125 0.90625q0.453125 0.5625 0.453125 1.234375q0 0.984375 -0.953125 1.765625q-0.953125 0.78125 -2.8125 0.78125q-1.84375 0 -3.015625 -0.9375q0 0.3125 -0.046875 0.40625q-0.03125 0.09375 -0.125 0.15625q-0.09375 0.0625 -0.21875 0.0625q-0.171875 0 -0.28125 -0.109375q-0.109375 -0.125 -0.109375 -0.40625l0 -1.609375q0 -0.28125 0.109375 -0.390625q0.109375 -0.125 0.28125 -0.125q0.171875 0 0.28125 0.125q0.109375 0.109375 0.109375 0.296875q0 0.421875 0.21875 0.71875q0.328125 0.4375 1.03125 0.734375q0.71875 0.296875 1.75 0.296875q1.515625 0 2.25 -0.5625q0.75 -0.578125 0.75 -1.203125q0 -0.71875 -0.75 -1.15625q-0.765625 -0.4375 -2.21875 -0.578125q-1.453125 -0.15625 -2.078125 -0.390625q-0.625 -0.25 -0.984375 -0.734375q-0.359375 -0.484375 -0.359375 -1.03125q0 -1.015625 0.984375 -1.59375q0.984375 -0.59375 2.359375 -0.59375q1.609375 0 2.625 0.78125zm7.2143555 -0.5l4.234375 0q0.28125 0 0.390625 0.109375q0.125 0.109375 0.125 0.28125q0 0.171875 -0.125 0.28125q-0.109375 0.109375 -0.390625 0.109375l-4.234375 0l0 5.1875q0 0.6875 0.546875 1.140625q0.546875 0.453125 1.59375 0.453125q0.78125 0 1.703125 -0.234375q0.921875 -0.25 1.4375 -0.546875q0.1875 -0.109375 0.296875 -0.109375q0.15625 0 0.265625 0.125q0.109375 0.109375 0.109375 0.265625q0 0.140625 -0.125 0.25q-0.296875 0.3125 -1.4375 0.671875q-1.140625 0.359375 -2.1875 0.359375q-1.375 0 -2.1875 -0.640625q-0.796875 -0.640625 -0.796875 -1.734375l0 -5.1875l-1.4375 0q-0.28125 0 -0.40625 -0.109375q-0.109375 -0.109375 -0.109375 -0.28125q0 -0.171875 0.109375 -0.28125q0.125 -0.109375 0.40625 -0.109375l1.4375 0l0 -2.296875q0 -0.28125 0.109375 -0.40625q0.109375 -0.125 0.28125 -0.125q0.171875 0 0.28125 0.125q0.109375 0.125 0.109375 0.40625l0 2.296875zm17.22998 4.203125l-7.953125 0q0.21875 1.515625 1.28125 2.4375q1.0625 0.921875 2.625 0.921875q0.875 0 1.828125 -0.28125q0.953125 -0.296875 1.5625 -0.765625q0.171875 -0.140625 0.296875 -0.140625q0.15625 0 0.265625 0.125q0.109375 0.109375 0.109375 0.265625q0 0.15625 -0.15625 0.296875q-0.4375 0.46875 -1.578125 0.875q-1.140625 0.40625 -2.328125 0.40625q-2.0 0 -3.34375 -1.3125q-1.34375 -1.3125 -1.34375 -3.1875q0 -1.6875 1.25 -2.90625q1.265625 -1.21875 3.125 -1.21875q1.90625 0 3.140625 1.25q1.234375 1.25 1.21875 3.234375zm-0.796875 -0.796875q-0.234375 -1.28125 -1.21875 -2.09375q-0.984375 -0.8125 -2.34375 -0.8125q-1.375 0 -2.359375 0.8125q-0.96875 0.796875 -1.21875 2.09375l7.140625 0zm7.8081055 -3.40625l0.34375 0q0.515625 0 0.890625 0.375q0.375 0.359375 0.375 0.875q0 0.546875 -0.375 0.90625q-0.375 0.359375 -0.890625 0.359375l-0.34375 0q-0.515625 0 -0.890625 -0.359375q-0.359375 -0.375 -0.359375 -0.890625q0 -0.546875 0.375 -0.90625q0.375 -0.359375 0.875 -0.359375zm0 5.796875l0.34375 0q0.515625 0 0.890625 0.375q0.375 0.359375 0.375 0.875q0 0.53125 -0.375 0.90625q-0.375 0.359375 -0.890625 0.359375l-0.34375 0q-0.515625 0 -0.890625 -0.359375q-0.359375 -0.375 -0.359375 -0.890625q0 -0.546875 0.375 -0.90625q0.375 -0.359375 0.875 -0.359375z" fill-rule="nonzero"/><path fill="#000000" d="m549.6377 504.78586l2.828125 2.421875q0.515625 0.03125 0.765625 0.296875q0.25 0.25 0.25 0.65625q0 0.40625 -0.28125 0.671875q-0.28125 0.25 -0.96875 0.25l-2.109375 0q-0.671875 0 -0.96875 -0.25q-0.28125 -0.265625 -0.28125 -0.703125q0 -0.328125 0.203125 -0.578125q0.203125 -0.25 0.5625 -0.34375l-1.390625 -1.1875l-1.421875 1.1875q0.421875 0.109375 0.609375 0.34375q0.1875 0.234375 0.1875 0.578125q0 0.4375 -0.28125 0.703125q-0.28125 0.25 -0.953125 0.25l-2.109375 0q-0.671875 0 -0.96875 -0.25q-0.28125 -0.265625 -0.28125 -0.6875q0 -0.390625 0.25 -0.640625q0.265625 -0.265625 0.765625 -0.296875l2.78125 -2.4375l-2.453125 -2.09375q-0.484375 -0.03125 -0.734375 -0.28125q-0.25 -0.265625 -0.25 -0.65625q0 -0.40625 0.28125 -0.65625q0.296875 -0.265625 0.96875 -0.265625l1.75 0q0.671875 0 0.953125 0.265625q0.28125 0.25 0.28125 0.65625q0 0.53125 -0.5 0.859375l1.125 0.953125l1.109375 -0.96875q-0.5 -0.34375 -0.5 -0.8125q0 -0.4375 0.28125 -0.6875q0.296875 -0.265625 0.96875 -0.265625l1.734375 0q0.671875 0 0.953125 0.265625q0.296875 0.25 0.296875 0.671875q0 0.375 -0.25 0.640625q-0.25 0.25 -0.75 0.28125l-2.453125 2.109375zm13.789307 -1.84375l-7.96875 0q-0.671875 0 -0.96875 -0.25q-0.28125 -0.265625 -0.28125 -0.6875q0 -0.40625 0.28125 -0.65625q0.296875 -0.265625 0.96875 -0.265625l7.96875 0q0.6875 0 0.96875 0.265625q0.28125 0.25 0.28125 0.671875q0 0.40625 -0.28125 0.671875q-0.28125 0.25 -0.96875 0.25zm0 3.515625l-7.96875 0q-0.671875 0 -0.96875 -0.25q-0.28125 -0.265625 -0.28125 -0.671875q0 -0.421875 0.28125 -0.671875q0.296875 -0.265625 0.96875 -0.265625l7.96875 0q0.6875 0 0.96875 0.265625q0.28125 0.25 0.28125 0.671875q0 0.40625 -0.28125 0.671875q-0.28125 0.25 -0.96875 0.25zm11.273743 -4.3125l0 2.0625q0 1.8125 -1.0625 3.484375q-1.046875 1.65625 -3.0 1.65625q-1.125 0 -1.90625 -0.484375q-0.78125 -0.5 -1.484375 -1.828125q-0.6875 -1.34375 -0.6875 -2.828125l0 -2.0625q0 -1.8125 1.046875 -3.484375q1.046875 -1.671875 3.0 -1.671875q1.125 0 1.90625 0.5q0.78125 0.484375 1.484375 1.828125q0.703125 1.328125 0.703125 2.828125zm-1.875 0q0 -1.515625 -0.84375 -2.65625q-0.484375 -0.625 -1.359375 -0.625q-0.84375 0 -1.390625 0.6875q-0.8125 1.046875 -0.8125 2.59375l0 2.0625q0 1.515625 0.859375 2.65625q0.484375 0.625 1.359375 0.625q0.84375 0 1.375 -0.6875q0.8125 -1.046875 0.8125 -2.59375l0 -2.0625z" fill-rule="nonzero"/><path fill="#cfe2f3" d="m423.6614 626.32806l179.03415 0l0 93.70868l-179.03415 0z" fill-rule="evenodd"/><path stroke="#000000" stroke-width="1.0" stroke-linejoin="round" stroke-linecap="butt" d="m423.6614 626.32806l179.03415 0l0 93.70868l-179.03415 0z" fill-rule="evenodd"/><path fill="#000000" d="m438.75516 637.0243l0 9.296875l2.015625 0q0.28125 0 0.390625 0.109375q0.125 0.109375 0.125 0.28125q0 0.171875 -0.125 0.28125q-0.109375 0.109375 -0.390625 0.109375l-4.828125 0q-0.28125 0 -0.40625 -0.109375q-0.125 -0.109375 -0.125 -0.28125q0 -0.171875 0.125 -0.28125q0.125 -0.109375 0.40625 -0.109375l2.015625 0l0 -9.296875l-3.1875 0l0 2.703125q0 0.28125 -0.109375 0.40625q-0.109375 0.125 -0.28125 0.125q-0.171875 0 -0.28125 -0.125q-0.109375 -0.125 -0.109375 -0.40625l0 -3.484375l8.734375 0l0 3.484375q0 0.28125 -0.109375 0.40625q-0.109375 0.125 -0.28125 0.125q-0.1875 0 -0.296875 -0.125q-0.09375 -0.125 -0.09375 -0.40625l0 -2.703125l-3.1875 0zm13.683105 10.078125l0 -1.140625q-1.609375 1.453125 -3.453125 1.453125q-1.140625 0 -1.734375 -0.625q-0.78125 -0.8125 -0.78125 -1.90625l0 -5.03125l-1.046875 0q-0.28125 0 -0.40625 -0.109375q-0.109375 -0.109375 -0.109375 -0.28125q0 -0.171875 0.109375 -0.28125q0.125 -0.109375 0.40625 -0.109375l1.828125 0l0 5.8125q0 0.765625 0.484375 1.265625q0.484375 0.484375 1.203125 0.484375q1.90625 0 3.5 -1.75l0 -5.03125l-1.4375 0q-0.28125 0 -0.40625 -0.109375q-0.125 -0.109375 -0.125 -0.28125q0 -0.171875 0.125 -0.28125q0.125 -0.109375 0.40625 -0.109375l2.203125 0l0 7.25l0.671875 0q0.265625 0 0.390625 0.109375q0.125 0.109375 0.125 0.28125q0 0.171875 -0.125 0.28125q-0.125 0.109375 -0.390625 0.109375l-1.4375 0zm9.120605 -11.640625l0 10.859375l3.0625 0q0.28125 0 0.40625 0.109375q0.125 0.109375 0.125 0.28125q0 0.171875 -0.125 0.28125q-0.125 0.109375 -0.40625 0.109375l-6.90625 0q-0.28125 0 -0.40625 -0.109375q-0.109375 -0.109375 -0.109375 -0.28125q0 -0.171875 0.109375 -0.28125q0.125 -0.109375 0.40625 -0.109375l3.0625 0l0 -10.078125l-2.234375 0q-0.28125 0 -0.40625 -0.109375q-0.125 -0.109375 -0.125 -0.28125q0 -0.171875 0.109375 -0.28125q0.125 -0.109375 0.421875 -0.109375l3.015625 0zm15.370605 7.640625q0 1.78125 -1.28125 3.046875q-1.28125 1.265625 -3.078125 1.265625q-1.8125 0 -3.09375 -1.265625q-1.265625 -1.28125 -1.265625 -3.046875q0 -1.78125 1.265625 -3.046875q1.28125 -1.265625 3.09375 -1.265625q1.796875 0 3.078125 1.265625q1.28125 1.25 1.28125 3.046875zm-0.796875 0q0 -1.46875 -1.046875 -2.5q-1.03125 -1.03125 -2.515625 -1.03125q-1.484375 0 -2.53125 1.046875q-1.046875 1.03125 -1.046875 2.484375q0 1.453125 1.046875 2.5q1.046875 1.03125 2.53125 1.03125q1.484375 0 2.515625 -1.03125q1.046875 -1.046875 1.046875 -2.5zm10.41748 -3.53125q0 -0.265625 0.109375 -0.375q0.109375 -0.125 0.28125 -0.125q0.171875 0 0.28125 0.125q0.109375 0.109375 0.109375 0.40625l0 1.328125q0 0.28125 -0.109375 0.40625q-0.109375 0.109375 -0.28125 0.109375q-0.171875 0 -0.28125 -0.09375q-0.09375 -0.109375 -0.109375 -0.34375q-0.0625 -0.546875 -0.578125 -0.90625q-0.765625 -0.53125 -2.015625 -0.53125q-1.3125 0 -2.03125 0.53125q-0.546875 0.40625 -0.546875 0.890625q0 0.5625 0.640625 0.9375q0.453125 0.25 1.703125 0.390625q1.609375 0.171875 2.25 0.40625q0.890625 0.328125 1.328125 0.90625q0.453125 0.5625 0.453125 1.234375q0 0.984375 -0.953125 1.765625q-0.953125 0.78125 -2.8125 0.78125q-1.84375 0 -3.015625 -0.9375q0 0.3125 -0.046875 0.40625q-0.03125 0.09375 -0.125 0.15625q-0.09375 0.0625 -0.21875 0.0625q-0.171875 0 -0.28125 -0.109375q-0.109375 -0.125 -0.109375 -0.40625l0 -1.609375q0 -0.28125 0.109375 -0.390625q0.109375 -0.125 0.28125 -0.125q0.171875 0 0.28125 0.125q0.109375 0.109375 0.109375 0.296875q0 0.421875 0.21875 0.71875q0.328125 0.4375 1.03125 0.734375q0.71875 0.296875 1.75 0.296875q1.515625 0 2.25 -0.5625q0.75 -0.578125 0.75 -1.203125q0 -0.71875 -0.75 -1.15625q-0.765625 -0.4375 -2.21875 -0.578125q-1.453125 -0.15625 -2.078125 -0.390625q-0.625 -0.25 -0.984375 -0.734375q-0.359375 -0.484375 -0.359375 -1.03125q0 -1.015625 0.984375 -1.59375q0.984375 -0.59375 2.359375 -0.59375q1.609375 0 2.625 0.78125zm7.2143555 -0.5l4.234375 0q0.28125 0 0.390625 0.109375q0.125 0.109375 0.125 0.28125q0 0.171875 -0.125 0.28125q-0.109375 0.109375 -0.390625 0.109375l-4.234375 0l0 5.1875q0 0.6875 0.546875 1.140625q0.546875 0.453125 1.59375 0.453125q0.78125 0 1.703125 -0.234375q0.921875 -0.25 1.4375 -0.546875q0.1875 -0.109375 0.296875 -0.109375q0.15625 0 0.265625 0.125q0.109375 0.109375 0.109375 0.265625q0 0.140625 -0.125 0.25q-0.296875 0.3125 -1.4375 0.671875q-1.140625 0.359375 -2.1875 0.359375q-1.375 0 -2.1875 -0.640625q-0.796875 -0.640625 -0.796875 -1.734375l0 -5.1875l-1.4375 0q-0.28125 0 -0.40625 -0.109375q-0.109375 -0.109375 -0.109375 -0.28125q0 -0.171875 0.109375 -0.28125q0.125 -0.109375 0.40625 -0.109375l1.4375 0l0 -2.296875q0 -0.28125 0.109375 -0.40625q0.109375 -0.125 0.28125 -0.125q0.171875 0 0.28125 0.125q0.109375 0.125 0.109375 0.40625l0 2.296875zm17.22998 4.203125l-7.953125 0q0.21875 1.515625 1.28125 2.4375q1.0625 0.921875 2.625 0.921875q0.875 0 1.828125 -0.28125q0.953125 -0.296875 1.5625 -0.765625q0.171875 -0.140625 0.296875 -0.140625q0.15625 0 0.265625 0.125q0.109375 0.109375 0.109375 0.265625q0 0.15625 -0.15625 0.296875q-0.4375 0.46875 -1.578125 0.875q-1.140625 0.40625 -2.328125 0.40625q-2.0 0 -3.34375 -1.3125q-1.34375 -1.3125 -1.34375 -3.1875q0 -1.6875 1.25 -2.90625q1.265625 -1.21875 3.125 -1.21875q1.90625 0 3.140625 1.25q1.234375 1.25 1.21875 3.234375zm-0.796875 -0.796875q-0.234375 -1.28125 -1.21875 -2.09375q-0.984375 -0.8125 -2.34375 -0.8125q-1.375 0 -2.359375 0.8125q-0.96875 0.796875 -1.21875 2.09375l7.140625 0zm7.808136 -3.40625l0.34375 0q0.515625 0 0.890625 0.375q0.375 0.359375 0.375 0.875q0 0.546875 -0.375 0.90625q-0.375 0.359375 -0.890625 0.359375l-0.34375 0q-0.515625 0 -0.890625 -0.359375q-0.359375 -0.375 -0.359375 -0.890625q0 -0.546875 0.375 -0.90625q0.375 -0.359375 0.875 -0.359375zm0 5.796875l0.34375 0q0.515625 0 0.890625 0.375q0.375 0.359375 0.375 0.875q0 0.53125 -0.375 0.90625q-0.375 0.359375 -0.890625 0.359375l-0.34375 0q-0.515625 0 -0.890625 -0.359375q-0.359375 -0.375 -0.359375 -0.890625q0 -0.546875 0.375 -0.90625q0.375 -0.359375 0.875 -0.359375z" fill-rule="nonzero"/><path fill="#000000" d="m439.6614 664.80554l2.828125 2.421875q0.515625 0.03125 0.765625 0.296875q0.25 0.25 0.25 0.65625q0 0.40625 -0.28125 0.671875q-0.28125 0.25 -0.96875 0.25l-2.109375 0q-0.671875 0 -0.96875 -0.25q-0.28125 -0.265625 -0.28125 -0.703125q0 -0.328125 0.203125 -0.578125q0.203125 -0.25 0.5625 -0.34375l-1.390625 -1.1875l-1.421875 1.1875q0.421875 0.109375 0.609375 0.34375q0.1875 0.234375 0.1875 0.578125q0 0.4375 -0.28125 0.703125q-0.28125 0.25 -0.953125 0.25l-2.109375 0q-0.671875 0 -0.96875 -0.25q-0.28125 -0.265625 -0.28125 -0.6875q0 -0.390625 0.25 -0.640625q0.265625 -0.265625 0.765625 -0.296875l2.78125 -2.4375l-2.453125 -2.09375q-0.484375 -0.03125 -0.734375 -0.28125q-0.25 -0.265625 -0.25 -0.65625q0 -0.40625 0.28125 -0.65625q0.296875 -0.265625 0.96875 -0.265625l1.75 0q0.671875 0 0.953125 0.265625q0.28125 0.25 0.28125 0.65625q0 0.53125 -0.5 0.859375l1.125 0.953125l1.109375 -0.96875q-0.5 -0.34375 -0.5 -0.8125q0 -0.4375 0.28125 -0.6875q0.296875 -0.265625 0.96875 -0.265625l1.734375 0q0.671875 0 0.953125 0.265625q0.296875 0.25 0.296875 0.671875q0 0.375 -0.25 0.640625q-0.25 0.25 -0.75 0.28125l-2.453125 2.109375zm13.789337 -1.84375l-7.96875 0q-0.671875 0 -0.96875 -0.25q-0.28125 -0.265625 -0.28125 -0.6875q0 -0.40625 0.28125 -0.65625q0.296875 -0.265625 0.96875 -0.265625l7.96875 0q0.6875 0 0.96875 0.265625q0.28125 0.25 0.28125 0.671875q0 0.40625 -0.28125 0.671875q-0.28125 0.25 -0.96875 0.25zm0 3.515625l-7.96875 0q-0.671875 0 -0.96875 -0.25q-0.28125 -0.265625 -0.28125 -0.671875q0 -0.421875 0.28125 -0.671875q0.296875 -0.265625 0.96875 -0.265625l7.96875 0q0.6875 0 0.96875 0.265625q0.28125 0.25 0.28125 0.671875q0 0.40625 -0.28125 0.671875q-0.28125 0.25 -0.96875 0.25zm11.117432 -1.828125l-7.796875 0l0 -1.703125l7.796875 0l0 1.703125zm9.289337 -1.625q-0.453125 -0.296875 -0.953125 -0.4375q-0.5 -0.140625 -1.046875 -0.140625q-1.078125 0 -1.71875 0.359375q-0.28125 0.15625 -0.28125 0.34375q0 0.203125 0.375 0.40625q0.296875 0.140625 1.3125 0.28125q1.859375 0.25 2.578125 0.515625q0.96875 0.328125 1.484375 1.0q0.515625 0.65625 0.515625 1.40625q0 1.0 -0.890625 1.671875q-1.265625 0.96875 -3.28125 0.96875q-0.8125 0 -1.5 -0.140625q-0.6875 -0.140625 -1.265625 -0.40625q-0.125 0.109375 -0.28125 0.171875q-0.15625 0.0625 -0.328125 0.0625q-0.4375 0 -0.703125 -0.28125q-0.25 -0.28125 -0.25 -0.953125l0 -0.640625q0 -0.671875 0.25 -0.953125q0.265625 -0.296875 0.6875 -0.296875q0.34375 0 0.5625 0.1875q0.234375 0.1875 0.359375 0.640625q0.421875 0.375 1.015625 0.5625q0.609375 0.1875 1.390625 0.1875q1.296875 0 2.0 -0.40625q0.34375 -0.203125 0.34375 -0.421875q0 -0.359375 -0.484375 -0.59375q-0.484375 -0.234375 -2.0 -0.40625q-2.25 -0.234375 -3.0 -0.90625q-0.765625 -0.671875 -0.765625 -1.640625q0 -1.0 0.859375 -1.671875q1.140625 -0.90625 3.0 -0.90625q0.640625 0 1.234375 0.125q0.609375 0.125 1.15625 0.375q0.171875 -0.125 0.3125 -0.1875q0.15625 -0.0625 0.28125 -0.0625q0.390625 0 0.640625 0.28125q0.25 0.28125 0.25 0.96875l0 0.453125q0 0.609375 -0.140625 0.828125q-0.296875 0.421875 -0.796875 0.421875q-0.328125 0 -0.59375 -0.203125q-0.25 -0.21875 -0.328125 -0.5625zm13.508057 -0.328125l0 8.4375l0.328125 0q0.671875 0 0.953125 0.25q0.296875 0.265625 0.296875 0.6875q0 0.40625 -0.28125 0.671875q-0.28125 0.265625 -0.96875 0.265625l-3.296875 0q-0.671875 0 -0.96875 -0.265625q-0.28125 -0.265625 -0.28125 -0.671875q0 -0.421875 0.28125 -0.6875q0.296875 -0.25 0.96875 -0.25l1.109375 0l0 -3.0625q-0.6875 0.421875 -1.390625 0.640625q-0.703125 0.203125 -1.421875 0.203125q-1.671875 0 -3.0 -1.0q-1.59375 -1.203125 -1.59375 -3.0625q0 -1.671875 1.34375 -2.96875q1.359375 -1.296875 3.28125 -1.296875q0.734375 0 1.421875 0.21875q0.703125 0.21875 1.359375 0.65625l0 -0.625l2.1875 0q0.671875 0 0.953125 0.265625q0.296875 0.25 0.296875 0.671875q0 0.40625 -0.28125 0.671875q-0.28125 0.25 -0.96875 0.25l-0.328125 0zm-1.859375 2.171875q0 -0.390625 -0.3125 -1.0q-0.3125 -0.609375 -0.953125 -1.015625q-0.640625 -0.40625 -1.5 -0.40625q-1.40625 0 -2.21875 1.046875q-0.5625 0.734375 -0.5625 1.390625q0 0.75 0.796875 1.453125q0.8125 0.703125 1.984375 0.703125q1.1875 0 1.96875 -0.703125q0.796875 -0.703125 0.796875 -1.46875zm8.336212 -4.03125l0 1.15625q1.1875 -0.84375 1.859375 -1.125q0.6875 -0.28125 1.265625 -0.28125q0.921875 0 1.78125 0.671875q0.578125 0.453125 0.578125 0.921875q0 0.40625 -0.28125 0.6875q-0.28125 0.28125 -0.671875 0.28125q-0.34375 0 -0.734375 -0.34375q-0.375 -0.359375 -0.671875 -0.359375q-0.390625 0 -1.171875 0.5q-0.78125 0.484375 -1.953125 1.46875l0 2.8125l2.671875 0q0.671875 0 0.953125 0.265625q0.296875 0.265625 0.296875 0.6875q0 0.40625 -0.296875 0.671875q-0.28125 0.25 -0.953125 0.25l-5.640625 0q-0.671875 0 -0.96875 -0.25q-0.28125 -0.265625 -0.28125 -0.6875q0 -0.40625 0.28125 -0.671875q0.296875 -0.265625 0.96875 -0.265625l1.109375 0l0 -4.53125l-0.671875 0q-0.671875 0 -0.96875 -0.25q-0.28125 -0.265625 -0.28125 -0.6875q0 -0.40625 0.28125 -0.65625q0.296875 -0.265625 0.96875 -0.265625l2.53125 0zm11.133057 1.859375l0 3.75q0 0.59375 0.25 0.78125q0.375 0.3125 1.359375 0.3125q1.4375 0 2.640625 -0.609375q0.46875 -0.234375 0.734375 -0.234375q0.359375 0 0.625 0.265625q0.265625 0.265625 0.265625 0.671875q0 0.359375 -0.28125 0.625q-0.453125 0.421875 -1.765625 0.78125q-1.3125 0.359375 -2.21875 0.359375q-1.734375 0 -2.609375 -0.75q-0.875 -0.75 -0.875 -1.84375l0 -4.109375l-0.671875 0q-0.671875 0 -0.96875 -0.25q-0.28125 -0.265625 -0.28125 -0.6875q0 -0.40625 0.28125 -0.65625q0.296875 -0.265625 0.96875 -0.265625l0.671875 0l0 -1.6875q0 -0.671875 0.265625 -0.953125q0.265625 -0.296875 0.671875 -0.296875q0.421875 0 0.671875 0.296875q0.265625 0.28125 0.265625 0.953125l0 1.6875l3.453125 0q0.671875 0 0.953125 0.265625q0.296875 0.25 0.296875 0.671875q0 0.40625 -0.296875 0.671875q-0.28125 0.25 -0.953125 0.25l-3.453125 0zm10.976807 1.875q0 -1.59375 0.53125 -3.234375q0.390625 -1.203125 1.21875 -2.671875q0.59375 -1.0625 0.875 -1.296875q0.28125 -0.25 0.625 -0.25q0.40625 0 0.671875 0.28125q0.28125 0.265625 0.28125 0.65625q0 0.265625 -0.21875 0.625q-0.984375 1.609375 -1.4375 3.03125q-0.453125 1.40625 -0.453125 2.859375q0 1.453125 0.453125 2.875q0.453125 1.40625 1.4375 3.015625q0.21875 0.359375 0.21875 0.625q0 0.390625 -0.28125 0.65625q-0.265625 0.28125 -0.671875 0.28125q-0.34375 0 -0.59375 -0.21875q-0.359375 -0.328125 -0.96875 -1.4375q-0.859375 -1.609375 -1.1875 -2.65625q-0.5 -1.609375 -0.5 -3.140625zm15.789368 0.078125l-7.796875 0l0 -1.703125l7.796875 0l0 1.703125zm10.195557 -3.484375q0.328125 -0.3125 0.6875 -0.3125q0.390625 0 0.65625 0.296875q0.265625 0.28125 0.265625 0.9375l0 1.203125q0 0.671875 -0.265625 0.953125q-0.265625 0.28125 -0.671875 0.28125q-0.390625 0 -0.65625 -0.21875q-0.1875 -0.15625 -0.296875 -0.65625q-0.109375 -0.515625 -0.53125 -0.765625q-0.734375 -0.4375 -1.875 -0.4375q-1.328125 0 -2.125 0.78125q-0.796875 0.78125 -0.796875 1.953125q0 1.09375 0.765625 1.734375q0.765625 0.625 2.546875 0.625q1.15625 0 1.890625 -0.234375q0.4375 -0.140625 0.828125 -0.484375q0.40625 -0.359375 0.71875 -0.359375q0.375 0 0.65625 0.28125q0.28125 0.28125 0.28125 0.671875q0 0.609375 -0.84375 1.171875q-1.265625 0.828125 -3.6875 0.828125q-2.171875 0 -3.390625 -0.90625q-1.640625 -1.203125 -1.640625 -3.3125q0 -2.0 1.328125 -3.296875q1.34375 -1.3125 3.484375 -1.3125q0.765625 0 1.421875 0.15625q0.671875 0.140625 1.25 0.421875zm12.133057 -3.625l-5.984375 12.890625q-0.234375 0.484375 -0.421875 0.625q-0.234375 0.203125 -0.5625 0.203125q-0.390625 0 -0.671875 -0.28125q-0.265625 -0.265625 -0.265625 -0.625q0 -0.234375 0.21875 -0.71875l6.0 -12.890625q0.21875 -0.46875 0.390625 -0.625q0.25 -0.1875 0.578125 -0.1875q0.390625 0 0.65625 0.265625q0.28125 0.265625 0.28125 0.625q0 0.234375 -0.21875 0.71875zm9.023682 11.5625l0 -0.4375q-0.703125 0.375 -1.5625 0.5625q-0.84375 0.1875 -1.53125 0.1875q-1.5 0 -2.4375 -0.796875q-0.9375 -0.796875 -0.9375 -1.765625q0 -1.171875 1.1875 -2.171875q1.203125 -1.015625 3.3125 -1.015625q0.859375 0 1.96875 0.1875l0 -0.453125q0 -0.421875 -0.359375 -0.6875q-0.359375 -0.265625 -1.375 -0.265625q-0.828125 0 -2.15625 0.328125q-0.484375 0.125 -0.765625 0.125q-0.359375 0 -0.625 -0.265625q-0.265625 -0.265625 -0.265625 -0.6875q0 -0.234375 0.09375 -0.40625q0.09375 -0.1875 0.25 -0.28125q0.171875 -0.109375 0.6875 -0.25q0.703125 -0.203125 1.421875 -0.3125q0.71875 -0.109375 1.296875 -0.109375q1.734375 0 2.6875 0.75q0.96875 0.75 0.96875 2.046875l0 3.84375l0.328125 0q0.671875 0 0.953125 0.265625q0.296875 0.265625 0.296875 0.6875q0 0.40625 -0.296875 0.671875q-0.28125 0.25 -0.953125 0.25l-2.1875 0zm0 -3.34375q-1.125 -0.21875 -2.078125 -0.21875q-1.125 0 -1.953125 0.5625q-0.515625 0.34375 -0.515625 0.71875q0 0.265625 0.25 0.421875q0.453125 0.296875 1.25 0.296875q0.671875 0 1.515625 -0.265625q0.859375 -0.265625 1.53125 -0.71875l0 -0.796875zm10.304993 -1.1875q0 1.59375 -0.53125 3.234375q-0.390625 1.203125 -1.203125 2.65625q-0.59375 1.0625 -0.875 1.3125q-0.28125 0.25 -0.625 0.25q-0.40625 0 -0.6875 -0.28125q-0.265625 -0.265625 -0.265625 -0.65625q0 -0.265625 0.21875 -0.625q0.984375 -1.609375 1.4375 -3.015625q0.453125 -1.421875 0.453125 -2.875q0 -1.453125 -0.453125 -2.859375q-0.453125 -1.421875 -1.4375 -3.03125q-0.21875 -0.359375 -0.21875 -0.625q0 -0.390625 0.265625 -0.65625q0.28125 -0.28125 0.6875 -0.28125q0.328125 0 0.59375 0.21875q0.359375 0.3125 0.953125 1.4375q0.875 1.609375 1.1875 2.65625q0.5 1.609375 0.5 3.140625z" fill-rule="nonzero"/><path fill="#000000" d="m436.75516 683.07117l4.234375 0q0.28125 0 0.390625 0.109375q0.125 0.109375 0.125 0.28125q0 0.171875 -0.125 0.28125q-0.109375 0.109375 -0.390625 0.109375l-4.234375 0l0 5.1875q0 0.6875 0.546875 1.140625q0.546875 0.453125 1.59375 0.453125q0.78125 0 1.703125 -0.234375q0.921875 -0.25 1.4375 -0.546875q0.1875 -0.109375 0.296875 -0.109375q0.15625 0 0.265625 0.125q0.109375 0.109375 0.109375 0.265625q0 0.140625 -0.125 0.25q-0.296875 0.3125 -1.4375 0.671875q-1.140625 0.359375 -2.1875 0.359375q-1.375 0 -2.1875 -0.640625q-0.796875 -0.640625 -0.796875 -1.734375l0 -5.1875l-1.4375 0q-0.28125 0 -0.40625 -0.109375q-0.109375 -0.109375 -0.109375 -0.28125q0 -0.171875 0.109375 -0.28125q0.125 -0.109375 0.40625 -0.109375l1.4375 0l0 -2.296875q0 -0.28125 0.109375 -0.40625q0.109375 -0.125 0.28125 -0.125q0.171875 0 0.28125 0.125q0.109375 0.125 0.109375 0.40625l0 2.296875zm15.245605 8.03125l0 -1.125q-1.6875 1.4375 -3.625 1.4375q-1.40625 0 -2.1875 -0.703125q-0.78125 -0.71875 -0.78125 -1.75q0 -1.140625 1.03125 -1.984375q1.046875 -0.84375 3.03125 -0.84375q0.546875 0 1.171875 0.078125q0.625 0.0625 1.359375 0.21875l0 -1.265625q0 -0.640625 -0.59375 -1.109375q-0.59375 -0.484375 -1.78125 -0.484375q-0.90625 0 -2.546875 0.53125q-0.296875 0.09375 -0.375 0.09375q-0.15625 0 -0.265625 -0.109375q-0.109375 -0.109375 -0.109375 -0.28125q0 -0.15625 0.09375 -0.25q0.140625 -0.140625 1.0625 -0.375q1.4375 -0.390625 2.1875 -0.390625q1.46875 0 2.296875 0.734375q0.828125 0.71875 0.828125 1.640625l0 5.15625l1.03125 0q0.296875 0 0.40625 0.109375q0.125 0.109375 0.125 0.28125q0 0.171875 -0.125 0.28125q-0.109375 0.109375 -0.40625 0.109375l-1.828125 0zm0 -3.875q-0.546875 -0.15625 -1.15625 -0.234375q-0.609375 -0.078125 -1.28125 -0.078125q-1.703125 0 -2.65625 0.734375q-0.734375 0.546875 -0.734375 1.3125q0 0.703125 0.546875 1.1875q0.5625 0.484375 1.625 0.484375q1.0 0 1.859375 -0.40625q0.875 -0.40625 1.796875 -1.28125l0 -1.71875zm9.558105 -8.15625l0 2.015625l-1.15625 0l0 -2.015625l1.15625 0zm0.015625 4.0l0 7.25l3.0625 0q0.296875 0 0.40625 0.109375q0.125 0.109375 0.125 0.28125q0 0.171875 -0.125 0.28125q-0.109375 0.109375 -0.40625 0.109375l-6.90625 0q-0.265625 0 -0.390625 -0.109375q-0.125 -0.109375 -0.125 -0.28125q0 -0.171875 0.125 -0.28125q0.125 -0.109375 0.390625 -0.109375l3.0625 0l0 -6.46875l-2.265625 0q-0.28125 0 -0.40625 -0.109375q-0.125 -0.109375 -0.125 -0.28125q0 -0.171875 0.125 -0.28125q0.125 -0.109375 0.40625 -0.109375l3.046875 0z" fill-rule="nonzero"/><path fill="#000000" d="m439.6614 708.80554l2.828125 2.421875q0.515625 0.03125 0.765625 0.296875q0.25 0.25 0.25 0.65625q0 0.40625 -0.28125 0.671875q-0.28125 0.25 -0.96875 0.25l-2.109375 0q-0.671875 0 -0.96875 -0.25q-0.28125 -0.265625 -0.28125 -0.703125q0 -0.328125 0.203125 -0.578125q0.203125 -0.25 0.5625 -0.34375l-1.390625 -1.1875l-1.421875 1.1875q0.421875 0.109375 0.609375 0.34375q0.1875 0.234375 0.1875 0.578125q0 0.4375 -0.28125 0.703125q-0.28125 0.25 -0.953125 0.25l-2.109375 0q-0.671875 0 -0.96875 -0.25q-0.28125 -0.265625 -0.28125 -0.6875q0 -0.390625 0.25 -0.640625q0.265625 -0.265625 0.765625 -0.296875l2.78125 -2.4375l-2.453125 -2.09375q-0.484375 -0.03125 -0.734375 -0.28125q-0.25 -0.265625 -0.25 -0.65625q0 -0.40625 0.28125 -0.65625q0.296875 -0.265625 0.96875 -0.265625l1.75 0q0.671875 0 0.953125 0.265625q0.28125 0.25 0.28125 0.65625q0 0.53125 -0.5 0.859375l1.125 0.953125l1.109375 -0.96875q-0.5 -0.34375 -0.5 -0.8125q0 -0.4375 0.28125 -0.6875q0.296875 -0.265625 0.96875 -0.265625l1.734375 0q0.671875 0 0.953125 0.265625q0.296875 0.25 0.296875 0.671875q0 0.375 -0.25 0.640625q-0.25 0.25 -0.75 0.28125l-2.453125 2.109375zm13.789337 -1.84375l-7.96875 0q-0.671875 0 -0.96875 -0.25q-0.28125 -0.265625 -0.28125 -0.6875q0 -0.40625 0.28125 -0.65625q0.296875 -0.265625 0.96875 -0.265625l7.96875 0q0.6875 0 0.96875 0.265625q0.28125 0.25 0.28125 0.671875q0 0.40625 -0.28125 0.671875q-0.28125 0.25 -0.96875 0.25zm0 3.515625l-7.96875 0q-0.671875 0 -0.96875 -0.25q-0.28125 -0.265625 -0.28125 -0.671875q0 -0.421875 0.28125 -0.671875q0.296875 -0.265625 0.96875 -0.265625l7.96875 0q0.6875 0 0.96875 0.265625q0.28125 0.25 0.28125 0.671875q0 0.40625 -0.28125 0.671875q-0.28125 0.25 -0.96875 0.25zm9.211182 -3.453125q-0.453125 -0.296875 -0.953125 -0.4375q-0.5 -0.140625 -1.046875 -0.140625q-1.078125 0 -1.71875 0.359375q-0.28125 0.15625 -0.28125 0.34375q0 0.203125 0.375 0.40625q0.296875 0.140625 1.3125 0.28125q1.859375 0.25 2.578125 0.515625q0.96875 0.328125 1.484375 1.0q0.515625 0.65625 0.515625 1.40625q0 1.0 -0.890625 1.671875q-1.265625 0.96875 -3.28125 0.96875q-0.8125 0 -1.5 -0.140625q-0.6875 -0.140625 -1.265625 -0.40625q-0.125 0.109375 -0.28125 0.171875q-0.15625 0.0625 -0.328125 0.0625q-0.4375 0 -0.703125 -0.28125q-0.25 -0.28125 -0.25 -0.953125l0 -0.640625q0 -0.671875 0.25 -0.953125q0.265625 -0.296875 0.6875 -0.296875q0.34375 0 0.5625 0.1875q0.234375 0.1875 0.359375 0.640625q0.421875 0.375 1.015625 0.5625q0.609375 0.1875 1.390625 0.1875q1.296875 0 2.0 -0.40625q0.34375 -0.203125 0.34375 -0.421875q0 -0.359375 -0.484375 -0.59375q-0.484375 -0.234375 -2.0 -0.40625q-2.25 -0.234375 -3.0 -0.90625q-0.765625 -0.671875 -0.765625 -1.640625q0 -1.0 0.859375 -1.671875q1.140625 -0.90625 3.0 -0.90625q0.640625 0 1.234375 0.125q0.609375 0.125 1.15625 0.375q0.171875 -0.125 0.3125 -0.1875q0.15625 -0.0625 0.28125 -0.0625q0.390625 0 0.640625 0.28125q0.25 0.28125 0.25 0.96875l0 0.453125q0 0.609375 -0.140625 0.828125q-0.296875 0.421875 -0.796875 0.421875q-0.328125 0 -0.59375 -0.203125q-0.25 -0.21875 -0.328125 -0.5625zm13.508087 -0.328125l0 8.4375l0.328125 0q0.671875 0 0.953125 0.25q0.296875 0.265625 0.296875 0.6875q0 0.40625 -0.28125 0.671875q-0.28125 0.265625 -0.96875 0.265625l-3.296875 0q-0.671875 0 -0.96875 -0.265625q-0.28125 -0.265625 -0.28125 -0.671875q0 -0.421875 0.28125 -0.6875q0.296875 -0.25 0.96875 -0.25l1.109375 0l0 -3.0625q-0.6875 0.421875 -1.390625 0.640625q-0.703125 0.203125 -1.421875 0.203125q-1.671875 0 -3.0 -1.0q-1.59375 -1.203125 -1.59375 -3.0625q0 -1.671875 1.34375 -2.96875q1.359375 -1.296875 3.28125 -1.296875q0.734375 0 1.421875 0.21875q0.703125 0.21875 1.359375 0.65625l0 -0.625l2.1875 0q0.671875 0 0.953125 0.265625q0.296875 0.25 0.296875 0.671875q0 0.40625 -0.28125 0.671875q-0.28125 0.25 -0.96875 0.25l-0.328125 0zm-1.859375 2.171875q0 -0.390625 -0.3125 -1.0q-0.3125 -0.609375 -0.953125 -1.015625q-0.640625 -0.40625 -1.5 -0.40625q-1.40625 0 -2.21875 1.046875q-0.5625 0.734375 -0.5625 1.390625q0 0.75 0.796875 1.453125q0.8125 0.703125 1.984375 0.703125q1.1875 0 1.96875 -0.703125q0.796875 -0.703125 0.796875 -1.46875zm8.336182 -4.03125l0 1.15625q1.1875 -0.84375 1.859375 -1.125q0.6875 -0.28125 1.265625 -0.28125q0.921875 0 1.78125 0.671875q0.578125 0.453125 0.578125 0.921875q0 0.40625 -0.28125 0.6875q-0.28125 0.28125 -0.671875 0.28125q-0.34375 0 -0.734375 -0.34375q-0.375 -0.359375 -0.671875 -0.359375q-0.390625 0 -1.171875 0.5q-0.78125 0.484375 -1.953125 1.46875l0 2.8125l2.671875 0q0.671875 0 0.953125 0.265625q0.296875 0.265625 0.296875 0.6875q0 0.40625 -0.296875 0.671875q-0.28125 0.25 -0.953125 0.25l-5.640625 0q-0.671875 0 -0.96875 -0.25q-0.28125 -0.265625 -0.28125 -0.6875q0 -0.40625 0.28125 -0.671875q0.296875 -0.265625 0.96875 -0.265625l1.109375 0l0 -4.53125l-0.671875 0q-0.671875 0 -0.96875 -0.25q-0.28125 -0.265625 -0.28125 -0.6875q0 -0.40625 0.28125 -0.65625q0.296875 -0.265625 0.96875 -0.265625l2.53125 0zm11.133087 1.859375l0 3.75q0 0.59375 0.25 0.78125q0.375 0.3125 1.359375 0.3125q1.4375 0 2.640625 -0.609375q0.46875 -0.234375 0.734375 -0.234375q0.359375 0 0.625 0.265625q0.265625 0.265625 0.265625 0.671875q0 0.359375 -0.28125 0.625q-0.453125 0.421875 -1.765625 0.78125q-1.3125 0.359375 -2.21875 0.359375q-1.734375 0 -2.609375 -0.75q-0.875 -0.75 -0.875 -1.84375l0 -4.109375l-0.671875 0q-0.671875 0 -0.96875 -0.25q-0.28125 -0.265625 -0.28125 -0.6875q0 -0.40625 0.28125 -0.65625q0.296875 -0.265625 0.96875 -0.265625l0.671875 0l0 -1.6875q0 -0.671875 0.265625 -0.953125q0.265625 -0.296875 0.671875 -0.296875q0.421875 0 0.671875 0.296875q0.265625 0.28125 0.265625 0.953125l0 1.6875l3.453125 0q0.671875 0 0.953125 0.265625q0.296875 0.25 0.296875 0.671875q0 0.40625 -0.296875 0.671875q-0.28125 0.25 -0.953125 0.25l-3.453125 0zm10.976807 1.875q0 -1.59375 0.53125 -3.234375q0.390625 -1.203125 1.21875 -2.671875q0.59375 -1.0625 0.875 -1.296875q0.28125 -0.25 0.625 -0.25q0.40625 0 0.671875 0.28125q0.28125 0.265625 0.28125 0.65625q0 0.265625 -0.21875 0.625q-0.984375 1.609375 -1.4375 3.03125q-0.453125 1.40625 -0.453125 2.859375q0 1.453125 0.453125 2.875q0.453125 1.40625 1.4375 3.015625q0.21875 0.359375 0.21875 0.625q0 0.390625 -0.28125 0.65625q-0.265625 0.28125 -0.671875 0.28125q-0.34375 0 -0.59375 -0.21875q-0.359375 -0.328125 -0.96875 -1.4375q-0.859375 -1.609375 -1.1875 -2.65625q-0.5 -1.609375 -0.5 -3.140625zm15.789307 0.078125l-7.796875 0l0 -1.703125l7.796875 0l0 1.703125zm10.195618 -3.484375q0.328125 -0.3125 0.6875 -0.3125q0.390625 0 0.65625 0.296875q0.265625 0.28125 0.265625 0.9375l0 1.203125q0 0.671875 -0.265625 0.953125q-0.265625 0.28125 -0.671875 0.28125q-0.390625 0 -0.65625 -0.21875q-0.1875 -0.15625 -0.296875 -0.65625q-0.109375 -0.515625 -0.53125 -0.765625q-0.734375 -0.4375 -1.875 -0.4375q-1.328125 0 -2.125 0.78125q-0.796875 0.78125 -0.796875 1.953125q0 1.09375 0.765625 1.734375q0.765625 0.625 2.546875 0.625q1.15625 0 1.890625 -0.234375q0.4375 -0.140625 0.828125 -0.484375q0.40625 -0.359375 0.71875 -0.359375q0.375 0 0.65625 0.28125q0.28125 0.28125 0.28125 0.671875q0 0.609375 -0.84375 1.171875q-1.265625 0.828125 -3.6875 0.828125q-2.171875 0 -3.390625 -0.90625q-1.640625 -1.203125 -1.640625 -3.3125q0 -2.0 1.328125 -3.296875q1.34375 -1.3125 3.484375 -1.3125q0.765625 0 1.421875 0.15625q0.671875 0.140625 1.25 0.421875zm12.133057 -3.625l-5.984375 12.890625q-0.234375 0.484375 -0.421875 0.625q-0.234375 0.203125 -0.5625 0.203125q-0.390625 0 -0.671875 -0.28125q-0.265625 -0.265625 -0.265625 -0.625q0 -0.234375 0.21875 -0.71875l6.0 -12.890625q0.21875 -0.46875 0.390625 -0.625q0.25 -0.1875 0.578125 -0.1875q0.390625 0 0.65625 0.265625q0.28125 0.265625 0.28125 0.625q0 0.234375 -0.21875 0.71875zm9.023682 11.5625l0 -0.4375q-0.703125 0.375 -1.5625 0.5625q-0.84375 0.1875 -1.53125 0.1875q-1.5 0 -2.4375 -0.796875q-0.9375 -0.796875 -0.9375 -1.765625q0 -1.171875 1.1875 -2.171875q1.203125 -1.015625 3.3125 -1.015625q0.859375 0 1.96875 0.1875l0 -0.453125q0 -0.421875 -0.359375 -0.6875q-0.359375 -0.265625 -1.375 -0.265625q-0.828125 0 -2.15625 0.328125q-0.484375 0.125 -0.765625 0.125q-0.359375 0 -0.625 -0.265625q-0.265625 -0.265625 -0.265625 -0.6875q0 -0.234375 0.09375 -0.40625q0.09375 -0.1875 0.25 -0.28125q0.171875 -0.109375 0.6875 -0.25q0.703125 -0.203125 1.421875 -0.3125q0.71875 -0.109375 1.296875 -0.109375q1.734375 0 2.6875 0.75q0.96875 0.75 0.96875 2.046875l0 3.84375l0.328125 0q0.671875 0 0.953125 0.265625q0.296875 0.265625 0.296875 0.6875q0 0.40625 -0.296875 0.671875q-0.28125 0.25 -0.953125 0.25l-2.1875 0zm0 -3.34375q-1.125 -0.21875 -2.078125 -0.21875q-1.125 0 -1.953125 0.5625q-0.515625 0.34375 -0.515625 0.71875q0 0.265625 0.25 0.421875q0.453125 0.296875 1.25 0.296875q0.671875 0 1.515625 -0.265625q0.859375 -0.265625 1.53125 -0.71875l0 -0.796875zm10.304932 -1.1875q0 1.59375 -0.53125 3.234375q-0.390625 1.203125 -1.203125 2.65625q-0.59375 1.0625 -0.875 1.3125q-0.28125 0.25 -0.625 0.25q-0.40625 0 -0.6875 -0.28125q-0.265625 -0.265625 -0.265625 -0.65625q0 -0.265625 0.21875 -0.625q0.984375 -1.609375 1.4375 -3.015625q0.453125 -1.421875 0.453125 -2.875q0 -1.453125 -0.453125 -2.859375q-0.453125 -1.421875 -1.4375 -3.03125q-0.21875 -0.359375 -0.21875 -0.625q0 -0.390625 0.265625 -0.65625q0.28125 -0.28125 0.6875 -0.28125q0.328125 0 0.59375 0.21875q0.359375 0.3125 0.953125 1.4375q0.875 1.609375 1.1875 2.65625q0.5 1.609375 0.5 3.140625z" fill-rule="nonzero"/><path fill="#000000" fill-opacity="0.0" d="m199.91864 87.632545l0 38.83465" fill-rule="evenodd"/><path stroke="#000000" stroke-width="1.0" stroke-linejoin="round" stroke-linecap="butt" d="m199.91864 87.632545l0 32.83465" fill-rule="evenodd"/><path fill="#000000" stroke="#000000" stroke-width="1.0" stroke-linecap="butt" d="m198.2669 120.46719l1.6517334 4.5380936l1.6517334 -4.5380936z" fill-rule="evenodd"/><path fill="#000000" fill-opacity="0.0" d="m199.91864 198.17586l0 38.83464" fill-rule="evenodd"/><path stroke="#000000" stroke-width="1.0" stroke-linejoin="round" stroke-linecap="butt" d="m199.91864 198.17586l0 32.83464" fill-rule="evenodd"/><path fill="#000000" stroke="#000000" stroke-width="1.0" stroke-linecap="butt" d="m198.2669 231.0105l1.6517334 4.538101l1.6517334 -4.538101z" fill-rule="evenodd"/><path fill="#000000" fill-opacity="0.0" d="m199.91864 387.88715l0 38.834625" fill-rule="evenodd"/><path stroke="#000000" stroke-width="1.0" stroke-linejoin="round" stroke-linecap="butt" d="m199.91864 387.88715l0 32.834625" fill-rule="evenodd"/><path fill="#000000" stroke="#000000" stroke-width="1.0" stroke-linecap="butt" d="m198.2669 420.72177l1.6517334 4.5381165l1.6517334 -4.5381165z" fill-rule="evenodd"/><path fill="#000000" fill-opacity="0.0" d="m343.32022 312.45145l87.71652 0" fill-rule="evenodd"/><path stroke="#000000" stroke-width="1.0" stroke-linejoin="round" stroke-linecap="butt" d="m343.32022 312.45145l81.71652 0" fill-rule="evenodd"/><path fill="#000000" stroke="#000000" stroke-width="1.0" stroke-linecap="butt" d="m425.03674 314.10318l4.538086 -1.6517334l-4.538086 -1.6517334z" fill-rule="evenodd"/><path fill="#000000" fill-opacity="0.0" d="m343.32022 502.16272l87.71652 0" fill-rule="evenodd"/><path stroke="#000000" stroke-width="1.0" stroke-linejoin="round" stroke-linecap="butt" d="m343.32022 502.16272l81.71652 0" fill-rule="evenodd"/><path fill="#000000" stroke="#000000" stroke-width="1.0" stroke-linecap="butt" d="m425.03674 503.81445l4.538086 -1.6517334l-4.538086 -1.6517334z" fill-rule="evenodd"/><path fill="#000000" fill-opacity="0.0" d="m199.91864 577.59845l0 95.590515l223.74802 0" fill-rule="evenodd"/><path stroke="#000000" stroke-width="1.0" stroke-linejoin="round" stroke-linecap="butt" d="m199.91864 577.59845l0 95.590515l217.74802 0" fill-rule="evenodd"/><path fill="#000000" stroke="#000000" stroke-width="1.0" stroke-linecap="butt" d="m417.66666 674.8407l4.5381165 -1.6517334l-4.5381165 -1.6517334z" fill-rule="evenodd"/><path fill="#000000" fill-opacity="0.0" d="m602.69556 673.18243l124.62988 0l0 -146.36224" fill-rule="evenodd"/><path stroke="#000000" stroke-width="1.0" stroke-linejoin="round" stroke-linecap="butt" d="m602.69556 673.18243l124.62988 0l0 -140.36224" fill-rule="evenodd"/><path fill="#000000" stroke="#000000" stroke-width="1.0" stroke-linecap="butt" d="m728.9772 532.8202l-1.6517334 -4.538086l-1.6517334 4.538086z" fill-rule="evenodd"/><path fill="#000000" fill-opacity="0.0" d="m595.33594 312.45145l132.0 0l0 165.07086" fill-rule="evenodd"/><path stroke="#000000" stroke-width="1.0" stroke-linejoin="round" stroke-linecap="butt" d="m595.33594 312.45145l132.0 0l0 159.07086" fill-rule="evenodd"/><path fill="#000000" stroke="#000000" stroke-width="1.0" stroke-linecap="butt" d="m725.6842 471.5223l1.6517334 4.538086l1.6517334 -4.538086z" fill-rule="evenodd"/><path fill="#000000" fill-opacity="0.0" d="m595.33594 502.16272l87.71655 0" fill-rule="evenodd"/><path stroke="#000000" stroke-width="1.0" stroke-linejoin="round" stroke-linecap="butt" d="m595.33594 502.16272l81.71655 0" fill-rule="evenodd"/><path fill="#000000" stroke="#000000" stroke-width="1.0" stroke-linecap="butt" d="m677.0525 503.81445l4.538086 -1.6517334l-4.538086 -1.6517334z" fill-rule="evenodd"/><path fill="#000000" fill-opacity="0.0" d="m343.32022 270.4357l87.71652 0l0 42.015747l-87.71652 0z" fill-rule="evenodd"/><path fill="#000000" d="m358.82022 288.1838l0 7.296875l1.265625 0q0.671875 0 0.953125 0.265625q0.296875 0.265625 0.296875 0.6875q0 0.40625 -0.296875 0.671875q-0.28125 0.25 -0.953125 0.25l-4.375 0q-0.671875 0 -0.96875 -0.25q-0.28125 -0.265625 -0.28125 -0.6875q0 -0.40625 0.28125 -0.671875q0.296875 -0.265625 0.96875 -0.265625l1.25 0l0 -7.296875l-2.03125 0l0 1.765625q0 0.671875 -0.265625 0.96875q-0.25 0.28125 -0.671875 0.28125q-0.40625 0 -0.671875 -0.28125q-0.25 -0.296875 -0.25 -0.96875l0 -3.640625l9.671875 0l0 3.640625q0 0.671875 -0.265625 0.96875q-0.25 0.28125 -0.671875 0.28125q-0.40625 0 -0.671875 -0.28125q-0.265625 -0.296875 -0.265625 -0.96875l0 -1.765625l-2.046875 0zm9.898682 0.90625l0 1.15625q1.1875 -0.84375 1.859375 -1.125q0.6875 -0.28125 1.265625 -0.28125q0.921875 0 1.78125 0.671875q0.578125 0.453125 0.578125 0.921875q0 0.40625 -0.28125 0.6875q-0.28125 0.28125 -0.671875 0.28125q-0.34375 0 -0.734375 -0.34375q-0.375 -0.359375 -0.671875 -0.359375q-0.390625 0 -1.171875 0.5q-0.78125 0.484375 -1.953125 1.46875l0 2.8125l2.671875 0q0.671875 0 0.953125 0.265625q0.296875 0.265625 0.296875 0.6875q0 0.40625 -0.296875 0.671875q-0.28125 0.25 -0.953125 0.25l-5.640625 0q-0.671875 0 -0.96875 -0.25q-0.28125 -0.265625 -0.28125 -0.6875q0 -0.40625 0.28125 -0.671875q0.296875 -0.265625 0.96875 -0.265625l1.109375 0l0 -4.53125l-0.671875 0q-0.671875 0 -0.96875 -0.25q-0.28125 -0.265625 -0.28125 -0.6875q0 -0.40625 0.28125 -0.65625q0.296875 -0.265625 0.96875 -0.265625l2.53125 0zm15.554962 0l0 6.390625q0.59375 0 0.875 0.265625q0.28125 0.265625 0.28125 0.6875q0 0.40625 -0.296875 0.671875q-0.28125 0.25 -0.953125 0.25l-1.765625 0l0 -0.421875q-0.8125 0.359375 -1.546875 0.53125q-0.71875 0.1875 -1.375 0.1875q-0.921875 0 -1.59375 -0.375q-0.671875 -0.390625 -1.0625 -1.078125q-0.28125 -0.5 -0.28125 -1.234375l0 -4.015625l-0.328125 0q-0.671875 0 -0.96875 -0.25q-0.28125 -0.265625 -0.28125 -0.6875q0 -0.40625 0.28125 -0.65625q0.296875 -0.265625 0.96875 -0.265625l2.1875 0l0 5.546875q0 0.59375 0.28125 0.875q0.296875 0.28125 0.890625 0.28125q0.5625 0 1.203125 -0.21875q0.65625 -0.234375 1.625 -0.8125l0 -3.8125l-0.6875 0q-0.671875 0 -0.953125 -0.25q-0.28125 -0.265625 -0.28125 -0.6875q0 -0.40625 0.28125 -0.65625q0.28125 -0.265625 0.953125 -0.265625l2.546875 0zm11.914307 5.078125l-7.65625 0q0.296875 0.734375 1.03125 1.1875q0.75 0.4375 2.015625 0.4375q1.03125 0 2.75 -0.453125q0.71875 -0.1875 0.984375 -0.1875q0.375 0 0.625 0.265625q0.265625 0.265625 0.265625 0.671875q0 0.359375 -0.28125 0.625q-0.359375 0.328125 -1.78125 0.640625q-1.40625 0.296875 -2.703125 0.296875q-2.25 0 -3.59375 -1.265625q-1.34375 -1.265625 -1.34375 -3.109375q0 -1.96875 1.453125 -3.203125q1.453125 -1.234375 3.359375 -1.234375q1.140625 0 2.078125 0.40625q0.953125 0.390625 1.421875 0.859375q0.65625 0.671875 1.09375 1.671875q0.28125 0.6875 0.28125 1.59375l0 0.796875zm-2.0625 -1.875q-0.4375 -0.796875 -1.125 -1.1875q-0.6875 -0.40625 -1.640625 -0.40625q-0.953125 0 -1.65625 0.40625q-0.6875 0.390625 -1.125 1.1875l5.546875 0z" fill-rule="nonzero"/><path fill="#000000" fill-opacity="0.0" d="m343.32022 461.7349l87.71652 0l0 42.015778l-87.71652 0z" fill-rule="evenodd"/><path fill="#000000" d="m358.82022 479.48303l0 7.296875l1.265625 0q0.671875 0 0.953125 0.265625q0.296875 0.265625 0.296875 0.6875q0 0.40625 -0.296875 0.671875q-0.28125 0.25 -0.953125 0.25l-4.375 0q-0.671875 0 -0.96875 -0.25q-0.28125 -0.265625 -0.28125 -0.6875q0 -0.40625 0.28125 -0.671875q0.296875 -0.265625 0.96875 -0.265625l1.25 0l0 -7.296875l-2.03125 0l0 1.765625q0 0.671875 -0.265625 0.96875q-0.25 0.28125 -0.671875 0.28125q-0.40625 0 -0.671875 -0.28125q-0.25 -0.296875 -0.25 -0.96875l0 -3.640625l9.671875 0l0 3.640625q0 0.671875 -0.265625 0.96875q-0.25 0.28125 -0.671875 0.28125q-0.40625 0 -0.671875 -0.28125q-0.265625 -0.296875 -0.265625 -0.96875l0 -1.765625l-2.046875 0zm9.898682 0.90625l0 1.15625q1.1875 -0.84375 1.859375 -1.125q0.6875 -0.28125 1.265625 -0.28125q0.921875 0 1.78125 0.671875q0.578125 0.453125 0.578125 0.921875q0 0.40625 -0.28125 0.6875q-0.28125 0.28125 -0.671875 0.28125q-0.34375 0 -0.734375 -0.34375q-0.375 -0.359375 -0.671875 -0.359375q-0.390625 0 -1.171875 0.5q-0.78125 0.484375 -1.953125 1.46875l0 2.8125l2.671875 0q0.671875 0 0.953125 0.265625q0.296875 0.265625 0.296875 0.6875q0 0.40625 -0.296875 0.671875q-0.28125 0.25 -0.953125 0.25l-5.640625 0q-0.671875 0 -0.96875 -0.25q-0.28125 -0.265625 -0.28125 -0.6875q0 -0.40625 0.28125 -0.671875q0.296875 -0.265625 0.96875 -0.265625l1.109375 0l0 -4.53125l-0.671875 0q-0.671875 0 -0.96875 -0.25q-0.28125 -0.265625 -0.28125 -0.6875q0 -0.40625 0.28125 -0.65625q0.296875 -0.265625 0.96875 -0.265625l2.53125 0zm15.554962 0l0 6.390625q0.59375 0 0.875 0.265625q0.28125 0.265625 0.28125 0.6875q0 0.40625 -0.296875 0.671875q-0.28125 0.25 -0.953125 0.25l-1.765625 0l0 -0.421875q-0.8125 0.359375 -1.546875 0.53125q-0.71875 0.1875 -1.375 0.1875q-0.921875 0 -1.59375 -0.375q-0.671875 -0.390625 -1.0625 -1.078125q-0.28125 -0.5 -0.28125 -1.234375l0 -4.015625l-0.328125 0q-0.671875 0 -0.96875 -0.25q-0.28125 -0.265625 -0.28125 -0.6875q0 -0.40625 0.28125 -0.65625q0.296875 -0.265625 0.96875 -0.265625l2.1875 0l0 5.546875q0 0.59375 0.28125 0.875q0.296875 0.28125 0.890625 0.28125q0.5625 0 1.203125 -0.21875q0.65625 -0.234375 1.625 -0.8125l0 -3.8125l-0.6875 0q-0.671875 0 -0.953125 -0.25q-0.28125 -0.265625 -0.28125 -0.6875q0 -0.40625 0.28125 -0.65625q0.28125 -0.265625 0.953125 -0.265625l2.546875 0zm11.914307 5.078125l-7.65625 0q0.296875 0.734375 1.03125 1.1875q0.75 0.4375 2.015625 0.4375q1.03125 0 2.75 -0.453125q0.71875 -0.1875 0.984375 -0.1875q0.375 0 0.625 0.265625q0.265625 0.265625 0.265625 0.671875q0 0.359375 -0.28125 0.625q-0.359375 0.328125 -1.78125 0.640625q-1.40625 0.296875 -2.703125 0.296875q-2.25 0 -3.59375 -1.265625q-1.34375 -1.265625 -1.34375 -3.109375q0 -1.96875 1.453125 -3.203125q1.453125 -1.234375 3.359375 -1.234375q1.140625 0 2.078125 0.40625q0.953125 0.390625 1.421875 0.859375q0.65625 0.671875 1.09375 1.671875q0.28125 0.6875 0.28125 1.59375l0 0.796875zm-2.0625 -1.875q-0.4375 -0.796875 -1.125 -1.1875q-0.6875 -0.40625 -1.640625 -0.40625q-0.953125 0 -1.65625 0.40625q-0.6875 0.390625 -1.125 1.1875l5.546875 0z" fill-rule="nonzero"/><path fill="#000000" fill-opacity="0.0" d="m199.91864 386.2966l87.71652 0l0 42.015747l-87.71652 0z" fill-rule="evenodd"/><path fill="#000000" d="m213.23114 408.62283l0 2.71875l1.921875 0q0.671875 0 0.953125 0.265625q0.296875 0.265625 0.296875 0.6875q0 0.40625 -0.296875 0.671875q-0.28125 0.25 -0.953125 0.25l-4.078125 0q-0.671875 0 -0.96875 -0.25q-0.28125 -0.265625 -0.28125 -0.6875q0 -0.40625 0.296875 -0.671875q0.296875 -0.265625 0.953125 -0.265625l0.296875 0l0 -7.296875l-0.296875 0q-0.671875 0 -0.96875 -0.25q-0.28125 -0.265625 -0.28125 -0.6875q0 -0.421875 0.28125 -0.671875q0.296875 -0.265625 0.96875 -0.265625l8.796875 0l0 2.859375q0 0.65625 -0.265625 0.953125q-0.25 0.28125 -0.671875 0.28125q-0.421875 0 -0.6875 -0.28125q-0.25 -0.28125 -0.25 -0.953125l0 -0.984375l-4.765625 0l0 2.703125l1.640625 0q0 -0.734375 0.140625 -0.9375q0.28125 -0.453125 0.796875 -0.453125q0.421875 0 0.671875 0.296875q0.265625 0.28125 0.265625 0.953125l0 2.15625q0 0.671875 -0.265625 0.96875q-0.25 0.28125 -0.671875 0.28125q-0.515625 0 -0.796875 -0.453125q-0.140625 -0.203125 -0.140625 -0.9375l-1.640625 0zm14.164322 4.59375l0 -0.4375q-0.703125 0.375 -1.5625 0.5625q-0.84375 0.1875 -1.53125 0.1875q-1.5 0 -2.4375 -0.796875q-0.9375 -0.796875 -0.9375 -1.765625q0 -1.171875 1.1875 -2.171875q1.203125 -1.015625 3.3125 -1.015625q0.859375 0 1.96875 0.1875l0 -0.453125q0 -0.421875 -0.359375 -0.6875q-0.359375 -0.265625 -1.375 -0.265625q-0.828125 0 -2.15625 0.328125q-0.484375 0.125 -0.765625 0.125q-0.359375 0 -0.625 -0.265625q-0.265625 -0.265625 -0.265625 -0.6875q0 -0.234375 0.09375 -0.40625q0.09375 -0.1875 0.25 -0.28125q0.171875 -0.109375 0.6875 -0.25q0.703125 -0.203125 1.421875 -0.3125q0.71875 -0.109375 1.296875 -0.109375q1.734375 0 2.6875 0.75q0.96875 0.75 0.96875 2.046875l0 3.84375l0.328125 0q0.671875 0 0.953125 0.265625q0.296875 0.265625 0.296875 0.6875q0 0.40625 -0.296875 0.671875q-0.28125 0.25 -0.953125 0.25l-2.1875 0zm0 -3.34375q-1.125 -0.21875 -2.078125 -0.21875q-1.125 0 -1.953125 0.5625q-0.515625 0.34375 -0.515625 0.71875q0 0.265625 0.25 0.421875q0.453125 0.296875 1.25 0.296875q0.671875 0 1.515625 -0.265625q0.859375 -0.265625 1.53125 -0.71875l0 -0.796875zm10.445572 -8.46875l0 9.9375l2.234375 0q0.6875 0 0.96875 0.265625q0.28125 0.265625 0.28125 0.6875q0 0.40625 -0.28125 0.671875q-0.28125 0.25 -0.96875 0.25l-6.34375 0q-0.671875 0 -0.96875 -0.25q-0.28125 -0.265625 -0.28125 -0.6875q0 -0.40625 0.28125 -0.671875q0.296875 -0.265625 0.96875 -0.265625l2.25 0l0 -8.078125l-1.515625 0q-0.65625 0 -0.953125 -0.25q-0.296875 -0.265625 -0.296875 -0.6875q0 -0.40625 0.28125 -0.65625q0.296875 -0.265625 0.96875 -0.265625l3.375 0zm12.273697 5.734375q-0.453125 -0.296875 -0.953125 -0.4375q-0.5 -0.140625 -1.046875 -0.140625q-1.078125 0 -1.71875 0.359375q-0.28125 0.15625 -0.28125 0.34375q0 0.203125 0.375 0.40625q0.296875 0.140625 1.3125 0.28125q1.859375 0.25 2.578125 0.515625q0.96875 0.328125 1.484375 1.0q0.515625 0.65625 0.515625 1.40625q0 1.0 -0.890625 1.671875q-1.265625 0.96875 -3.28125 0.96875q-0.8125 0 -1.5 -0.140625q-0.6875 -0.140625 -1.265625 -0.40625q-0.125 0.109375 -0.28125 0.171875q-0.15625 0.0625 -0.328125 0.0625q-0.4375 0 -0.703125 -0.28125q-0.25 -0.28125 -0.25 -0.953125l0 -0.640625q0 -0.671875 0.25 -0.953125q0.265625 -0.296875 0.6875 -0.296875q0.34375 0 0.5625 0.1875q0.234375 0.1875 0.359375 0.640625q0.421875 0.375 1.015625 0.5625q0.609375 0.1875 1.390625 0.1875q1.296875 0 2.0 -0.40625q0.34375 -0.203125 0.34375 -0.421875q0 -0.359375 -0.484375 -0.59375q-0.484375 -0.234375 -2.0 -0.40625q-2.25 -0.234375 -3.0 -0.90625q-0.765625 -0.671875 -0.765625 -1.640625q0 -1.0 0.859375 -1.671875q1.140625 -0.90625 3.0 -0.90625q0.640625 0 1.234375 0.125q0.609375 0.125 1.15625 0.375q0.171875 -0.125 0.3125 -0.1875q0.15625 -0.0625 0.28125 -0.0625q0.390625 0 0.640625 0.28125q0.25 0.28125 0.25 0.96875l0 0.453125q0 0.609375 -0.140625 0.828125q-0.296875 0.421875 -0.796875 0.421875q-0.328125 0 -0.59375 -0.203125q-0.25 -0.21875 -0.328125 -0.5625zm13.867447 2.890625l-7.65625 0q0.296875 0.734375 1.03125 1.1875q0.75 0.4375 2.015625 0.4375q1.03125 0 2.75 -0.453125q0.71875 -0.1875 0.984375 -0.1875q0.375 0 0.625 0.265625q0.265625 0.265625 0.265625 0.671875q0 0.359375 -0.28125 0.625q-0.359375 0.328125 -1.78125 0.640625q-1.40625 0.296875 -2.703125 0.296875q-2.25 0 -3.59375 -1.265625q-1.34375 -1.265625 -1.34375 -3.109375q0 -1.96875 1.453125 -3.203125q1.453125 -1.234375 3.359375 -1.234375q1.140625 0 2.078125 0.40625q0.953125 0.390625 1.421875 0.859375q0.65625 0.671875 1.09375 1.671875q0.28125 0.6875 0.28125 1.59375l0 0.796875zm-2.0625 -1.875q-0.4375 -0.796875 -1.125 -1.1875q-0.6875 -0.40625 -1.640625 -0.40625q-0.953125 0 -1.65625 0.40625q-0.6875 0.390625 -1.125 1.1875l5.546875 0z" fill-rule="nonzero"/><path fill="#000000" fill-opacity="0.0" d="m199.91864 604.3858l87.71652 0l0 42.015747l-87.71652 0z" fill-rule="evenodd"/><path fill="#000000" d="m213.23114 626.7121l0 2.71875l1.921875 0q0.671875 0 0.953125 0.265625q0.296875 0.265625 0.296875 0.6875q0 0.40625 -0.296875 0.671875q-0.28125 0.25 -0.953125 0.25l-4.078125 0q-0.671875 0 -0.96875 -0.25q-0.28125 -0.265625 -0.28125 -0.6875q0 -0.40625 0.296875 -0.671875q0.296875 -0.265625 0.953125 -0.265625l0.296875 0l0 -7.296875l-0.296875 0q-0.671875 0 -0.96875 -0.25q-0.28125 -0.265625 -0.28125 -0.6875q0 -0.421875 0.28125 -0.671875q0.296875 -0.265625 0.96875 -0.265625l8.796875 0l0 2.859375q0 0.65625 -0.265625 0.953125q-0.25 0.28125 -0.671875 0.28125q-0.421875 0 -0.6875 -0.28125q-0.25 -0.28125 -0.25 -0.953125l0 -0.984375l-4.765625 0l0 2.703125l1.640625 0q0 -0.734375 0.140625 -0.9375q0.28125 -0.453125 0.796875 -0.453125q0.421875 0 0.671875 0.296875q0.265625 0.28125 0.265625 0.953125l0 2.15625q0 0.671875 -0.265625 0.96875q-0.25 0.28125 -0.671875 0.28125q-0.515625 0 -0.796875 -0.453125q-0.140625 -0.203125 -0.140625 -0.9375l-1.640625 0zm14.164322 4.59375l0 -0.4375q-0.703125 0.375 -1.5625 0.5625q-0.84375 0.1875 -1.53125 0.1875q-1.5 0 -2.4375 -0.796875q-0.9375 -0.796875 -0.9375 -1.765625q0 -1.171875 1.1875 -2.171875q1.203125 -1.015625 3.3125 -1.015625q0.859375 0 1.96875 0.1875l0 -0.453125q0 -0.421875 -0.359375 -0.6875q-0.359375 -0.265625 -1.375 -0.265625q-0.828125 0 -2.15625 0.328125q-0.484375 0.125 -0.765625 0.125q-0.359375 0 -0.625 -0.265625q-0.265625 -0.265625 -0.265625 -0.6875q0 -0.234375 0.09375 -0.40625q0.09375 -0.1875 0.25 -0.28125q0.171875 -0.109375 0.6875 -0.25q0.703125 -0.203125 1.421875 -0.3125q0.71875 -0.109375 1.296875 -0.109375q1.734375 0 2.6875 0.75q0.96875 0.75 0.96875 2.046875l0 3.84375l0.328125 0q0.671875 0 0.953125 0.265625q0.296875 0.265625 0.296875 0.6875q0 0.40625 -0.296875 0.671875q-0.28125 0.25 -0.953125 0.25l-2.1875 0zm0 -3.34375q-1.125 -0.21875 -2.078125 -0.21875q-1.125 0 -1.953125 0.5625q-0.515625 0.34375 -0.515625 0.71875q0 0.265625 0.25 0.421875q0.453125 0.296875 1.25 0.296875q0.671875 0 1.515625 -0.265625q0.859375 -0.265625 1.53125 -0.71875l0 -0.796875zm10.445572 -8.46875l0 9.9375l2.234375 0q0.6875 0 0.96875 0.265625q0.28125 0.265625 0.28125 0.6875q0 0.40625 -0.28125 0.671875q-0.28125 0.25 -0.96875 0.25l-6.34375 0q-0.671875 0 -0.96875 -0.25q-0.28125 -0.265625 -0.28125 -0.6875q0 -0.40625 0.28125 -0.671875q0.296875 -0.265625 0.96875 -0.265625l2.25 0l0 -8.078125l-1.515625 0q-0.65625 0 -0.953125 -0.25q-0.296875 -0.265625 -0.296875 -0.6875q0 -0.40625 0.28125 -0.65625q0.296875 -0.265625 0.96875 -0.265625l3.375 0zm12.273697 5.734375q-0.453125 -0.296875 -0.953125 -0.4375q-0.5 -0.140625 -1.046875 -0.140625q-1.078125 0 -1.71875 0.359375q-0.28125 0.15625 -0.28125 0.34375q0 0.203125 0.375 0.40625q0.296875 0.140625 1.3125 0.28125q1.859375 0.25 2.578125 0.515625q0.96875 0.328125 1.484375 1.0q0.515625 0.65625 0.515625 1.40625q0 1.0 -0.890625 1.671875q-1.265625 0.96875 -3.28125 0.96875q-0.8125 0 -1.5 -0.140625q-0.6875 -0.140625 -1.265625 -0.40625q-0.125 0.109375 -0.28125 0.171875q-0.15625 0.0625 -0.328125 0.0625q-0.4375 0 -0.703125 -0.28125q-0.25 -0.28125 -0.25 -0.953125l0 -0.640625q0 -0.671875 0.25 -0.953125q0.265625 -0.296875 0.6875 -0.296875q0.34375 0 0.5625 0.1875q0.234375 0.1875 0.359375 0.640625q0.421875 0.375 1.015625 0.5625q0.609375 0.1875 1.390625 0.1875q1.296875 0 2.0 -0.40625q0.34375 -0.203125 0.34375 -0.421875q0 -0.359375 -0.484375 -0.59375q-0.484375 -0.234375 -2.0 -0.40625q-2.25 -0.234375 -3.0 -0.90625q-0.765625 -0.671875 -0.765625 -1.640625q0 -1.0 0.859375 -1.671875q1.140625 -0.90625 3.0 -0.90625q0.640625 0 1.234375 0.125q0.609375 0.125 1.15625 0.375q0.171875 -0.125 0.3125 -0.1875q0.15625 -0.0625 0.28125 -0.0625q0.390625 0 0.640625 0.28125q0.25 0.28125 0.25 0.96875l0 0.453125q0 0.609375 -0.140625 0.828125q-0.296875 0.421875 -0.796875 0.421875q-0.328125 0 -0.59375 -0.203125q-0.25 -0.21875 -0.328125 -0.5625zm13.867447 2.890625l-7.65625 0q0.296875 0.734375 1.03125 1.1875q0.75 0.4375 2.015625 0.4375q1.03125 0 2.75 -0.453125q0.71875 -0.1875 0.984375 -0.1875q0.375 0 0.625 0.265625q0.265625 0.265625 0.265625 0.671875q0 0.359375 -0.28125 0.625q-0.359375 0.328125 -1.78125 0.640625q-1.40625 0.296875 -2.703125 0.296875q-2.25 0 -3.59375 -1.265625q-1.34375 -1.265625 -1.34375 -3.109375q0 -1.96875 1.453125 -3.203125q1.453125 -1.234375 3.359375 -1.234375q1.140625 0 2.078125 0.40625q0.953125 0.390625 1.421875 0.859375q0.65625 0.671875 1.09375 1.671875q0.28125 0.6875 0.28125 1.59375l0 0.796875zm-2.0625 -1.875q-0.4375 -0.796875 -1.125 -1.1875q-0.6875 -0.40625 -1.640625 -0.40625q-0.953125 0 -1.65625 0.40625q-0.6875 0.390625 -1.125 1.1875l5.546875 0z" fill-rule="nonzero"/></g></svg>